<?xml version="1.0" encoding="UTF-8"?>
<svg id="obi" xmlns="http://www.w3.org/2000/svg" width="191" height="53" viewBox="0 0 191 53">
  <defs>
    <style>
      .cls-1 {
        fill: #443c24;
        stroke-width: 0px;
      }
    </style>
  </defs>
  <path class="cls-1" d="M18.45,32.26v-1.14c.78-.16,1.36-.33,1.74-.51s.67-.45.85-.78c.19-.33.28-.78.28-1.34,0-.53-.06-1.1-.19-1.72-.12-.62-.3-1.31-.54-2.07l-.86-3.01h-10.89l-.79,2.29c-.4,1.15-.67,2.03-.79,2.62-.12.59-.19,1.13-.19,1.61,0,.93.24,1.62.71,2.06.48.44,1.2.72,2.19.86v1.14H0v-1.14c.87-.14,1.63-.65,2.28-1.52.65-.87,1.27-2.12,1.88-3.74L13.9,0h3.69l7.94,26.05c.37,1.21.7,2.14.99,2.78.29.64.63,1.14,1.04,1.49.4.36.96.62,1.66.79v1.14h-10.77ZM9.48,19.65h9.76l-4.44-15.07-5.33,15.07Z"/>
  <path class="cls-1" d="M52.21,10.46v4.88h-2.97c-.26-1.01-.59-1.81-.98-2.39-.39-.58-.84-.99-1.35-1.23-.51-.23-1.15-.35-1.92-.35-1.09,0-2.05.35-2.9,1.05-.84.7-1.51,1.77-2,3.2-.49,1.43-.74,3.18-.74,5.26,0,1.32.09,2.53.28,3.63.19,1.1.51,2.04.96,2.81.45.78,1.05,1.39,1.8,1.82.75.44,1.67.65,2.78.65s2.08-.21,3-.63c.93-.42,1.89-1.16,2.89-2.22l1.33,1.54c-.79.87-1.49,1.55-2.1,2.02s-1.26.87-1.95,1.19-1.38.55-2.05.7-1.41.22-2.21.22c-2.94,0-5.19-.98-6.75-2.93-1.56-1.95-2.34-4.78-2.34-8.47,0-2.31.44-4.35,1.31-6.13.87-1.78,2.09-3.16,3.67-4.12,1.57-.97,3.39-1.45,5.44-1.45,1.28,0,2.46.07,3.54.22,1.08.15,2.17.39,3.26.71Z"/>
  <path class="cls-1" d="M75.69,10.46v4.88h-2.97c-.26-1.01-.59-1.81-.98-2.39-.39-.58-.84-.99-1.35-1.23-.51-.23-1.15-.35-1.92-.35-1.09,0-2.05.35-2.9,1.05-.84.7-1.51,1.77-2,3.2-.49,1.43-.74,3.18-.74,5.26,0,1.32.09,2.53.28,3.63.19,1.1.51,2.04.96,2.81.45.78,1.05,1.39,1.8,1.82.75.44,1.67.65,2.78.65s2.08-.21,3-.63c.93-.42,1.89-1.16,2.89-2.22l1.33,1.54c-.79.87-1.49,1.55-2.1,2.02s-1.26.87-1.95,1.19-1.38.55-2.05.7-1.41.22-2.21.22c-2.94,0-5.19-.98-6.75-2.93-1.56-1.95-2.34-4.78-2.34-8.47,0-2.31.44-4.35,1.31-6.13.87-1.78,2.09-3.16,3.67-4.12,1.57-.97,3.39-1.45,5.44-1.45,1.28,0,2.46.07,3.54.22,1.08.15,2.17.39,3.26.71Z"/>
  <path class="cls-1" d="M100.45,28.29c-1,1.04-1.91,1.86-2.75,2.45-.83.59-1.75,1.05-2.74,1.39-1,.34-2.1.5-3.29.5-3.21,0-5.63-.96-7.26-2.89-1.64-1.92-2.45-4.76-2.45-8.51,0-2.32.42-4.37,1.25-6.14.83-1.78,2.02-3.15,3.56-4.11,1.54-.97,3.32-1.45,5.33-1.45,1.57,0,2.91.25,4.02.75,1.11.5,1.99,1.18,2.65,2.04s1.18,1.95,1.54,3.27c.37,1.32.57,3.03.62,5.15h-14.72v.42c0,1.84.21,3.38.62,4.64.41,1.25,1.09,2.24,2.03,2.94.94.71,2.17,1.06,3.68,1.06,1.28,0,2.43-.24,3.45-.71,1.02-.48,2.04-1.25,3.05-2.32l1.43,1.52ZM96.52,18.8c-.09-1.68-.3-3.06-.63-4.12-.33-1.07-.82-1.88-1.47-2.45-.65-.57-1.51-.85-2.57-.85-1.6,0-2.88.64-3.84,1.93-.96,1.28-1.52,3.12-1.69,5.5h10.21Z"/>
  <path class="cls-1" d="M123.16,15.04h-2.24c-.34-.93-.75-1.67-1.21-2.21-.47-.54-1-.91-1.59-1.13-.59-.22-1.32-.33-2.17-.33-1.25,0-2.24.29-2.98.88-.74.58-1.11,1.38-1.11,2.39,0,.72.15,1.31.44,1.78.3.47.76.9,1.38,1.31.62.41,1.72.94,3.29,1.61,1.59.69,2.81,1.32,3.68,1.89.87.58,1.54,1.25,2.03,2.01.49.76.73,1.67.73,2.73,0,1.23-.21,2.27-.63,3.11-.42.84-1.01,1.53-1.77,2.06-.76.53-1.67.91-2.72,1.14-1.05.23-2.2.35-3.45.35-1.31,0-2.58-.1-3.81-.29-1.23-.19-2.43-.45-3.6-.76v-4.88h2.29c.42,1.43,1.04,2.47,1.87,3.12.82.65,1.96.97,3.41.97.56,0,1.11-.06,1.65-.18.54-.12,1.02-.31,1.44-.58.42-.27.76-.64,1.01-1.11.25-.47.37-1.05.37-1.75,0-.79-.16-1.44-.47-1.94-.31-.5-.79-.95-1.45-1.37-.65-.41-1.81-.97-3.46-1.67-1.42-.59-2.55-1.17-3.41-1.73-.86-.56-1.53-1.22-2.02-1.98-.49-.76-.74-1.67-.74-2.71,0-1.28.35-2.39,1.04-3.33.69-.94,1.69-1.66,3-2.16,1.31-.5,2.84-.75,4.6-.75,1.03,0,2.02.05,2.98.15s2.16.3,3.61.6v4.77Z"/>
  <path class="cls-1" d="M146.11,15.04h-2.24c-.34-.93-.75-1.67-1.21-2.21-.47-.54-1-.91-1.59-1.13-.59-.22-1.32-.33-2.17-.33-1.25,0-2.24.29-2.98.88s-1.11,1.38-1.11,2.39c0,.72.15,1.31.44,1.78.3.47.76.9,1.38,1.31.62.41,1.72.94,3.29,1.61,1.59.69,2.81,1.32,3.68,1.89.87.58,1.54,1.25,2.03,2.01.49.76.73,1.67.73,2.73,0,1.23-.21,2.27-.63,3.11-.42.84-1.01,1.53-1.77,2.06-.76.53-1.67.91-2.72,1.14-1.05.23-2.2.35-3.45.35-1.31,0-2.58-.1-3.81-.29-1.23-.19-2.43-.45-3.6-.76v-4.88h2.29c.42,1.43,1.04,2.47,1.87,3.12.82.65,1.96.97,3.41.97.56,0,1.11-.06,1.65-.18.54-.12,1.02-.31,1.44-.58.42-.27.76-.64,1.01-1.11.25-.47.37-1.05.37-1.75,0-.79-.16-1.44-.47-1.94s-.79-.95-1.45-1.37c-.65-.41-1.81-.97-3.46-1.67-1.42-.59-2.55-1.17-3.41-1.73-.86-.56-1.53-1.22-2.02-1.98-.49-.76-.74-1.67-.74-2.71,0-1.28.35-2.39,1.04-3.33.69-.94,1.69-1.66,3-2.16,1.31-.5,2.84-.75,4.6-.75,1.03,0,2.02.05,2.98.15s2.16.3,3.61.6v4.77Z"/>
</svg>