<?xml version="1.0" encoding="UTF-8"?>
<svg id="obi" xmlns="http://www.w3.org/2000/svg" width="51.79" height="11.55" viewBox="0 0 51.79 11.55">
  <defs>
    <style>
      .cls-1 {
        fill: #443c24;
        stroke-width: 0px;
      }
    </style>
  </defs>
  <path class="cls-1" d="M6.53,11.41v-.4c.28-.06.48-.12.62-.18s.24-.16.3-.28c.07-.12.1-.28.1-.48,0-.19-.02-.39-.07-.61-.04-.22-.11-.46-.19-.73l-.31-1.07h-3.85l-.28.81c-.14.41-.24.72-.28.93-.04.21-.07.4-.07.57,0,.33.08.57.25.73s.43.26.77.31v.4H0v-.4c.31-.05.58-.23.81-.54.23-.31.45-.75.67-1.32L4.92,0h1.31l2.81,9.22c.13.43.25.76.35.98.1.23.22.4.37.53.14.13.34.22.59.28v.4h-3.81ZM3.36,6.95h3.45l-1.57-5.33-1.88,5.33Z"/>
  <path class="cls-1" d="M18.47,3.7v1.73h-1.05c-.09-.36-.21-.64-.35-.85-.14-.21-.3-.35-.48-.43-.18-.08-.41-.12-.68-.12-.39,0-.73.12-1.02.37-.3.25-.53.63-.71,1.13-.17.51-.26,1.13-.26,1.86,0,.47.03.9.1,1.29.07.39.18.72.34,1,.16.28.37.49.64.64.26.15.59.23.98.23s.73-.07,1.06-.22c.33-.15.67-.41,1.02-.79l.47.55c-.28.31-.53.55-.74.71s-.45.31-.69.42-.49.2-.73.25-.5.08-.78.08c-1.04,0-1.84-.35-2.39-1.04-.55-.69-.83-1.69-.83-3,0-.82.15-1.54.46-2.17.31-.63.74-1.12,1.3-1.46.56-.34,1.2-.51,1.93-.51.45,0,.87.03,1.25.08.38.05.77.14,1.15.25Z"/>
  <path class="cls-1" d="M26.78,3.7v1.73h-1.05c-.09-.36-.21-.64-.35-.85-.14-.21-.3-.35-.48-.43-.18-.08-.41-.12-.68-.12-.39,0-.73.12-1.02.37-.3.25-.53.63-.71,1.13-.17.51-.26,1.13-.26,1.86,0,.47.03.9.1,1.29.07.39.18.72.34,1,.16.28.37.49.64.64.26.15.59.23.98.23s.73-.07,1.06-.22c.33-.15.67-.41,1.02-.79l.47.55c-.28.31-.53.55-.74.71s-.45.31-.69.42-.49.2-.73.25-.5.08-.78.08c-1.04,0-1.84-.35-2.39-1.04-.55-.69-.83-1.69-.83-3,0-.82.15-1.54.46-2.17.31-.63.74-1.12,1.3-1.46.56-.34,1.2-.51,1.93-.51.45,0,.87.03,1.25.08.38.05.77.14,1.15.25Z"/>
  <path class="cls-1" d="M35.54,10.01c-.35.37-.68.66-.97.87-.29.21-.62.37-.97.49-.35.12-.74.18-1.17.18-1.13,0-1.99-.34-2.57-1.02-.58-.68-.87-1.68-.87-3.01,0-.82.15-1.55.44-2.17.29-.63.71-1.11,1.26-1.45.55-.34,1.17-.51,1.88-.51.56,0,1.03.09,1.42.26.39.18.7.42.94.72s.42.69.55,1.16c.13.47.2,1.07.22,1.82h-5.21v.15c0,.65.07,1.2.22,1.64.15.44.39.79.72,1.04.33.25.77.38,1.3.38.45,0,.86-.08,1.22-.25s.72-.44,1.08-.82l.5.54ZM34.15,6.65c-.03-.6-.11-1.08-.22-1.46-.12-.38-.29-.67-.52-.87s-.53-.3-.91-.3c-.57,0-1.02.23-1.36.68-.34.45-.54,1.1-.6,1.95h3.61Z"/>
  <path class="cls-1" d="M43.58,5.32h-.79c-.12-.33-.26-.59-.43-.78-.16-.19-.35-.32-.56-.4-.21-.08-.47-.12-.77-.12-.44,0-.79.1-1.05.31s-.39.49-.39.85c0,.25.05.46.16.63s.27.32.49.46c.22.14.61.33,1.17.57.56.24,1,.47,1.3.67.31.2.55.44.72.71.17.27.26.59.26.97,0,.44-.07.8-.22,1.1-.15.3-.36.54-.63.73-.27.19-.59.32-.96.4-.37.08-.78.12-1.22.12-.46,0-.91-.03-1.35-.1-.44-.07-.86-.16-1.27-.27v-1.73h.81c.15.51.37.87.66,1.1.29.23.69.34,1.21.34.2,0,.39-.02.58-.06.19-.04.36-.11.51-.21.15-.1.27-.23.36-.39.09-.17.13-.37.13-.62,0-.28-.06-.51-.17-.69s-.28-.34-.51-.48c-.23-.15-.64-.34-1.22-.59-.5-.21-.9-.41-1.21-.61-.3-.2-.54-.43-.71-.7-.17-.27-.26-.59-.26-.96,0-.45.12-.84.37-1.18s.6-.59,1.06-.76c.46-.18,1.01-.26,1.63-.26.36,0,.71.02,1.05.05s.76.11,1.28.21v1.69Z"/>
  <path class="cls-1" d="M51.7,5.32h-.79c-.12-.33-.26-.59-.43-.78-.16-.19-.35-.32-.56-.4-.21-.08-.47-.12-.77-.12-.44,0-.79.1-1.05.31s-.39.49-.39.85c0,.25.05.46.16.63s.27.32.49.46c.22.14.61.33,1.17.57.56.24,1,.47,1.3.67.31.2.55.44.72.71.17.27.26.59.26.97,0,.44-.07.8-.22,1.1-.15.3-.36.54-.63.73-.27.19-.59.32-.96.4-.37.08-.78.12-1.22.12-.46,0-.91-.03-1.35-.1-.44-.07-.86-.16-1.27-.27v-1.73h.81c.15.51.37.87.66,1.1.29.23.69.34,1.21.34.2,0,.39-.02.58-.06.19-.04.36-.11.51-.21.15-.1.27-.23.36-.39.09-.17.13-.37.13-.62,0-.28-.06-.51-.17-.69s-.28-.34-.51-.48c-.23-.15-.64-.34-1.22-.59-.5-.21-.9-.41-1.21-.61-.3-.2-.54-.43-.71-.7-.17-.27-.26-.59-.26-.96,0-.45.12-.84.37-1.18s.6-.59,1.06-.76c.46-.18,1.01-.26,1.63-.26.36,0,.71.02,1.05.05s.76.11,1.28.21v1.69Z"/>
</svg>