<?xml version="1.0" encoding="UTF-8"?>
<svg id="obi" xmlns="http://www.w3.org/2000/svg" width="68.57" height="11.55" viewBox="0 0 68.57 11.55">
  <defs>
    <style>
      .cls-1 {
        fill: #443c24;
        stroke-width: 0px;
      }
    </style>
  </defs>
  <path class="cls-1" d="M7.63.37v2.29h-.82c-.13-.48-.3-.86-.5-1.14s-.44-.49-.71-.61c-.27-.12-.59-.18-.97-.18-.57,0-1.07.19-1.52.57-.44.38-.79.95-1.05,1.7-.25.76-.38,1.67-.38,2.75s.1,2,.31,2.76.52,1.34.93,1.73c.41.39.91.58,1.5.58.45,0,.82-.06,1.11-.19.29-.13.53-.34.72-.62.2-.28.38-.69.56-1.24h.82v2.36c-.52.14-1.05.24-1.59.31-.54.07-1.14.1-1.79.1-1.4,0-2.46-.47-3.17-1.42-.72-.95-1.07-2.36-1.07-4.24,0-1.18.19-2.21.56-3.1.37-.89.92-1.57,1.64-2.06.72-.48,1.58-.73,2.59-.73.5,0,.96.03,1.39.08.42.05.91.15,1.45.29Z"/>
  <path class="cls-1" d="M13.78,11.55c-1.15,0-2.02-.34-2.62-1.01-.6-.68-.91-1.67-.91-3,0-.91.16-1.68.48-2.31.32-.63.75-1.1,1.3-1.4s1.18-.46,1.88-.46c1.18,0,2.07.34,2.68,1.03.61.69.91,1.67.91,2.95,0,.91-.15,1.69-.45,2.31-.3.63-.73,1.1-1.29,1.41s-1.22.47-1.98.47ZM11.81,7.36c0,1.14.18,2.01.54,2.62s.88.91,1.55.91c.37,0,.68-.09.94-.27.26-.18.47-.42.63-.72s.28-.65.35-1.05c.07-.4.11-.82.11-1.25,0-.81-.09-1.48-.27-2.02s-.42-.93-.73-1.18c-.31-.25-.66-.38-1.06-.38-.67,0-1.18.29-1.53.87-.36.58-.53,1.4-.53,2.47Z"/>
  <path class="cls-1" d="M27.9,11.41h-3.26v-.4c.22-.07.37-.12.46-.17.09-.05.17-.12.24-.21s.11-.22.15-.41c.04-.18.05-.46.05-.84v-2.17c0-.39-.01-.74-.03-1.05-.02-.31-.06-.57-.11-.77-.05-.2-.12-.36-.19-.47-.07-.11-.16-.21-.26-.29-.1-.08-.22-.14-.35-.19-.13-.05-.31-.07-.52-.07s-.42.04-.61.13c-.19.09-.4.23-.64.44-.23.21-.4.42-.5.62s-.16.44-.16.7v3.08c0,.47.02.8.07.99.04.18.13.33.25.42.12.1.33.18.61.25v.4h-3.24v-.4c.22-.07.37-.12.46-.17.09-.05.17-.12.23-.21.06-.09.11-.22.15-.4.04-.18.05-.47.05-.85v-3.6c0-.35,0-.64-.02-.85-.01-.21-.05-.39-.12-.52s-.17-.23-.3-.29c-.14-.06-.33-.12-.57-.16v-.44l1.93-.07h.5l-.09,1.35.12.03c.41-.41.74-.71.99-.88.25-.18.5-.31.76-.41.26-.1.53-.14.81-.14s.56.03.8.1c.23.07.44.18.62.32.18.14.33.32.44.53.12.21.2.47.26.76.06.3.09.68.09,1.13v3.12c0,.38.01.66.03.83.02.17.06.3.12.4.06.09.13.17.24.24s.29.13.55.2v.4Z"/>
  <path class="cls-1" d="M29.65,3.93c.28-.04.5-.12.67-.23.17-.11.3-.25.4-.43s.17-.39.23-.65c.06-.26.11-.64.17-1.14h1.17v2.04h2.67v.84h-2.67v3.68c0,.53.02.96.07,1.28s.13.56.25.74.26.31.41.38c.15.08.35.12.59.12.22,0,.43-.05.62-.14.19-.09.38-.22.57-.39l.37.45c-.39.38-.76.66-1.11.83-.35.17-.71.26-1.09.26-.71,0-1.24-.21-1.59-.63-.35-.42-.52-1.08-.52-1.98v-4.59h-1.22v-.42Z"/>
  <path class="cls-1" d="M43.32,10.01c-.35.37-.68.66-.97.87-.29.21-.62.37-.97.49-.35.12-.74.18-1.17.18-1.13,0-1.99-.34-2.57-1.02-.58-.68-.87-1.68-.87-3.01,0-.82.15-1.55.44-2.17.29-.63.71-1.11,1.26-1.45.55-.34,1.17-.51,1.88-.51.56,0,1.03.09,1.42.26.39.18.7.42.94.72s.42.69.55,1.16c.13.47.2,1.07.22,1.82h-5.21v.15c0,.65.07,1.2.22,1.64.15.44.39.79.72,1.04.33.25.77.38,1.3.38.45,0,.86-.08,1.22-.25s.72-.44,1.08-.82l.5.54ZM41.93,6.65c-.03-.6-.11-1.08-.22-1.46-.12-.38-.29-.67-.52-.87s-.53-.3-.91-.3c-.57,0-1.02.23-1.36.68-.34.45-.54,1.1-.6,1.95h3.61Z"/>
  <path class="cls-1" d="M53.7,11.41h-3.26v-.4c.22-.07.37-.12.46-.17.09-.05.17-.12.24-.21s.11-.22.15-.41c.04-.18.05-.46.05-.84v-2.17c0-.39-.01-.74-.03-1.05-.02-.31-.06-.57-.11-.77-.05-.2-.12-.36-.19-.47-.07-.11-.16-.21-.26-.29-.1-.08-.22-.14-.35-.19-.13-.05-.31-.07-.52-.07s-.42.04-.61.13c-.19.09-.4.23-.64.44-.23.21-.4.42-.5.62s-.16.44-.16.7v3.08c0,.47.02.8.07.99.04.18.13.33.25.42.12.1.33.18.61.25v.4h-3.24v-.4c.22-.07.37-.12.46-.17.09-.05.17-.12.23-.21.06-.09.11-.22.15-.4.04-.18.05-.47.05-.85v-3.6c0-.35,0-.64-.02-.85-.01-.21-.05-.39-.12-.52s-.17-.23-.3-.29c-.14-.06-.33-.12-.57-.16v-.44l1.93-.07h.5l-.09,1.35.12.03c.41-.41.74-.71.99-.88.25-.18.5-.31.76-.41.26-.1.53-.14.81-.14s.56.03.8.1c.23.07.44.18.62.32.18.14.33.32.44.53.12.21.2.47.26.76.06.3.09.68.09,1.13v3.12c0,.38.01.66.03.83.02.17.06.3.12.4.06.09.13.17.24.24s.29.13.55.2v.4Z"/>
  <path class="cls-1" d="M55.45,3.93c.28-.04.5-.12.67-.23.17-.11.3-.25.4-.43s.17-.39.23-.65c.06-.26.11-.64.17-1.14h1.17v2.04h2.67v.84h-2.67v3.68c0,.53.02.96.07,1.28s.13.56.25.74.26.31.41.38c.15.08.35.12.59.12.22,0,.43-.05.62-.14.19-.09.38-.22.57-.39l.37.45c-.39.38-.76.66-1.11.83-.35.17-.71.26-1.09.26-.71,0-1.24-.21-1.59-.63-.35-.42-.52-1.08-.52-1.98v-4.59h-1.22v-.42Z"/>
  <path class="cls-1" d="M68.48,5.32h-.79c-.12-.33-.26-.59-.43-.78-.16-.19-.35-.32-.56-.4-.21-.08-.47-.12-.77-.12-.44,0-.79.1-1.05.31s-.39.49-.39.85c0,.25.05.46.16.63s.27.32.49.46c.22.14.61.33,1.17.57.56.24,1,.47,1.3.67.31.2.55.44.72.71.17.27.26.59.26.97,0,.44-.07.8-.22,1.1-.15.3-.36.54-.63.73-.27.19-.59.32-.96.4-.37.08-.78.12-1.22.12-.46,0-.91-.03-1.35-.1-.44-.07-.86-.16-1.27-.27v-1.73h.81c.15.51.37.87.66,1.1.29.23.69.34,1.21.34.2,0,.39-.02.58-.06.19-.04.36-.11.51-.21.15-.1.27-.23.36-.39.09-.17.13-.37.13-.62,0-.28-.06-.51-.17-.69s-.28-.34-.51-.48c-.23-.15-.64-.34-1.22-.59-.5-.21-.9-.41-1.21-.61-.3-.2-.54-.43-.71-.7-.17-.27-.26-.59-.26-.96,0-.45.12-.84.37-1.18s.6-.59,1.06-.76c.46-.18,1.01-.26,1.63-.26.36,0,.71.02,1.05.05s.76.11,1.28.21v1.69Z"/>
</svg>