<?xml version="1.0" encoding="UTF-8"?>
<svg id="obi" xmlns="http://www.w3.org/2000/svg" width="193.8" height="53" viewBox="0 0 193.8 53">
  <defs>
    <style>
      .cls-1 {
        fill: #443c24;
        stroke-width: 0px;
      }
    </style>
  </defs>
  <path class="cls-1" d="M21.56,1.05v6.47h-2.31c-.37-1.35-.85-2.43-1.43-3.23s-1.24-1.37-2.01-1.72c-.76-.34-1.68-.51-2.76-.51-1.6,0-3.04.53-4.29,1.6-1.26,1.07-2.24,2.67-2.96,4.81-.72,2.14-1.07,4.73-1.07,7.77s.3,5.66.89,7.81,1.46,3.78,2.62,4.88c1.15,1.1,2.57,1.65,4.25,1.65,1.28,0,2.32-.18,3.13-.55.81-.37,1.49-.95,2.04-1.74.55-.79,1.08-1.96,1.58-3.5h2.31v6.68c-1.46.39-2.96.68-4.5.88-1.54.2-3.22.29-5.06.29-3.96,0-6.95-1.34-8.97-4.02-2.03-2.68-3.04-6.67-3.04-11.98,0-3.33.53-6.25,1.58-8.76,1.05-2.51,2.6-4.45,4.64-5.82C8.25.69,10.69,0,13.53,0c1.42,0,2.73.07,3.93.22,1.2.15,2.57.42,4.11.83Z"/>
  <path class="cls-1" d="M38.95,32.64c-3.24,0-5.71-.95-7.42-2.86-1.71-1.91-2.56-4.73-2.56-8.47,0-2.57.45-4.74,1.34-6.52.9-1.77,2.12-3.09,3.68-3.96s3.33-1.3,5.33-1.3c3.33,0,5.85.97,7.57,2.91,1.71,1.94,2.57,4.72,2.57,8.35,0,2.59-.43,4.77-1.29,6.54-.86,1.78-2.07,3.1-3.64,3.98s-3.43,1.32-5.58,1.32ZM33.39,20.81c0,3.21.51,5.67,1.53,7.39,1.02,1.72,2.48,2.58,4.38,2.58,1.04,0,1.93-.25,2.66-.76.73-.51,1.33-1.19,1.79-2.04.46-.86.79-1.85.99-2.98.2-1.13.31-2.31.31-3.54,0-2.29-.25-4.19-.76-5.7-.51-1.51-1.2-2.62-2.07-3.33-.87-.71-1.87-1.06-2.99-1.06-1.88,0-3.33.82-4.33,2.45-1.01,1.63-1.51,3.96-1.51,6.98Z"/>
  <path class="cls-1" d="M78.85,32.26h-9.2v-1.14c.61-.19,1.04-.35,1.31-.49.27-.14.49-.34.67-.58s.32-.63.42-1.16c.1-.52.15-1.31.15-2.37v-6.12c0-1.09-.03-2.08-.09-2.97-.06-.89-.17-1.62-.32-2.18-.15-.57-.33-1.01-.54-1.33-.21-.32-.46-.59-.75-.82-.29-.23-.62-.41-.99-.54-.37-.13-.86-.2-1.47-.2s-1.18.12-1.73.36c-.54.24-1.14.66-1.8,1.25-.65.59-1.13,1.18-1.43,1.75-.3.58-.44,1.24-.44,1.99v8.71c0,1.34.06,2.27.19,2.79.13.52.36.92.71,1.19.35.27.92.51,1.72.71v1.14h-9.16v-1.14c.61-.19,1.04-.35,1.3-.49.26-.14.48-.34.65-.58.18-.25.32-.63.42-1.14.1-.51.15-1.32.15-2.41v-10.19c0-1-.02-1.8-.05-2.41-.03-.61-.14-1.09-.33-1.46s-.47-.64-.85-.82c-.38-.18-.92-.33-1.62-.46v-1.24l5.46-.21h1.43l-.26,3.81.33.09c1.15-1.17,2.08-2,2.79-2.5.71-.5,1.42-.88,2.15-1.16.72-.27,1.49-.41,2.3-.41s1.59.1,2.25.29c.66.2,1.24.49,1.75.9.51.41.92.91,1.25,1.51.33.6.57,1.32.74,2.16.16.84.25,1.91.25,3.2v8.81c0,1.08.03,1.85.09,2.34.06.48.17.86.33,1.12.16.27.38.49.68.67s.81.37,1.54.57v1.14Z"/>
  <path class="cls-1" d="M83.79,11.1c.78-.13,1.41-.34,1.89-.65.48-.31.86-.71,1.13-1.2s.49-1.11.64-1.85c.16-.74.32-1.82.49-3.23h3.32v5.77h7.55v2.36h-7.55v10.39c0,1.51.06,2.71.19,3.61s.36,1.6.7,2.1.73.87,1.17,1.09c.44.22,1,.33,1.68.33.62,0,1.21-.13,1.75-.39.54-.26,1.08-.63,1.61-1.11l1.05,1.26c-1.11,1.07-2.15,1.85-3.14,2.34-.99.48-2.01.72-3.07.72-2.01,0-3.5-.6-4.49-1.79-.98-1.19-1.47-3.06-1.47-5.6v-12.97h-3.46v-1.19Z"/>
  <path class="cls-1" d="M122.44,28.29c-1,1.04-1.91,1.86-2.75,2.45-.83.59-1.75,1.05-2.74,1.39-1,.34-2.1.5-3.29.5-3.21,0-5.63-.96-7.26-2.89-1.64-1.92-2.45-4.76-2.45-8.51,0-2.32.42-4.37,1.25-6.14.83-1.78,2.02-3.15,3.56-4.11,1.54-.97,3.32-1.45,5.33-1.45,1.57,0,2.91.25,4.02.75,1.11.5,1.99,1.18,2.65,2.04s1.18,1.95,1.54,3.27c.37,1.32.57,3.03.62,5.15h-14.72v.42c0,1.84.21,3.38.62,4.64.41,1.25,1.09,2.24,2.03,2.94.94.71,2.17,1.06,3.68,1.06,1.28,0,2.43-.24,3.45-.71,1.02-.48,2.04-1.25,3.05-2.32l1.43,1.52ZM118.51,18.8c-.09-1.68-.3-3.06-.63-4.12-.33-1.07-.82-1.88-1.47-2.45s-1.51-.85-2.57-.85c-1.6,0-2.88.64-3.84,1.93-.96,1.28-1.52,3.12-1.69,5.5h10.21Z"/>
  <path class="cls-1" d="M151.78,32.26h-9.2v-1.14c.61-.19,1.04-.35,1.31-.49.27-.14.49-.34.67-.58s.32-.63.42-1.16c.1-.52.15-1.31.15-2.37v-6.12c0-1.09-.03-2.08-.09-2.97-.06-.89-.17-1.62-.32-2.18-.15-.57-.33-1.01-.54-1.33-.21-.32-.46-.59-.75-.82-.29-.23-.62-.41-.99-.54-.37-.13-.86-.2-1.47-.2s-1.18.12-1.73.36c-.54.24-1.14.66-1.8,1.25-.65.59-1.13,1.18-1.43,1.75-.3.58-.44,1.24-.44,1.99v8.71c0,1.34.06,2.27.19,2.79.13.52.36.92.71,1.19.35.27.92.51,1.72.71v1.14h-9.16v-1.14c.61-.19,1.04-.35,1.3-.49.26-.14.48-.34.65-.58.18-.25.32-.63.42-1.14.1-.51.15-1.32.15-2.41v-10.19c0-1-.02-1.8-.05-2.41-.03-.61-.14-1.09-.33-1.46s-.47-.64-.85-.82c-.38-.18-.92-.33-1.62-.46v-1.24l5.46-.21h1.43l-.26,3.81.33.09c1.15-1.17,2.08-2,2.79-2.5.71-.5,1.42-.88,2.15-1.16.72-.27,1.49-.41,2.3-.41s1.59.1,2.25.29c.66.2,1.24.49,1.75.9.51.41.92.91,1.25,1.51.33.6.57,1.32.74,2.16.16.84.25,1.91.25,3.2v8.81c0,1.08.03,1.85.09,2.34.06.48.17.86.33,1.12.16.27.38.49.68.67s.81.37,1.54.57v1.14Z"/>
  <path class="cls-1" d="M156.72,11.1c.78-.13,1.41-.34,1.89-.65.48-.31.86-.71,1.13-1.2s.49-1.11.64-1.85c.16-.74.32-1.82.49-3.23h3.32v5.77h7.55v2.36h-7.55v10.39c0,1.51.06,2.71.19,3.61s.36,1.6.7,2.1.73.87,1.17,1.09c.44.22,1,.33,1.68.33.62,0,1.21-.13,1.75-.39.54-.26,1.08-.63,1.61-1.11l1.05,1.26c-1.11,1.07-2.15,1.85-3.14,2.34-.99.48-2.01.72-3.07.72-2.01,0-3.5-.6-4.49-1.79-.98-1.19-1.47-3.06-1.47-5.6v-12.97h-3.46v-1.19Z"/>
  <path class="cls-1" d="M193.55,15.04h-2.24c-.34-.93-.75-1.67-1.21-2.21-.47-.54-1-.91-1.59-1.13-.59-.22-1.32-.33-2.17-.33-1.25,0-2.24.29-2.98.88-.74.58-1.11,1.38-1.11,2.39,0,.72.15,1.31.44,1.78s.76.9,1.38,1.31c.62.41,1.72.94,3.29,1.61,1.59.69,2.81,1.32,3.68,1.89.87.58,1.54,1.25,2.03,2.01.49.76.73,1.67.73,2.73,0,1.23-.21,2.27-.63,3.11-.42.84-1.01,1.53-1.77,2.06-.76.53-1.67.91-2.72,1.14-1.05.23-2.2.35-3.45.35-1.31,0-2.58-.1-3.81-.29-1.23-.19-2.43-.45-3.6-.76v-4.88h2.29c.42,1.43,1.04,2.47,1.87,3.12.82.65,1.96.97,3.41.97.56,0,1.11-.06,1.65-.18.54-.12,1.02-.31,1.44-.58.42-.27.76-.64,1.01-1.11.25-.47.37-1.05.37-1.75,0-.79-.16-1.44-.47-1.94-.31-.5-.79-.95-1.45-1.37-.65-.41-1.81-.97-3.46-1.67-1.42-.59-2.55-1.17-3.41-1.73-.86-.56-1.53-1.22-2.02-1.98-.49-.76-.74-1.67-.74-2.71,0-1.28.35-2.39,1.04-3.33.69-.94,1.69-1.66,3-2.16,1.31-.5,2.84-.75,4.6-.75,1.03,0,2.02.05,2.98.15s2.16.3,3.61.6v4.77Z"/>
</svg>