<?xml version="1.0" encoding="UTF-8"?>
<svg id="obi" xmlns="http://www.w3.org/2000/svg" width="191" height="53" viewBox="0 0 191 53">
  <defs>
    <style>
      .cls-1 {
        fill: #443c24;
        stroke-width: 0px;
      }
    </style>
  </defs>
  <path class="cls-1" d="M22.1,0v7.14h-2.32c-.24-.77-.48-1.45-.73-2.03-.25-.58-.51-1.07-.78-1.47-.27-.39-.56-.71-.88-.95-.32-.24-.71-.4-1.15-.48-.44-.09-.97-.13-1.58-.13h-7.47v12.38h5.06c.69,0,1.24-.1,1.63-.29s.72-.53.98-1c.26-.47.51-1.21.75-2.22h2.22v9.08h-2.22c-.22-.95-.46-1.66-.73-2.14-.27-.48-.59-.82-.96-1.03s-.92-.31-1.67-.31h-5.06v13.64h7.35c.77,0,1.4-.07,1.88-.2.48-.13.89-.36,1.24-.69s.65-.74.92-1.26c.27-.52.49-1.06.67-1.62.18-.56.43-1.37.74-2.45h2.34l-.45,8.29H0v-1.16c.98-.25,1.63-.53,1.96-.84.33-.31.55-.74.65-1.31.1-.57.15-1.43.15-2.6V5.91c0-1.09-.04-1.88-.12-2.37-.08-.5-.21-.88-.39-1.16-.18-.28-.42-.5-.72-.66-.3-.17-.81-.35-1.54-.56V0h22.1Z"/>
  <path class="cls-1" d="M38.7,9.67v1.16c-.72.17-1.24.34-1.54.5s-.52.36-.67.61c-.15.25-.22.59-.22,1.02s.05.87.15,1.34c.1.46.26,1,.48,1.62l4.11,11.96,4.82-11.46c.31-.76.53-1.38.66-1.87.13-.49.19-.95.19-1.37,0-.66-.18-1.17-.53-1.51-.36-.35-1-.62-1.95-.83v-1.16h8.84v1.16c-.62.13-1.09.32-1.42.58-.33.26-.66.67-.99,1.23-.33.56-.72,1.34-1.18,2.35l-7.96,17.51h-2.79l-6.41-17.65c-.44-1.21-.79-2.04-1.05-2.49-.26-.45-.55-.78-.85-1s-.75-.39-1.34-.52v-1.16h9.64Z"/>
  <path class="cls-1" d="M76.11,28.24c-1.01,1.06-1.93,1.88-2.78,2.48-.84.6-1.77,1.07-2.78,1.41-1.01.34-2.12.51-3.33.51-3.24,0-5.69-.97-7.35-2.92-1.66-1.95-2.48-4.82-2.48-8.61,0-2.35.42-4.42,1.27-6.21.84-1.8,2.04-3.18,3.6-4.16,1.56-.98,3.36-1.47,5.39-1.47,1.59,0,2.95.25,4.06.76,1.12.5,2.01,1.19,2.68,2.07.67.87,1.19,1.98,1.56,3.31.37,1.33.58,3.07.62,5.21h-14.89v.43c0,1.86.21,3.42.63,4.69.42,1.27,1.1,2.26,2.06,2.98.95.72,2.19,1.08,3.72,1.08,1.29,0,2.45-.24,3.49-.72,1.03-.48,2.06-1.26,3.08-2.35l1.44,1.54ZM72.13,18.64c-.09-1.7-.31-3.09-.64-4.17-.33-1.08-.83-1.91-1.49-2.48s-1.53-.86-2.6-.86c-1.62,0-2.92.65-3.89,1.95-.97,1.3-1.54,3.16-1.71,5.56h10.33Z"/>
  <path class="cls-1" d="M105.78,32.26h-9.31v-1.16c.62-.19,1.06-.35,1.32-.5.27-.14.49-.34.67-.59s.32-.64.43-1.17c.1-.53.16-1.33.16-2.4v-6.19c0-1.1-.03-2.1-.1-3-.06-.9-.17-1.64-.32-2.21-.15-.57-.33-1.02-.54-1.35-.21-.32-.46-.6-.75-.83-.29-.23-.63-.41-1.01-.54-.38-.13-.87-.2-1.49-.2s-1.2.12-1.75.37c-.55.25-1.16.67-1.82,1.26-.66.6-1.14,1.19-1.44,1.77s-.45,1.25-.45,2.01v8.81c0,1.36.06,2.3.19,2.82.13.53.37.93.72,1.21.35.28.93.52,1.74.72v1.16h-9.26v-1.16c.62-.19,1.05-.35,1.31-.5.26-.14.48-.34.66-.59.18-.25.32-.64.43-1.16.1-.52.15-1.33.15-2.43v-10.3c0-1.01-.02-1.82-.05-2.43-.03-.61-.14-1.11-.33-1.48s-.48-.65-.86-.83c-.39-.18-.93-.33-1.64-.46v-1.25l5.53-.21h1.44l-.26,3.85.33.1c1.17-1.18,2.11-2.02,2.82-2.53.72-.5,1.44-.89,2.17-1.17.73-.28,1.51-.41,2.33-.41s1.61.1,2.28.29c.67.2,1.26.5,1.77.91.51.41.93.92,1.26,1.52.33.61.58,1.34.75,2.19.16.85.25,1.93.25,3.24v8.91c0,1.09.03,1.88.09,2.36.06.49.17.87.33,1.13.16.27.39.49.69.67s.82.38,1.56.58v1.16Z"/>
  <path class="cls-1" d="M110.78,10.85c.79-.13,1.43-.35,1.92-.66.49-.31.87-.72,1.14-1.22s.49-1.12.65-1.87c.16-.75.32-1.84.5-3.27h3.35v5.84h7.63v2.39h-7.63v10.52c0,1.53.07,2.75.19,3.65s.36,1.61.71,2.13.74.88,1.18,1.1c.44.22,1.01.33,1.7.33.63,0,1.22-.13,1.77-.39.55-.26,1.09-.63,1.63-1.12l1.06,1.28c-1.12,1.09-2.18,1.87-3.18,2.36-1,.49-2.04.73-3.11.73-2.03,0-3.54-.6-4.54-1.81-.99-1.21-1.49-3.09-1.49-5.66v-13.12h-3.5v-1.21Z"/>
</svg>