<?xml version="1.0" encoding="UTF-8"?>
<svg id="obi" xmlns="http://www.w3.org/2000/svg" width="44.76" height="11.35" viewBox="0 0 44.76 11.35">
  <defs>
    <style>
      .cls-1 {
        fill: #443c24;
        stroke-width: 0px;
      }
    </style>
  </defs>
  <path class="cls-1" d="M7.82-.07v2.53h-.82c-.08-.27-.17-.51-.26-.72-.09-.21-.18-.38-.28-.52-.09-.14-.2-.25-.31-.33-.11-.08-.25-.14-.41-.17-.16-.03-.34-.05-.56-.05h-2.64v4.38h1.79c.24,0,.44-.03.58-.1s.25-.19.35-.36.18-.43.26-.79h.79v3.21h-.79c-.08-.33-.16-.59-.26-.76-.09-.17-.21-.29-.34-.36s-.33-.11-.59-.11h-1.79v4.82h2.6c.27,0,.49-.02.66-.07.17-.05.32-.13.44-.24s.23-.26.33-.45c.09-.18.17-.37.24-.57.06-.2.15-.49.26-.87h.83l-.16,2.93H0v-.41c.35-.09.58-.19.69-.3.12-.11.19-.26.23-.46.04-.2.05-.51.05-.92V2.02c0-.38-.01-.66-.04-.84-.03-.18-.07-.31-.14-.41-.06-.1-.15-.18-.25-.23-.11-.06-.29-.12-.54-.2V-.07h7.82Z"/>
  <path class="cls-1" d="M13.69,3.35v.41c-.26.06-.44.12-.54.18s-.18.13-.24.22c-.05.09-.08.21-.08.36s.02.31.05.47.09.36.17.57l1.46,4.23,1.71-4.06c.11-.27.19-.49.23-.66.05-.17.07-.33.07-.49,0-.23-.06-.41-.19-.53s-.35-.22-.69-.29v-.41h3.13v.41c-.22.04-.38.11-.5.2-.12.09-.23.24-.35.43-.12.2-.26.48-.42.83l-2.82,6.2h-.99l-2.27-6.25c-.16-.43-.28-.72-.37-.88-.09-.16-.19-.28-.3-.36s-.27-.14-.47-.18v-.41h3.41Z"/>
  <path class="cls-1" d="M26.93,9.92c-.36.37-.68.67-.98.88-.3.21-.63.38-.98.5-.36.12-.75.18-1.18.18-1.15,0-2.01-.34-2.6-1.03-.59-.69-.88-1.7-.88-3.05,0-.83.15-1.56.45-2.2.3-.64.72-1.13,1.27-1.47.55-.35,1.19-.52,1.91-.52.56,0,1.04.09,1.44.27.4.18.71.42.95.73s.42.7.55,1.17c.13.47.2,1.09.22,1.84h-5.27v.15c0,.66.07,1.21.22,1.66.15.45.39.8.73,1.05.34.25.78.38,1.32.38.46,0,.87-.08,1.23-.25s.73-.45,1.09-.83l.51.54ZM25.52,6.53c-.03-.6-.11-1.09-.23-1.48-.12-.38-.29-.67-.53-.88s-.54-.31-.92-.31c-.57,0-1.03.23-1.37.69-.34.46-.55,1.12-.61,1.97h3.65Z"/>
  <path class="cls-1" d="M37.43,11.35h-3.29v-.41c.22-.07.37-.13.47-.18.1-.05.17-.12.24-.21s.11-.23.15-.41c.04-.19.06-.47.06-.85v-2.19c0-.39-.01-.74-.03-1.06-.02-.32-.06-.58-.11-.78-.05-.2-.12-.36-.19-.48-.07-.11-.16-.21-.27-.29-.1-.08-.22-.15-.36-.19-.13-.05-.31-.07-.53-.07s-.42.04-.62.13c-.19.09-.41.24-.64.45-.23.21-.4.42-.51.63s-.16.44-.16.71v3.12c0,.48.02.81.07,1,.05.19.13.33.26.43.12.1.33.18.61.26v.41h-3.28v-.41c.22-.07.37-.13.46-.18.09-.05.17-.12.23-.21.06-.09.11-.23.15-.41.04-.18.05-.47.05-.86v-3.65c0-.36,0-.64-.02-.86-.01-.22-.05-.39-.12-.52s-.17-.23-.3-.29c-.14-.06-.33-.12-.58-.16v-.44l1.96-.08h.51l-.09,1.36.12.03c.41-.42.75-.72,1-.89.25-.18.51-.32.77-.41.26-.1.53-.15.82-.15s.57.03.81.1c.24.07.45.18.63.32.18.15.33.32.45.54.12.21.21.47.26.77.06.3.09.68.09,1.15v3.15c0,.38.01.66.03.84.02.17.06.31.12.4.06.09.14.17.24.24s.29.13.55.21v.41Z"/>
  <path class="cls-1" d="M39.2,3.77c.28-.04.5-.12.68-.23.17-.11.31-.26.41-.43s.17-.4.23-.66c.06-.26.11-.65.18-1.16h1.19v2.06h2.7v.84h-2.7v3.72c0,.54.02.97.07,1.29s.13.57.25.75.26.31.42.39c.16.08.36.12.6.12.22,0,.43-.05.63-.14.19-.09.39-.22.58-.4l.38.45c-.4.38-.77.66-1.12.84-.35.17-.72.26-1.1.26-.72,0-1.25-.21-1.61-.64-.35-.43-.53-1.09-.53-2v-4.64h-1.24v-.43Z"/>
</svg>