<?xml version="1.0" encoding="UTF-8"?>
<svg id="obi" xmlns="http://www.w3.org/2000/svg" width="191" height="53" viewBox="0 0 191 53">
  <defs>
    <style>
      .cls-1 {
        fill: #443c24;
        stroke-width: 0px;
      }
    </style>
  </defs>
  <path class="cls-1" d="M22.72,32.6l-1.85.5-1.73-1.85c-1.03.63-2.1,1.1-3.22,1.4-1.12.3-2.41.45-3.86.45-4,0-7.01-1.37-9.03-4.11-2.02-2.74-3.03-6.81-3.03-12.21,0-3.36.55-6.32,1.66-8.86,1.11-2.54,2.69-4.5,4.76-5.86C8.49.68,10.92,0,13.72,0c1.47,0,2.88.08,4.24.25,1.36.17,2.87.45,4.53.86v6.51h-2.34c-.43-1.42-.93-2.53-1.52-3.33-.58-.8-1.28-1.37-2.1-1.71-.81-.34-1.84-.51-3.09-.51-1.72,0-3.23.55-4.52,1.66-1.3,1.11-2.3,2.74-3.02,4.89-.72,2.16-1.08,4.76-1.08,7.81s.31,5.74.91,7.94c.61,2.2,1.51,3.85,2.71,4.96,1.2,1.11,2.68,1.67,4.43,1.67,1.86,0,3.25-.41,4.14-1.22.9-.81,1.35-2.07,1.35-3.76v-1.42c0-1.42-.07-2.45-.22-3.08-.15-.63-.41-1.12-.79-1.47-.38-.35-1-.63-1.87-.85v-1.16h9.57v1.16c-.57.19-1,.41-1.28.65-.28.25-.5.55-.65.91-.15.36-.25.81-.31,1.34-.06.53-.08,1.28-.08,2.26v8.22Z"/>
  <path class="cls-1" d="M37.94,14l.33.07c.87-1.06,1.67-1.89,2.42-2.5.74-.61,1.54-1.08,2.4-1.41.86-.33,1.84-.5,2.93-.5.92,0,1.74.05,2.49.14v5.45h-2.68c-.38-.85-.78-1.47-1.21-1.86-.43-.39-1.01-.58-1.75-.58-.57,0-1.13.17-1.7.5-.56.33-1.1.81-1.62,1.45-.52.63-.88,1.22-1.08,1.78-.2.55-.3,1.21-.3,1.97v8.29c0,1.44.09,2.43.26,2.97.17.54.46.94.86,1.2s1.01.45,1.81.59v1.16h-9.55v-1.16c.6-.19,1.03-.36,1.29-.5.26-.14.48-.34.68-.59.19-.25.33-.64.43-1.16.1-.52.14-1.34.14-2.44v-10.33c0-1.01-.02-1.82-.05-2.44-.03-.62-.14-1.11-.33-1.48-.19-.37-.48-.65-.86-.83-.39-.18-.94-.34-1.65-.46v-1.23l5.54-.24h1.45l-.26,4.15Z"/>
  <path class="cls-1" d="M72.96,28.69c-1.01,1.06-1.94,1.89-2.78,2.49-.85.6-1.77,1.07-2.78,1.41-1.01.34-2.13.51-3.34.51-3.25,0-5.71-.98-7.37-2.93-1.66-1.95-2.49-4.83-2.49-8.63,0-2.35.42-4.43,1.27-6.23.84-1.8,2.05-3.19,3.61-4.17,1.56-.98,3.36-1.47,5.4-1.47,1.59,0,2.95.25,4.07.76,1.12.51,2.02,1.2,2.69,2.07.67.88,1.19,1.98,1.56,3.32.37,1.34.58,3.08.63,5.22h-14.92v.43c0,1.86.21,3.43.63,4.7.42,1.27,1.1,2.27,2.06,2.98.95.72,2.2,1.08,3.73,1.08,1.3,0,2.46-.24,3.49-.72s2.07-1.27,3.09-2.36l1.45,1.54ZM68.98,19.07c-.09-1.71-.31-3.1-.64-4.18-.33-1.08-.83-1.91-1.49-2.49-.66-.58-1.53-.86-2.61-.86-1.63,0-2.92.65-3.9,1.95-.97,1.3-1.55,3.16-1.72,5.58h10.35Z"/>
  <path class="cls-1" d="M98.33,28.69c-1.01,1.06-1.94,1.89-2.78,2.49-.85.6-1.77,1.07-2.78,1.41-1.01.34-2.13.51-3.34.51-3.25,0-5.71-.98-7.37-2.93-1.66-1.95-2.49-4.83-2.49-8.63,0-2.35.42-4.43,1.27-6.23.84-1.8,2.05-3.19,3.61-4.17,1.56-.98,3.36-1.47,5.4-1.47,1.59,0,2.95.25,4.07.76,1.12.51,2.02,1.2,2.69,2.07.67.88,1.19,1.98,1.56,3.32.37,1.34.58,3.08.63,5.22h-14.92v.43c0,1.86.21,3.43.63,4.7.42,1.27,1.1,2.27,2.06,2.98.95.72,2.2,1.08,3.73,1.08,1.3,0,2.46-.24,3.49-.72s2.07-1.27,3.09-2.36l1.45,1.54ZM94.35,19.07c-.09-1.71-.31-3.1-.64-4.18-.33-1.08-.83-1.91-1.49-2.49-.66-.58-1.53-.86-2.61-.86-1.63,0-2.92.65-3.9,1.95-.97,1.3-1.55,3.16-1.72,5.58h10.35Z"/>
  <path class="cls-1" d="M104.07,11.25c.79-.13,1.43-.35,1.92-.66.49-.32.87-.72,1.15-1.22.28-.5.49-1.12.65-1.87.16-.75.32-1.84.5-3.28h3.36v5.85h7.65v2.39h-7.65v10.54c0,1.53.07,2.75.19,3.66s.36,1.62.71,2.13.74.88,1.19,1.1c.44.22,1.01.33,1.7.33.63,0,1.22-.13,1.78-.39.55-.26,1.1-.63,1.63-1.12l1.07,1.28c-1.12,1.09-2.18,1.88-3.19,2.37-1,.49-2.04.73-3.12.73-2.04,0-3.55-.6-4.55-1.81-.99-1.21-1.49-3.1-1.49-5.67v-13.15h-3.51v-1.21Z"/>
  <path class="cls-1" d="M124.34,31.56c.62-.19,1.05-.36,1.32-.5.26-.14.48-.34.66-.59.18-.25.32-.64.43-1.16.1-.52.15-1.34.15-2.44v-10.33c0-1.01-.02-1.82-.05-2.44-.03-.62-.14-1.11-.33-1.48s-.48-.65-.86-.83c-.39-.18-.94-.34-1.65-.46v-1.26l5.52-.21h1.45v16.94c0,1.36.06,2.3.19,2.83.13.53.37.93.72,1.21.35.28.94.52,1.74.72v1.16h-9.29v-1.16ZM131.11.78v4.6h-4.36V.78h4.36Z"/>
  <path class="cls-1" d="M163.32,32.72h-9.33v-1.16c.62-.19,1.06-.36,1.33-.5.27-.14.49-.34.68-.59s.32-.64.43-1.17c.1-.53.16-1.33.16-2.4v-6.21c0-1.1-.03-2.11-.1-3.01-.06-.9-.17-1.64-.32-2.22-.15-.58-.33-1.03-.54-1.35-.21-.32-.47-.6-.76-.83-.29-.23-.63-.41-1.01-.54-.38-.13-.88-.2-1.49-.2s-1.2.12-1.75.37c-.55.25-1.16.67-1.82,1.27-.66.6-1.15,1.19-1.45,1.78s-.45,1.26-.45,2.01v8.84c0,1.36.06,2.3.19,2.83.13.53.37.93.72,1.21.35.28.94.52,1.74.72v1.16h-9.29v-1.16c.62-.19,1.05-.36,1.32-.5.26-.14.48-.34.66-.59.18-.25.32-.64.43-1.16.1-.52.15-1.34.15-2.44v-10.33c0-1.01-.02-1.82-.05-2.44-.03-.62-.14-1.11-.33-1.48s-.48-.65-.86-.83c-.39-.18-.94-.34-1.65-.46v-1.26l5.54-.21h1.45l-.26,3.86.33.1c1.17-1.19,2.11-2.03,2.83-2.54.72-.51,1.44-.9,2.18-1.17.73-.28,1.51-.41,2.33-.41s1.61.1,2.29.3c.67.2,1.26.5,1.78.91.51.41.94.92,1.27,1.53.33.61.58,1.34.75,2.19.17.85.25,1.93.25,3.25v8.93c0,1.09.03,1.88.09,2.37.06.49.17.87.33,1.14.16.27.39.49.69.68s.82.38,1.56.58v1.16Z"/>
  <path class="cls-1" d="M191,12.46l-4.38-.17-.21.26c.49.49.88,1.16,1.16,2,.28.85.43,1.76.43,2.74,0,2.58-.79,4.56-2.38,5.96-1.59,1.4-3.84,2.1-6.76,2.1-1.31,0-2.44-.17-3.39-.5-1.2.92-1.8,1.82-1.8,2.7,0,.58.11,1.03.34,1.33.23.3.61.51,1.14.64.53.13,1.33.19,2.41.19h5.69c1.67,0,3.04.26,4.1.78,1.06.52,1.81,1.22,2.26,2.1.45.88.68,1.9.68,3.07,0,1.48-.43,2.81-1.28,3.97-.85,1.16-2.08,2.07-3.7,2.71-1.61.65-3.49.97-5.64.97-1.59,0-3.05-.09-4.37-.28-1.32-.19-2.45-.51-3.39-.96-.94-.45-1.67-1.04-2.18-1.78-.51-.73-.77-1.65-.77-2.76,0-1,.33-1.9.99-2.71s1.6-1.53,2.82-2.14c-.74-.3-1.33-.74-1.75-1.33s-.64-1.27-.64-2.06c0-.9.25-1.73.76-2.48.51-.75,1.4-1.61,2.68-2.57-1.14-.66-2-1.56-2.59-2.7-.59-1.14-.89-2.43-.89-3.89,0-1.36.23-2.54.68-3.54.45-1,1.07-1.83,1.87-2.49.8-.65,1.74-1.14,2.83-1.47,1.09-.32,2.27-.49,3.53-.49,1.14,0,2.27.14,3.39.4h8.39v2.39ZM175.15,33.1c-.81.6-1.41,1.24-1.81,1.91-.4.67-.6,1.43-.6,2.29,0,1.42.56,2.47,1.7,3.14,1.13.67,2.85,1.01,5.18,1.01,1.42,0,2.64-.19,3.66-.57,1.02-.38,1.8-.92,2.33-1.63.54-.71.81-1.54.81-2.49,0-.44-.06-.87-.17-1.29-.11-.42-.32-.79-.63-1.12-.31-.33-.75-.6-1.32-.79-.57-.2-1.31-.3-2.23-.3h-3.53c-1.28,0-2.41-.05-3.39-.14ZM174.56,17.27c0,1.97.4,3.5,1.21,4.57.81,1.07,1.97,1.61,3.48,1.61.81,0,1.49-.15,2.06-.46.57-.31,1.03-.73,1.39-1.27.35-.54.61-1.16.78-1.86.17-.7.25-1.44.25-2.22,0-1.39-.2-2.55-.59-3.48-.4-.93-.93-1.61-1.61-2.05-.68-.43-1.46-.65-2.34-.65-1.5,0-2.65.5-3.44,1.49s-1.18,2.43-1.18,4.31Z"/>
</svg>