<?xml version="1.0" encoding="UTF-8"?>
<svg id="obi" xmlns="http://www.w3.org/2000/svg" width="65.04" height="14.75" viewBox="0 0 65.04 14.75">
  <defs>
    <style>
      .cls-1 {
        fill: #443c24;
        stroke-width: 0px;
      }
    </style>
  </defs>
  <path class="cls-1" d="M7.74,11.1l-.63.17-.59-.63c-.35.22-.72.37-1.1.48-.38.1-.82.15-1.31.15-1.36,0-2.39-.47-3.07-1.4S0,7.55,0,5.71c0-1.15.19-2.15.56-3.02.38-.87.92-1.53,1.62-2,.7-.47,1.53-.7,2.48-.7.5,0,.98.03,1.44.08.46.06.98.15,1.54.29v2.22h-.8c-.15-.48-.32-.86-.52-1.13s-.44-.47-.71-.58c-.28-.12-.63-.17-1.05-.17-.59,0-1.1.19-1.54.56-.44.38-.78.93-1.03,1.67-.24.73-.37,1.62-.37,2.66s.1,1.95.31,2.7.52,1.31.92,1.69c.41.38.91.57,1.51.57.63,0,1.11-.14,1.41-.42.31-.28.46-.7.46-1.28v-.48c0-.48-.03-.83-.08-1.05-.05-.22-.14-.38-.27-.5-.13-.12-.34-.21-.64-.29v-.4h3.26v.4c-.19.06-.34.14-.44.22-.1.08-.17.19-.22.31-.05.12-.09.28-.11.46-.02.18-.03.44-.03.77v2.8Z"/>
  <path class="cls-1" d="M12.92,4.77l.11.02c.3-.36.57-.64.82-.85.25-.21.52-.37.82-.48s.63-.17,1-.17c.31,0,.59.02.85.05v1.86h-.91c-.13-.29-.27-.5-.41-.63-.15-.13-.34-.2-.6-.2-.19,0-.39.06-.58.17s-.38.28-.55.49c-.18.21-.3.42-.37.6s-.1.41-.1.67v2.82c0,.49.03.83.09,1.01.06.19.16.32.29.41s.34.15.62.2v.4h-3.25v-.4c.2-.06.35-.12.44-.17.09-.05.16-.12.23-.2.06-.09.11-.22.15-.4.03-.18.05-.45.05-.83v-3.52c0-.34,0-.62-.02-.83-.01-.21-.05-.38-.11-.5s-.16-.22-.29-.28c-.13-.06-.32-.11-.56-.16v-.42l1.89-.08h.49l-.09,1.41Z"/>
  <path class="cls-1" d="M24.85,9.77c-.34.36-.66.64-.95.85-.29.2-.6.36-.95.48-.34.12-.72.17-1.14.17-1.11,0-1.94-.33-2.51-1-.57-.66-.85-1.64-.85-2.94,0-.8.14-1.51.43-2.12.29-.61.7-1.09,1.23-1.42.53-.33,1.15-.5,1.84-.5.54,0,1.01.09,1.39.26.38.17.69.41.92.71s.41.68.53,1.13c.13.45.2,1.05.21,1.78h-5.08v.15c0,.63.07,1.17.21,1.6.14.43.38.77.7,1.02.33.24.75.37,1.27.37.44,0,.84-.08,1.19-.25s.7-.43,1.05-.8l.49.52ZM23.49,6.49c-.03-.58-.1-1.06-.22-1.42-.11-.37-.28-.65-.51-.85s-.52-.29-.89-.29c-.55,0-1,.22-1.33.67-.33.44-.53,1.08-.59,1.9h3.53Z"/>
  <path class="cls-1" d="M33.48,9.77c-.34.36-.66.64-.95.85-.29.2-.6.36-.95.48-.34.12-.72.17-1.14.17-1.11,0-1.94-.33-2.51-1-.57-.66-.85-1.64-.85-2.94,0-.8.14-1.51.43-2.12.29-.61.7-1.09,1.23-1.42.53-.33,1.15-.5,1.84-.5.54,0,1.01.09,1.39.26.38.17.69.41.92.71s.41.68.53,1.13c.13.45.2,1.05.21,1.78h-5.08v.15c0,.63.07,1.17.21,1.6.14.43.38.77.7,1.02.33.24.75.37,1.27.37.44,0,.84-.08,1.19-.25s.7-.43,1.05-.8l.49.52ZM32.13,6.49c-.03-.58-.1-1.06-.22-1.42-.11-.37-.28-.65-.51-.85s-.52-.29-.89-.29c-.55,0-1,.22-1.33.67-.33.44-.53,1.08-.59,1.9h3.53Z"/>
  <path class="cls-1" d="M35.44,3.83c.27-.04.49-.12.65-.23.17-.11.3-.25.39-.42s.17-.38.22-.64c.05-.26.11-.63.17-1.12h1.14v1.99h2.61v.82h-2.61v3.59c0,.52.02.94.07,1.25s.12.55.24.73.25.3.4.38c.15.08.34.11.58.11.22,0,.42-.04.61-.13.19-.09.37-.22.56-.38l.36.44c-.38.37-.74.64-1.09.81-.34.17-.7.25-1.06.25-.69,0-1.21-.21-1.55-.62-.34-.41-.51-1.06-.51-1.93v-4.48h-1.19v-.41Z"/>
  <path class="cls-1" d="M42.34,10.75c.21-.06.36-.12.45-.17.09-.05.16-.12.23-.2.06-.09.11-.22.15-.4.03-.18.05-.45.05-.83v-3.52c0-.34,0-.62-.02-.83-.01-.21-.05-.38-.11-.5s-.16-.22-.29-.28c-.13-.06-.32-.11-.56-.16v-.43l1.88-.07h.49v5.77c0,.46.02.78.06.96.04.18.13.32.25.41.12.09.32.18.59.25v.4h-3.16v-.4ZM44.65.27v1.57h-1.48V.27h1.48Z"/>
  <path class="cls-1" d="M55.61,11.14h-3.18v-.4c.21-.06.36-.12.45-.17.09-.05.17-.12.23-.2s.11-.22.15-.4c.03-.18.05-.45.05-.82v-2.11c0-.38-.01-.72-.03-1.02-.02-.31-.06-.56-.11-.75-.05-.2-.11-.35-.19-.46-.07-.11-.16-.2-.26-.28-.1-.08-.21-.14-.34-.19-.13-.05-.3-.07-.51-.07s-.41.04-.6.12c-.19.08-.39.23-.62.43-.23.2-.39.41-.49.6s-.15.43-.15.69v3.01c0,.46.02.78.06.96.04.18.13.32.25.41.12.09.32.18.59.25v.4h-3.16v-.4c.21-.06.36-.12.45-.17.09-.05.16-.12.23-.2.06-.09.11-.22.15-.4.03-.18.05-.45.05-.83v-3.52c0-.34,0-.62-.02-.83-.01-.21-.05-.38-.11-.5s-.16-.22-.29-.28c-.13-.06-.32-.11-.56-.16v-.43l1.89-.07h.49l-.09,1.31.11.03c.4-.4.72-.69.96-.86.24-.17.49-.31.74-.4.25-.09.51-.14.79-.14s.55.03.78.1c.23.07.43.17.6.31.17.14.32.31.43.52.11.21.2.46.25.75.06.29.08.66.08,1.11v3.04c0,.37.01.64.03.81.02.17.06.3.11.39.05.09.13.17.23.23s.28.13.53.2v.4Z"/>
  <path class="cls-1" d="M65.04,4.24l-1.49-.06-.07.09c.17.17.3.39.4.68.1.29.15.6.15.93,0,.88-.27,1.55-.81,2.03-.54.48-1.31.71-2.3.71-.45,0-.83-.06-1.15-.17-.41.31-.61.62-.61.92,0,.2.04.35.12.45.08.1.21.17.39.22.18.04.45.06.82.06h1.94c.57,0,1.03.09,1.4.27.36.18.62.42.77.71.15.3.23.65.23,1.04,0,.51-.15.96-.44,1.35s-.71.7-1.26.92-1.19.33-1.92.33c-.54,0-1.04-.03-1.49-.1-.45-.06-.83-.17-1.15-.33-.32-.15-.57-.35-.74-.6-.18-.25-.26-.56-.26-.94,0-.34.11-.65.34-.92s.55-.52.96-.73c-.25-.1-.45-.25-.6-.45s-.22-.43-.22-.7c0-.31.09-.59.26-.84.17-.26.48-.55.91-.88-.39-.23-.68-.53-.88-.92-.2-.39-.3-.83-.3-1.32,0-.46.08-.86.23-1.21.15-.34.37-.62.64-.85.27-.22.59-.39.96-.5s.77-.17,1.2-.17c.39,0,.77.05,1.15.14h2.86v.82ZM59.64,11.27c-.27.2-.48.42-.62.65-.14.23-.21.49-.21.78,0,.48.19.84.58,1.07.38.23.97.34,1.76.34.48,0,.9-.06,1.25-.19.35-.13.61-.31.79-.56.18-.24.27-.52.27-.85,0-.15-.02-.3-.06-.44-.04-.14-.11-.27-.21-.38s-.25-.2-.45-.27c-.19-.07-.45-.1-.76-.1h-1.2c-.44,0-.82-.02-1.15-.05ZM59.44,5.88c0,.67.14,1.19.41,1.56.27.37.67.55,1.19.55.27,0,.51-.05.7-.16.19-.1.35-.25.47-.43.12-.18.21-.39.27-.63.06-.24.08-.49.08-.75,0-.47-.07-.87-.2-1.19-.13-.32-.32-.55-.55-.7s-.5-.22-.8-.22c-.51,0-.9.17-1.17.51s-.4.83-.4,1.47Z"/>
</svg>