<?xml version="1.0" encoding="UTF-8"?>
<svg id="obi" xmlns="http://www.w3.org/2000/svg" width="191" height="53" viewBox="0 0 191 53">
  <defs>
    <style>
      .cls-1 {
        fill: #443c24;
        stroke-width: 0px;
      }
    </style>
  </defs>
  <path class="cls-1" d="M12.06,32.64c-1.8,0-3.45-.3-4.93-.89s-2.75-1.52-3.81-2.77c-1.06-1.26-1.88-2.86-2.46-4.82-.58-1.95-.87-4.29-.87-7.01,0-3.35.51-6.23,1.53-8.64,1.02-2.4,2.48-4.24,4.39-5.49s4.11-1.88,6.62-1.88c2.68,0,4.93.59,6.76,1.77,1.83,1.18,3.2,2.92,4.13,5.21.92,2.29,1.39,5.09,1.39,8.38,0,3.52-.53,6.49-1.58,8.91-1.05,2.42-2.54,4.23-4.45,5.44-1.92,1.2-4.15,1.8-6.71,1.8ZM4.65,16.51c0,4.62.67,8.13,2.02,10.53,1.35,2.41,3.31,3.61,5.9,3.61,1.64,0,3.03-.52,4.17-1.57,1.14-1.04,2-2.57,2.57-4.59.57-2.01.86-4.37.86-7.06,0-3.28-.33-6-1-8.15-.67-2.16-1.58-3.72-2.74-4.7s-2.5-1.47-4.04-1.47c-1.35,0-2.52.32-3.48.95-.97.63-1.78,1.53-2.41,2.7s-1.1,2.57-1.4,4.23c-.29,1.65-.44,3.5-.44,5.52Z"/>
  <path class="cls-1" d="M31.45,10.71h6.43v11.48c0,1.76.07,3.1.2,4.01.14.92.34,1.61.61,2.07.27.47.65.86,1.15,1.17s1.18.47,2.05.47c.57,0,1.12-.11,1.65-.34.53-.22,1.11-.62,1.76-1.18s1.11-1.12,1.39-1.68c.28-.56.42-1.2.42-1.94v-8.46c0-.86-.02-1.5-.07-1.94-.05-.44-.12-.78-.23-1.05-.11-.26-.23-.48-.37-.64-.14-.17-.35-.32-.61-.45-.26-.14-.69-.28-1.27-.43v-1.11h6.43v15.4c0,1.16.02,1.99.07,2.5.04.51.14.92.29,1.22.15.3.38.55.7.73.31.19.88.36,1.69.53v1.17l-5.16.23h-1.38l.14-3.7-.34-.09c-1.25,1.35-2.44,2.35-3.57,2.98-1.14.63-2.27.95-3.42.95-1.37,0-2.5-.27-3.38-.81s-1.55-1.35-1.99-2.42c-.43-1.07-.65-2.59-.65-4.54v-8.52c0-1.26-.05-2.13-.15-2.61s-.29-.85-.56-1.13c-.28-.28-.88-.54-1.82-.78v-1.11Z"/>
  <path class="cls-1" d="M58.45,11.84c.75-.12,1.36-.33,1.83-.63.47-.3.83-.69,1.09-1.16s.47-1.07.62-1.78c.15-.71.31-1.75.47-3.12h3.2v5.57h7.29v2.28h-7.29v10.04c0,1.46.06,2.62.18,3.49.12.86.35,1.54.68,2.03s.71.84,1.13,1.05c.42.21.96.32,1.62.32.6,0,1.17-.12,1.69-.37.53-.25,1.04-.6,1.56-1.07l1.02,1.22c-1.07,1.04-2.08,1.79-3.03,2.26-.96.47-1.94.7-2.97.7-1.94,0-3.38-.58-4.33-1.73-.95-1.15-1.42-2.95-1.42-5.4v-12.52h-3.34v-1.15Z"/>
  <path class="cls-1" d="M84.92,26.64c0,1.29.06,2.19.18,2.7.12.5.35.89.69,1.15.34.26.89.49,1.66.69v1.1h-8.95v-1.1c.75-.2,1.27-.4,1.57-.61.29-.21.5-.46.63-.75.13-.29.22-.69.27-1.2.05-.5.08-1.16.08-1.97V7.76c0-1.44-.01-2.45-.04-3.02-.02-.57-.08-1.06-.18-1.46-.1-.4-.23-.71-.41-.94-.17-.23-.41-.41-.7-.54-.29-.14-.82-.27-1.59-.41V.23l5.44-.23h1.35v26.64Z"/>
  <path class="cls-1" d="M93.75,31.17c.59-.18,1-.34,1.25-.47.25-.14.46-.32.63-.56.17-.24.31-.61.41-1.1.1-.5.15-1.27.15-2.32v-9.83c0-.96-.02-1.74-.04-2.32-.03-.59-.14-1.06-.32-1.41s-.45-.62-.82-.79c-.37-.17-.89-.32-1.57-.44v-1.2l5.25-.2h1.38v16.13c0,1.29.06,2.19.18,2.7.12.5.35.89.69,1.15.34.26.89.49,1.66.69v1.1h-8.84v-1.1ZM100.2,1.87v4.38h-4.15V1.87h4.15Z"/>
  <path class="cls-1" d="M130.86,32.27h-8.89v-1.1c.59-.18,1.01-.34,1.26-.47.26-.14.47-.32.64-.56.17-.24.31-.61.41-1.12.1-.5.15-1.27.15-2.29v-5.91c0-1.05-.03-2.01-.09-2.86-.06-.86-.16-1.56-.31-2.11-.14-.55-.31-.98-.52-1.29-.2-.31-.44-.57-.72-.79-.28-.22-.6-.39-.96-.52-.36-.13-.83-.19-1.42-.19s-1.14.12-1.67.35c-.53.23-1.1.64-1.74,1.21-.63.57-1.09,1.13-1.38,1.69s-.43,1.2-.43,1.92v8.41c0,1.29.06,2.19.18,2.7.12.5.35.89.69,1.15.34.26.89.49,1.66.69v1.1h-8.84v-1.1c.59-.18,1-.34,1.25-.47.25-.14.46-.32.63-.56.17-.24.31-.61.41-1.1.1-.5.15-1.27.15-2.32v-9.83c0-.96-.02-1.74-.04-2.32-.03-.59-.14-1.06-.32-1.41s-.45-.62-.82-.79c-.37-.17-.89-.32-1.57-.44v-1.2l5.28-.2h1.38l-.25,3.68.32.09c1.11-1.13,2.01-1.93,2.7-2.41.68-.48,1.37-.85,2.07-1.12.7-.26,1.44-.39,2.22-.39s1.54.09,2.18.28c.64.19,1.2.48,1.69.87.49.39.89.88,1.21,1.45.32.58.55,1.27.71,2.09.16.81.24,1.84.24,3.09v8.5c0,1.04.03,1.79.09,2.26.06.47.17.83.32,1.08.15.26.37.47.65.64s.78.36,1.49.55v1.1Z"/>
  <path class="cls-1" d="M155,28.44c-.96,1.01-1.85,1.8-2.65,2.37-.8.57-1.69,1.02-2.65,1.34-.96.32-2.02.49-3.18.49-3.1,0-5.44-.93-7.01-2.79-1.58-1.86-2.37-4.6-2.37-8.22,0-2.24.4-4.22,1.21-5.93.8-1.71,1.95-3.04,3.44-3.97,1.49-.93,3.2-1.4,5.14-1.4,1.52,0,2.81.24,3.88.72,1.07.48,1.92,1.14,2.56,1.97s1.13,1.89,1.49,3.16c.35,1.27.55,2.93.6,4.97h-14.21v.41c0,1.77.2,3.27.6,4.48.4,1.21,1.05,2.16,1.96,2.84.91.68,2.09,1.03,3.55,1.03,1.23,0,2.34-.23,3.33-.69.98-.46,1.97-1.21,2.94-2.24l1.38,1.47ZM151.21,19.28c-.09-1.62-.29-2.95-.61-3.98-.32-1.03-.79-1.82-1.42-2.37s-1.46-.82-2.48-.82c-1.55,0-2.78.62-3.71,1.86-.93,1.24-1.47,3.01-1.64,5.31h9.85Z"/>
</svg>