<?xml version="1.0" encoding="UTF-8"?>
<svg id="obi" xmlns="http://www.w3.org/2000/svg" width="55" height="11.55" viewBox="0 0 55 11.55">
  <defs>
    <style>
      .cls-1 {
        fill: #443c24;
        stroke-width: 0px;
      }
    </style>
  </defs>
  <path class="cls-1" d="M4.27,11.55c-.64,0-1.22-.11-1.74-.32s-.97-.54-1.35-.98c-.38-.44-.67-1.01-.87-1.7-.21-.69-.31-1.52-.31-2.48,0-1.19.18-2.2.54-3.06.36-.85.88-1.5,1.55-1.94s1.45-.67,2.34-.67c.95,0,1.74.21,2.39.63.65.42,1.13,1.03,1.46,1.84.33.81.49,1.8.49,2.96,0,1.24-.19,2.3-.56,3.15-.37.86-.9,1.5-1.58,1.92-.68.43-1.47.64-2.37.64ZM1.64,5.84c0,1.63.24,2.88.71,3.73.48.85,1.17,1.28,2.09,1.28.58,0,1.07-.18,1.48-.55.4-.37.71-.91.91-1.62.2-.71.3-1.55.3-2.5,0-1.16-.12-2.12-.36-2.88-.24-.76-.56-1.32-.97-1.66s-.89-.52-1.43-.52c-.48,0-.89.11-1.23.34-.34.22-.63.54-.85.95s-.39.91-.49,1.5c-.1.59-.16,1.24-.16,1.95Z"/>
  <path class="cls-1" d="M11.13,3.79h2.27v4.06c0,.62.02,1.1.07,1.42s.12.57.22.73c.1.17.23.3.41.41s.42.17.73.17c.2,0,.4-.04.58-.12.19-.08.39-.22.62-.42s.39-.4.49-.59c.1-.2.15-.43.15-.69v-2.99c0-.3,0-.53-.02-.69-.02-.15-.04-.28-.08-.37-.04-.09-.08-.17-.13-.23-.05-.06-.12-.11-.22-.16-.09-.05-.24-.1-.45-.15v-.39h2.27v5.45c0,.41,0,.71.02.89.02.18.05.32.1.43.05.11.14.19.25.26.11.07.31.13.6.19v.41l-1.83.08h-.49l.05-1.31-.12-.03c-.44.48-.86.83-1.26,1.05-.4.22-.8.34-1.21.34-.48,0-.88-.1-1.2-.29s-.55-.48-.7-.86c-.15-.38-.23-.92-.23-1.61v-3.02c0-.45-.02-.75-.05-.92s-.1-.3-.2-.4c-.1-.1-.31-.19-.64-.28v-.39Z"/>
  <path class="cls-1" d="M20.68,4.19c.27-.04.48-.12.65-.22.16-.11.29-.24.39-.41s.17-.38.22-.63c.05-.25.11-.62.17-1.11h1.13v1.97h2.58v.81h-2.58v3.55c0,.52.02.93.06,1.23s.12.55.24.72.25.3.4.37c.15.07.34.11.57.11.21,0,.41-.04.6-.13.19-.09.37-.21.55-.38l.36.43c-.38.37-.74.63-1.07.8-.34.16-.69.25-1.05.25-.69,0-1.2-.2-1.53-.61-.33-.41-.5-1.04-.5-1.91v-4.43h-1.18v-.41Z"/>
  <path class="cls-1" d="M30.05,9.42c0,.46.02.78.06.95.04.18.12.31.24.41.12.09.32.17.59.24v.39h-3.17v-.39c.27-.07.45-.14.55-.22.1-.07.18-.16.22-.27.04-.1.08-.24.1-.42.02-.18.03-.41.03-.7V2.75c0-.51,0-.87-.01-1.07,0-.2-.03-.37-.06-.51-.03-.14-.08-.25-.14-.33-.06-.08-.14-.14-.25-.19-.1-.05-.29-.1-.56-.14V.08l1.92-.08h.48v9.42Z"/>
  <path class="cls-1" d="M33.17,11.03c.21-.06.36-.12.44-.17.09-.05.16-.11.22-.2.06-.09.11-.22.14-.39.03-.18.05-.45.05-.82v-3.48c0-.34,0-.61-.02-.82-.01-.21-.05-.37-.11-.5s-.16-.22-.29-.28c-.13-.06-.32-.11-.55-.16v-.42l1.86-.07h.49v5.71c0,.46.02.78.06.95.04.18.12.31.24.41.12.09.32.17.59.24v.39h-3.13v-.39ZM35.45.66v1.55h-1.47V.66h1.47Z"/>
  <path class="cls-1" d="M46.3,11.42h-3.14v-.39c.21-.06.36-.12.45-.17.09-.05.17-.11.23-.2.06-.09.11-.22.14-.4.03-.18.05-.45.05-.81v-2.09c0-.37-.01-.71-.03-1.01-.02-.3-.06-.55-.11-.75-.05-.19-.11-.35-.18-.45-.07-.11-.16-.2-.25-.28-.1-.08-.21-.14-.34-.18-.13-.05-.29-.07-.5-.07s-.4.04-.59.12c-.19.08-.39.23-.61.43-.22.2-.39.4-.49.6s-.15.42-.15.68v2.98c0,.46.02.78.06.95.04.18.12.31.24.41.12.09.32.17.59.24v.39h-3.13v-.39c.21-.06.36-.12.44-.17.09-.05.16-.11.22-.2.06-.09.11-.22.14-.39.03-.18.05-.45.05-.82v-3.48c0-.34,0-.61-.02-.82-.01-.21-.05-.37-.11-.5s-.16-.22-.29-.28c-.13-.06-.32-.11-.55-.16v-.42l1.87-.07h.49l-.09,1.3.11.03c.39-.4.71-.68.95-.85.24-.17.49-.3.73-.39.25-.09.51-.14.79-.14s.54.03.77.1c.23.07.43.17.6.31.17.14.32.31.43.51.11.21.2.45.25.74.06.29.08.65.08,1.09v3.01c0,.37.01.63.03.8.02.16.06.29.11.38.05.09.13.17.23.23s.28.13.53.2v.39Z"/>
  <path class="cls-1" d="M54.84,10.06c-.34.36-.65.64-.94.84-.28.2-.6.36-.94.47-.34.11-.72.17-1.13.17-1.1,0-1.92-.33-2.48-.99-.56-.66-.84-1.63-.84-2.91,0-.79.14-1.49.43-2.1.28-.61.69-1.07,1.22-1.4.53-.33,1.13-.49,1.82-.49.54,0,1,.09,1.37.26.38.17.68.4.91.7s.4.67.53,1.12c.12.45.2,1.04.21,1.76h-5.03v.14c0,.63.07,1.16.21,1.58.14.43.37.76.69,1.01.32.24.74.36,1.26.36.44,0,.83-.08,1.18-.24s.7-.43,1.04-.79l.49.52ZM53.5,6.82c-.03-.57-.1-1.04-.21-1.41-.11-.36-.28-.64-.5-.84s-.52-.29-.88-.29c-.55,0-.99.22-1.31.66-.33.44-.52,1.07-.58,1.88h3.49Z"/>
</svg>