<?xml version="1.0" encoding="utf-8"?>
<!-- Generator: Adobe Illustrator 25.3.1, SVG Export Plug-In . SVG Version: 6.00 Build 0)  -->
<svg version="1.1" id="レイヤー_1" xmlns="http://www.w3.org/2000/svg" xmlns:xlink="http://www.w3.org/1999/xlink" x="0px"
	 y="0px" viewBox="0 0 1009.1 504.5" style="enable-background:new 0 0 1009.1 504.5;" xml:space="preserve">
<style type="text/css">
	.st0{display:none;fill:#231815;}
	.st1{fill:#FFFFFF;}
</style>
<rect x="26" y="18.8" class="st0" width="957" height="467"/>
<g>
	<g>
		<g>
			<path class="st1" d="M55.3,234.5l-7.1,0.1c-0.4,0-0.6-0.2-0.6-0.6v-3.4c0-0.4,0.2-0.6,0.6-0.6l7.1,0.1h15.4v-2.7h-9.5l-7.8,0.1
				c-0.4,0-0.6-0.2-0.6-0.6v-3.2c0-0.3,0-0.5,0.1-0.5c0.1-0.1,0.2-0.1,0.5-0.1l7.8,0.1h9.5v-2.5h-7.4l-8,0.1c-0.3,0-0.5,0-0.6-0.1
				c-0.1-0.1-0.1-0.3-0.1-0.6l0.1-3v-3.1l-0.1-3c0-0.3,0-0.5,0.1-0.6c0.1-0.1,0.3-0.1,0.6-0.1l8,0.1h7.4V208H56.2l-7.3,0.1
				c-0.3,0-0.5,0-0.5-0.1c-0.1-0.1-0.1-0.2-0.1-0.5v-3.6c0-0.3,0-0.5,0.1-0.5c0.1-0.1,0.2-0.1,0.5-0.1l7.3,0.1h14.5
				c0-2-0.1-3.8-0.4-5.3c2.6,0.1,4.6,0.2,6,0.3c0.6,0.1,0.9,0.3,0.9,0.6c0,0.3-0.1,0.6-0.3,1.1c-0.2,0.6-0.4,1.7-0.4,3.2H91l7.3-0.1
				c0.3,0,0.5,0,0.6,0.1c0.1,0.1,0.1,0.2,0.1,0.5v3.6c0,0.3,0,0.5-0.1,0.5c-0.1,0.1-0.3,0.1-0.5,0.1L91,208H76.5v2.5h7.6l8-0.1
				c0.3,0,0.5,0,0.6,0.1c0.1,0.1,0.1,0.3,0.1,0.5l-0.1,3v3.1l0.1,3c0,0.3,0,0.5-0.1,0.6c-0.1,0.1-0.3,0.1-0.5,0.1l-8-0.1h-7.6v2.5
				h9.3l7.9-0.1c0.3,0,0.5,0,0.6,0.1s0.1,0.2,0.1,0.5l-0.1,5v1.3l5-0.1c0.4,0,0.6,0.2,0.6,0.6v3.4c0,0.4-0.2,0.6-0.6,0.6l-1.5,0
				c-1.1,0-2.2-0.1-3.5-0.1v2.9l0.1,5.3c0,0.3,0,0.5-0.1,0.5s-0.2,0.1-0.5,0.1h-4.4c-0.3,0-0.5,0-0.6-0.1c-0.1-0.1-0.1-0.2-0.1-0.5
				v-1.3H76.5c0,0.7,0.1,1.6,0.1,2.9c0,2.6-0.7,4.3-2.1,5.1c-1.4,0.8-4.1,1.2-8.1,1.3c-0.9,0-1.4-0.1-1.7-0.3
				c-0.1-0.1-0.4-0.6-0.6-1.4c-0.6-1.6-1.3-3.1-2.2-4.4c1.5,0.2,3,0.3,4.4,0.3c0.4,0,0.9,0,1.4,0c1.3,0,2.1-0.2,2.5-0.5
				c0.3-0.3,0.5-0.8,0.5-1.6v-1.3h-9.4l-7.8,0.1c-0.3,0-0.5,0-0.6-0.1c-0.1-0.1-0.1-0.3-0.1-0.6v-3.1c0-0.3,0-0.5,0.1-0.6
				c0.1-0.1,0.2-0.1,0.5-0.1l7.8,0.1h9.4v-2.7H55.3z M60.3,217h10.4v-2.9H60.3V217z M87.1,217v-2.9H76.5v2.9H87.1z M88.6,227.4H76.5
				v2.7h12.2V227.4z M76.5,237.2h12.2v-2.7H76.5V237.2z"/>
			<path class="st1" d="M113.4,236.8l-7.3,0.1c-0.3,0-0.5,0-0.6-0.1c-0.1-0.1-0.1-0.2-0.1-0.5v-3.4c0-0.3,0-0.5,0.1-0.6
				c0.1-0.1,0.3-0.1,0.6-0.1l7.3,0.1h14.1v-3.1h-8.1l-7.9,0.1c-0.3,0-0.5,0-0.5-0.1c0-0.1-0.1-0.2-0.1-0.5v-3.3c0-0.3,0-0.5,0.1-0.6
				c0.1-0.1,0.2-0.1,0.5-0.1l7.9,0.1h8.1v-3h-10.8l-7.7,0.1c-0.3,0-0.5,0-0.6-0.1c-0.1-0.1-0.1-0.2-0.1-0.4V218c0-0.3,0-0.5,0.1-0.6
				c0.1-0.1,0.3-0.1,0.6-0.1l7.7,0.1h3.5c-0.6-1.4-1.2-2.6-1.8-3.6c-0.1-0.2-0.2-0.4-0.2-0.5c0-0.2,0.2-0.3,0.6-0.4l3.7-1h-9.2
				l-7.3,0.1c-0.3,0-0.5,0-0.6-0.1c-0.1-0.1-0.1-0.2-0.1-0.5v-3.6c0-0.3,0-0.5,0.1-0.6c0.1-0.1,0.3-0.1,0.6-0.1l7.3,0.1h0.4
				c-0.7-1.5-1.8-3.1-3.3-4.9c-0.1-0.1-0.2-0.3-0.2-0.4c0-0.2,0.2-0.4,0.7-0.6l3.3-1.5c0.2-0.1,0.4-0.2,0.5-0.2
				c0.2,0,0.4,0.1,0.6,0.4c1.7,2,3,3.9,3.9,5.6c0.1,0.2,0.2,0.3,0.2,0.4c0,0.1-0.2,0.3-0.6,0.6l-1.4,0.7h5.3v-3.8
				c0-2.3-0.1-3.9-0.3-5c2.3,0.1,4.2,0.2,5.5,0.3c0.5,0.1,0.7,0.2,0.7,0.5c0,0.2-0.1,0.5-0.2,1c-0.2,0.5-0.3,1.6-0.3,3.2v3.8h4.6
				v-3.7c0-2.3-0.1-4-0.4-5c2.4,0.1,4.3,0.2,5.5,0.4c0.5,0.1,0.8,0.2,0.8,0.5c0,0.2-0.1,0.5-0.2,0.9c-0.2,0.5-0.4,1.6-0.4,3.2v3.8
				h3.6c1-1.5,1.9-3.1,2.6-4.7c0.5-1,0.8-2,1-3.1c1.8,0.4,3.7,0.8,5.5,1.5c0.5,0.2,0.8,0.4,0.8,0.7c0,0.3-0.2,0.7-0.6,1
				c-0.3,0.3-0.7,0.6-1,1.1c-0.5,0.8-1.3,1.9-2.4,3.5h0.8l7.2-0.1c0.3,0,0.5,0,0.5,0.1c0.1,0.1,0.1,0.3,0.1,0.6v3.6
				c0,0.3,0,0.5-0.1,0.5c-0.1,0.1-0.2,0.1-0.5,0.1l-7.2-0.1h-10.1c1.6,0.3,3.1,0.6,4.5,1c0.5,0.1,0.8,0.4,0.8,0.7
				c0,0.4-0.2,0.6-0.6,0.8c-0.1,0.1-0.4,0.5-0.8,1.2l-1,1.8h3.7l7.7-0.1c0.3,0,0.5,0,0.6,0.1c0.1,0.1,0.1,0.3,0.1,0.5v3.4
				c0,0.4-0.2,0.6-0.6,0.6l-7.7-0.1h-11.6v3h9.1l7.9-0.1c0.3,0,0.5,0,0.6,0.1c0.1,0.1,0.1,0.3,0.1,0.5v3.3c0,0.3,0,0.5-0.1,0.5
				s-0.2,0.1-0.5,0.1l-7.9-0.1h-9.1v3.1h15.1l7.2-0.1c0.3,0,0.5,0,0.5,0.1c0.1,0.1,0.1,0.3,0.1,0.5v3.4c0,0.3,0,0.5-0.1,0.5
				s-0.2,0.1-0.5,0.1l-7.2-0.1h-10.2c4.5,3.1,10.8,5.6,19.1,7.5c-0.9,1.1-1.6,2.3-2.2,3.7c-0.4,1-0.8,1.5-1.3,1.5
				c-0.2,0-0.6-0.1-1.3-0.3c-7.7-2.2-14.2-5.7-19.3-10.3l0.3,11.3c0,0.3,0,0.5-0.1,0.6c-0.1,0.1-0.2,0.1-0.5,0.1h-4.9
				c-0.4,0-0.6-0.2-0.6-0.6c0-0.2,0-0.8,0.1-1.8c0.1-3.1,0.1-6.2,0.2-9.3c-4.6,4.4-10.7,7.8-18.4,10.3c-0.6,0.2-1.1,0.3-1.3,0.3
				c-0.4,0-0.8-0.5-1.3-1.5c-0.8-1.5-1.5-2.7-2.3-3.4c7.8-2,13.9-4.6,18.3-8H113.4z M137.1,214.1c0.2-0.4,0.4-1.2,0.6-2.3h-14.6
				c0.1,0,0.2,0.2,0.4,0.4c1,1.7,1.9,3.5,2.6,5.2h9.4C136.1,216.5,136.6,215.4,137.1,214.1z"/>
			<path class="st1" d="M168.1,214.9L163,215c-0.3,0-0.5,0-0.6-0.1s-0.1-0.3-0.1-0.5v-4.1c0-0.3,0-0.5,0.1-0.5
				c0.1-0.1,0.3-0.1,0.5-0.1l5.1,0.1h1.1V206c0-3.4-0.2-5.9-0.5-7.7c2.1,0.1,4,0.2,5.5,0.4c0.7,0.1,1,0.3,1,0.6
				c0,0.3-0.1,0.7-0.3,1.2c-0.3,0.6-0.4,2.4-0.4,5.4v3.8l4.1-0.1c0.3,0,0.4,0,0.5,0.1c0,0.1,0.1,0.2,0.1,0.5v4.1
				c0,0.3,0,0.5-0.1,0.6c-0.1,0.1-0.2,0.1-0.5,0.1c0,0-0.5,0-1.3,0c-0.9,0-1.8-0.1-2.8-0.1c1.4,4,3.5,7.6,6.1,11
				c-0.8,1-1.5,2.3-2.1,3.8c-0.2,0.6-0.5,0.9-0.7,0.9c-0.2,0-0.4-0.3-0.7-0.9c-1.1-2.1-2.1-4.5-2.9-7.1c0,6.4,0.1,13.1,0.2,20
				c0,1.6,0.1,3.5,0.1,5.8c0,1.1,0,1.7,0,1.8c0,0.3,0,0.5-0.1,0.6c-0.1,0.1-0.2,0.1-0.5,0.1h-4.5c-0.3,0-0.5,0-0.6-0.1
				c-0.1-0.1-0.1-0.3-0.1-0.5c0-0.1,0-1.4,0.1-3.9c0.2-7.4,0.3-14.4,0.3-20.8c-1.1,4.3-2.8,8.2-4.9,11.7c-0.4,0.6-0.7,0.9-0.9,0.9
				c-0.2,0-0.4-0.3-0.6-1c-0.6-1.8-1.2-3.2-2-4.2c3.8-5.4,6.4-11.4,7.9-18H168.1z M202.9,245.7c0.8,0,1.3-0.1,1.5-0.4
				c0.2-0.2,0.3-0.6,0.3-1.1v-3.2h-18.2v2.9l0.1,6.3c0,0.3,0,0.5-0.1,0.6c-0.1,0.1-0.3,0.1-0.5,0.1h-4.4c-0.3,0-0.5,0-0.5-0.1
				c-0.1-0.1-0.1-0.2-0.1-0.5l0.1-6.2v-3l-3.2,0.1c-0.3,0-0.5,0-0.5-0.1c-0.1-0.1-0.1-0.2-0.1-0.5v-3.1c0-0.3,0-0.5,0.1-0.5
				s0.2-0.1,0.5-0.1c0,0,0.4,0,1,0c0.7,0,1.4,0.1,2.2,0.1v-6.4L181,224c0-0.3,0-0.5,0.1-0.6s0.2-0.1,0.5-0.1l7.4,0.1h3.7v-2.9H187
				l-7.8,0.1c-0.3,0-0.5,0-0.5-0.1c-0.1-0.1-0.1-0.2-0.1-0.5v-3.1c0-0.3,0-0.5,0.1-0.5s0.2-0.1,0.5-0.1l7.8,0.1v-2.9
				c-1.5,0-2.9,0-4.1,0.1c-0.8,0-1.2,0-1.2,0c-0.3,0-0.5,0-0.5-0.1c-0.1-0.1-0.1-0.2-0.1-0.5v-2.8c0-0.3,0-0.5,0.1-0.5
				s0.2-0.1,0.5-0.1l5.3,0.1v-2.9c-1.9,0-3.6,0-5.2,0.1c-1,0-1.5,0-1.5,0c-0.3,0-0.5,0-0.5-0.1c-0.1-0.1-0.1-0.3-0.1-0.5v-2.8
				c0-0.3,0-0.5,0.1-0.6c0.1-0.1,0.2-0.1,0.5-0.1l6.7,0.1c0-2.2-0.1-3.7-0.4-4.6c2.6,0.2,4.4,0.3,5.3,0.4c0.6,0.1,0.9,0.2,0.9,0.5
				c0,0.2-0.1,0.6-0.3,1c-0.2,0.4-0.4,1.3-0.4,2.7h6.7c0-2.2-0.1-3.7-0.4-4.6c2.4,0.1,4.2,0.3,5.3,0.4c0.6,0.1,0.9,0.2,0.9,0.5
				c0,0.3-0.1,0.6-0.3,1c-0.2,0.4-0.3,1.3-0.3,2.7h0.9l7.8-0.1c0.3,0,0.4,0,0.5,0.1c0.1,0.1,0.1,0.3,0.1,0.5v2.8
				c0,0.3,0,0.5-0.1,0.6c-0.1,0.1-0.2,0.1-0.5,0.1l-7.8-0.1H204v2.9l7-0.1c0.3,0,0.5,0,0.5,0.1c0.1,0.1,0.1,0.2,0.1,0.5v2.8
				c0,0.3,0,0.5-0.1,0.5c-0.1,0.1-0.2,0.1-0.5,0.1l-7-0.1v2.9h1.9l7.7-0.1c0.3,0,0.5,0,0.6,0.1c0.1,0.1,0.1,0.2,0.1,0.5v3.1
				c0,0.3,0,0.5-0.1,0.5c-0.1,0.1-0.2,0.1-0.5,0.1l-7.8-0.1h-8v2.9h4.2l7.5-0.1c0.3,0,0.5,0,0.6,0.1s0.1,0.3,0.1,0.5l-0.1,6.9v5.9
				c1,0,1.9,0,2.7-0.1c0.6,0,0.9,0,0.9,0c0.3,0,0.5,0,0.6,0.1c0.1,0.1,0.1,0.2,0.1,0.5v3.1c0,0.3,0,0.5-0.1,0.5s-0.2,0.1-0.5,0.1
				l-3.6-0.1l0.1,3.4c0,2.3-0.4,3.8-1.3,4.6c-0.6,0.5-1.4,0.9-2.4,1c-1,0.2-2.5,0.3-4.6,0.3c-0.9,0-1.5-0.1-1.7-0.3
				c-0.1-0.1-0.3-0.6-0.5-1.5c-0.3-1.3-0.7-2.3-1.3-3.2C200.1,245.6,201.5,245.7,202.9,245.7z M186.5,230.3h6.2v-2.9h-6.2V230.3z
				 M186.5,236.9h6.2v-3.1h-6.2V236.9z M192.1,209.9h6.7v-2.9h-6.7V209.9z M192.1,216.6h6.7v-2.9h-6.7V216.6z M204.7,227.4h-6.8v2.9
				h6.8V227.4z M197.9,236.9h6.8v-3.1h-6.8V236.9z"/>
			<path class="st1" d="M230.2,198.5c2.4,0.1,4.2,0.2,5.6,0.3c0.5,0.1,0.8,0.3,0.8,0.6c0,0-0.1,0.3-0.2,0.9
				c-0.2,0.6-0.3,1.7-0.3,3.3v2.5h0.8l6.4-0.1c0.3,0,0.5,0,0.6,0.1c0.1,0.1,0.1,0.3,0.1,0.5v4.1c0,0.3,0,0.5-0.1,0.6
				c-0.1,0.1-0.3,0.1-0.6,0.1l-6.4-0.1h-0.1c2.3,3.5,4.9,6.3,7.9,8.3c-0.9,1.1-1.5,2.3-2,3.4c-0.4,0.8-0.7,1.2-0.9,1.2
				c-0.2,0-0.6-0.3-1.1-0.9c-1.9-2-3.5-4.1-4.7-6.4c0,2.9,0.1,6,0.2,9.5c0.1,2.4,0.1,3.8,0.1,4c0,0.3,0,0.5-0.1,0.6
				c-0.1,0.1-0.2,0.1-0.5,0.1h-4.4c-0.3,0-0.5,0-0.5-0.1s-0.1-0.3-0.1-0.6c0-0.2,0-1,0.1-2.2c0.1-3.8,0.1-7.2,0.2-10.2
				c-1.5,3-3.8,6-6.9,8.8c-0.5,0.5-0.9,0.7-1.1,0.7c-0.3,0-0.7-0.4-1.1-1.3c-0.7-1.4-1.5-2.5-2.5-3.4c4.6-3.2,8.2-7.1,10.6-11.6
				h-1.9l-6.5,0.1c-0.3,0-0.5,0-0.6-0.1c-0.1-0.1-0.1-0.3-0.1-0.5v-4.1c0-0.3,0-0.5,0.1-0.6c0.1-0.1,0.2-0.1,0.5-0.1l6.5,0.1h2.8
				v-2.5C230.6,201.3,230.5,199.7,230.2,198.5z M225.2,233.9c0.1-0.3,0.2-0.5,0.4-0.5c0.1,0,0.3,0.1,0.7,0.2l3.6,1.4
				c0.5,0.2,0.7,0.4,0.7,0.6c0,0.1,0,0.2-0.1,0.4c-1.3,4.2-3,8-5.2,11.4c-0.1,0.3-0.3,0.4-0.4,0.4c-0.2,0-0.5-0.1-0.7-0.3l-3.4-2.4
				c-0.4-0.3-0.6-0.5-0.6-0.7c0-0.1,0.1-0.3,0.3-0.5C222.4,241.2,224,237.8,225.2,233.9z M254.5,238.6c1.3,0.8,2.7,1.3,4.3,1.7
				c0.9,0.2,1.3,0.5,1.3,0.9c0,0.2,0,0.5-0.1,1.1c-0.3,1.9-0.7,3.3-1.2,4.3c-0.4,0.7-1.1,1.4-1.9,1.8c-1.1,0.6-2.6,1-4.5,1.2
				c-1.5,0.1-3.7,0.2-6.7,0.2c-5.1,0-8.3-0.4-9.6-1.3c-1.3-0.9-2-2.5-2-4.9v-6.4c0-1.6-0.1-3.2-0.3-4.8c2,0,4,0.1,5.8,0.3
				c0.7,0.1,1,0.3,1,0.6c0,0.3-0.1,0.6-0.2,0.9c-0.3,0.6-0.4,1.5-0.4,2.6v4.8c0,1.2,0.3,1.9,0.8,2.2c0.7,0.4,2.5,0.6,5.3,0.6
				c3.7,0,5.9-0.3,6.8-0.9C254,243.1,254.5,241.4,254.5,238.6z M261.1,200.9l6.4-0.1c0.3,0,0.5,0,0.6,0.1c0.1,0.1,0.1,0.3,0.1,0.5
				l-0.1,6.7v15.2l0.1,6.7c0,0.3,0,0.5-0.1,0.6c-0.1,0.1-0.2,0.1-0.5,0.1l-6.4-0.1H253l-5.3,0.1c2.2,2.1,4.1,4.3,5.6,6.5
				c0.1,0.2,0.2,0.4,0.2,0.4c0,0.2-0.2,0.4-0.5,0.6l-3.3,2.1c-0.4,0.2-0.6,0.3-0.8,0.3s-0.3-0.1-0.4-0.4c-1.7-3-3.6-5.5-5.7-7.5
				c-0.1-0.2-0.2-0.3-0.2-0.4c0-0.2,0.2-0.4,0.5-0.6l3.1-1.8l0.1-6.6v-15.2l-0.1-6.7c0-0.3,0-0.5,0.1-0.6c0.1-0.1,0.3-0.1,0.6-0.1
				l6.3,0.1H261.1z M251.5,205.6v3.9h11.1v-3.9H251.5z M251.5,217.6h11.1v-3.8h-11.1V217.6z M262.6,225.8v-4h-11.1v4H262.6z
				 M265.3,233.1c2.7,3.3,4.7,6.8,6.2,10.3c0.1,0.1,0.1,0.2,0.1,0.3c0,0.2-0.2,0.4-0.6,0.7l-3.8,2.2c-0.3,0.2-0.6,0.3-0.7,0.3
				c-0.2,0-0.3-0.2-0.4-0.5c-1.3-3.7-3.2-7.3-5.9-10.8c-0.2-0.2-0.3-0.4-0.3-0.5c0-0.1,0.2-0.3,0.7-0.6l3.6-1.8
				c0.3-0.1,0.5-0.2,0.6-0.2C264.9,232.7,265.1,232.8,265.3,233.1z"/>
			<path class="st1" d="M285.3,235.7l-7.2,0.1c-0.3,0-0.5,0-0.5-0.1c-0.1-0.1-0.1-0.2-0.1-0.5v-4.4c0-0.3,0-0.5,0.1-0.6
				c0.1-0.1,0.2-0.1,0.5-0.1l7.2,0.1h15.1c-0.1-2.1-0.2-3.8-0.3-4.9l3.3,0.3c1.7-1.1,3.5-2.5,5.2-4.1h-12.4l-7.4,0.1
				c-0.4,0-0.6-0.2-0.6-0.6v-4c0-0.3,0-0.5,0.1-0.5c0.1-0.1,0.2-0.1,0.5-0.1l7.4,0.1h15.5c0.7,0,1.2,0,1.4-0.1
				c0.4-0.1,0.6-0.2,0.7-0.2c0.4,0,1.2,0.6,2.5,1.8c1.1,1.1,1.6,1.9,1.6,2.5c0,0.4-0.2,0.8-0.7,0.9c-0.8,0.4-1.7,1-2.7,1.9
				c-2.7,2.3-5.4,4.3-8,5.9v0.9h14.3l7.2-0.1c0.3,0,0.5,0,0.6,0.1c0.1,0.1,0.1,0.3,0.1,0.5v4.4c0,0.3,0,0.5-0.1,0.5
				c-0.1,0.1-0.2,0.1-0.5,0.1l-7.2-0.1h-14.3v3.7l0.1,5c0,2.3-0.6,3.8-1.8,4.7c-0.8,0.5-1.9,0.8-3.2,1c-1.2,0.2-3.1,0.3-5.6,0.3
				c-0.9,0-1.5-0.1-1.7-0.2c-0.2-0.1-0.4-0.6-0.6-1.4c-0.4-1.6-1-3-1.7-4.2c2.3,0.2,4.3,0.3,6.1,0.3c0.9,0,1.5-0.1,1.8-0.4
				c0.3-0.3,0.4-0.8,0.4-1.5v-7.2H285.3z M285.4,200.2l3.4-1.3c0.3-0.1,0.5-0.2,0.6-0.2c0.2,0,0.4,0.1,0.6,0.4
				c1.5,1.9,2.8,3.9,3.8,6c0.1,0.2,0.2,0.4,0.2,0.5c0,0.1-0.2,0.3-0.7,0.4l-3.8,1.4h11.9c-0.8-2.5-1.9-4.9-3.3-7.2
				c-0.1-0.2-0.2-0.3-0.2-0.4c0-0.1,0.2-0.3,0.7-0.4l3.8-1.1c0.2-0.1,0.4-0.1,0.5-0.1c0.2,0,0.4,0.1,0.6,0.4c1.2,2,2.3,4.3,3.2,6.7
				c0.1,0.2,0.1,0.3,0.1,0.4c0,0.1-0.2,0.3-0.7,0.5l-3.7,1.3h8.9c0.8-1.4,1.8-3.4,2.8-5.8c0.3-0.9,0.6-1.9,0.9-3
				c2,0.4,3.9,1,5.7,1.7c0.5,0.2,0.8,0.5,0.8,0.9c0,0.3-0.2,0.6-0.6,0.9c-0.4,0.2-0.8,0.7-1.1,1.3c-0.8,1.5-1.6,2.8-2.4,4.1h1.5
				l7.6-0.1c0.3,0,0.5,0,0.6,0.1c0.1,0.1,0.1,0.2,0.1,0.5l-0.1,3.1v2.6l0.1,6.4c0,0.3,0,0.5-0.1,0.6c-0.1,0.1-0.3,0.1-0.6,0.1h-4.5
				c-0.3,0-0.5,0-0.6-0.1c-0.1-0.1-0.1-0.3-0.1-0.6v-7.6h-36.7v7.6c0,0.3,0,0.5-0.1,0.6c-0.1,0.1-0.2,0.1-0.5,0.1h-4.5
				c-0.3,0-0.5,0-0.6-0.1c-0.1-0.1-0.1-0.3-0.1-0.5l0.1-6.5v-2.1l-0.1-3.6c0-0.3,0-0.5,0.1-0.5c0.1-0.1,0.3-0.1,0.6-0.1l7.6,0.1h1.5
				c-0.9-2.2-2.1-4.4-3.7-6.4c-0.1-0.2-0.2-0.4-0.2-0.4C284.8,200.5,285,200.4,285.4,200.2z"/>
			<path class="st1" d="M341.6,215.8l-7.1,0.1c-0.3,0-0.4,0-0.5-0.1c0-0.1-0.1-0.3-0.1-0.6v-3.9c0-0.4,0.2-0.6,0.6-0.6l7.1,0.1h1.2
				c0.1-1.8,0.1-3.2,0.1-4.4l-5.7,0.1c-0.3,0-0.5,0-0.6-0.1c-0.1-0.1-0.1-0.3-0.1-0.6V202c0-0.3,0-0.5,0.1-0.6
				c0.1-0.1,0.3-0.1,0.6-0.1l6.1,0.1h7.4l7.1-0.1c0.3,0,0.5,0,0.6,0.1c0.1,0.1,0.1,0.3,0.1,0.5l-0.1,6.2v2.7c0.4,0,0.9-0.1,1.4-0.1
				c0.3,0,0.5,0,0.6,0c0.3,0,0.5,0,0.5,0.1c0.1,0.1,0.1,0.3,0.1,0.5v3.9c0,0.3,0,0.5-0.1,0.6c-0.1,0.1-0.2,0.1-0.5,0.1l-2-0.1v2.3
				l0.1,6.1c0,0.3,0,0.5-0.1,0.6c-0.1,0.1-0.3,0.1-0.5,0.1l-7.1-0.1h-4.5c-0.5,1.5-1,3-1.5,4.3h7.7l5.7-0.1c0.3,0,0.5,0,0.6,0.1
				c0.1,0.1,0.1,0.3,0.1,0.5l-0.1,5.8v3.8l0.1,9c0,0.3,0,0.5-0.1,0.6c-0.1,0.1-0.2,0.1-0.5,0.1h-4.3c-0.3,0-0.5,0-0.6-0.1
				c-0.1-0.1-0.1-0.3-0.1-0.5v-1.7h-7.1v2.7c0,0.4-0.2,0.6-0.6,0.6h-4.2c-0.3,0-0.5,0-0.6-0.1c-0.1-0.1-0.1-0.3-0.1-0.5l0.1-9.6
				v-3.3c-1,1.5-2,2.8-3.1,4.2c-0.5,0.6-0.9,0.9-1,0.9c-0.2,0-0.5-0.4-0.9-1.1c-0.6-1.5-1.4-2.7-2.4-3.7c3.4-3.5,5.8-7.5,7.3-11.9
				c-1,0-1.8,0-2.6,0.1c-0.5,0-0.8,0-0.9,0c-0.3,0-0.5,0-0.5-0.1c-0.1-0.1-0.1-0.3-0.1-0.6v-3.7c0-0.3,0-0.5,0.1-0.5
				c0.1-0.1,0.2-0.1,0.5-0.1l4.8,0.1c0.3-1.6,0.5-3.1,0.6-4.3H341.6z M353.2,234h-7.1v8h7.1V234z M347.4,220.2h5.6v-4.3H348
				C347.9,217,347.7,218.4,347.4,220.2z M353.1,206.4h-4.5c0,0.2-0.1,1.7-0.2,4.4h4.7V206.4z M378.7,214.3h-2.6v6h1.4l6.2-0.1
				c0.3,0,0.5,0,0.6,0.1c0.1,0.1,0.1,0.3,0.1,0.5v4.1c0,0.3,0,0.5-0.1,0.5c-0.1,0.1-0.2,0.1-0.5,0.1l-6.2-0.1h-1.4v6.9h3l6.9-0.1
				c0.3,0,0.5,0,0.6,0.1c0.1,0.1,0.1,0.3,0.1,0.5v4.3c0,0.3,0,0.5-0.1,0.5c-0.1,0.1-0.2,0.1-0.5,0.1l-6.9-0.1h-3v4.2l0.1,8.5
				c0,0.3,0,0.5-0.1,0.5c-0.1,0.1-0.3,0.1-0.5,0.1h-4.6c-0.3,0-0.5,0-0.6-0.1c-0.1-0.1-0.1-0.2-0.1-0.5l0.1-8.5v-4.2h-2.1l-6.9,0.1
				c-0.3,0-0.5,0-0.5-0.1s-0.1-0.2-0.1-0.5v-4.3c0-0.3,0-0.5,0.1-0.6c0.1-0.1,0.2-0.1,0.5-0.1l6.9,0.1h2.1v-6.9h-0.9l-6.2,0.1
				c-0.4,0-0.6-0.2-0.6-0.6v-4.1c0-0.4,0.2-0.6,0.6-0.6l6.2,0.1h0.9v-6h-1.1l-6.6,0.1c-0.3,0-0.5,0-0.6-0.1
				c-0.1-0.1-0.1-0.3-0.1-0.5v-4c0-0.3,0-0.5,0.1-0.6c0.1-0.1,0.3-0.1,0.6-0.1l6.6,0.1h4.6c1.4-2.7,2.5-5.3,3.4-7.8
				c0.4-0.9,0.6-1.9,0.7-3c2.1,0.5,3.8,1,5.2,1.7c0.5,0.2,0.8,0.5,0.8,0.8c0,0.3-0.2,0.6-0.6,1c-0.3,0.3-0.7,0.9-1.2,2
				c-0.7,1.5-1.5,3.2-2.6,5.3l5.8-0.1c0.4,0,0.6,0.2,0.6,0.6v4c0,0.4-0.2,0.6-0.6,0.6L378.7,214.3z M367.9,199.3
				c1.3,2,2.5,4.2,3.5,6.6c0.1,0.2,0.1,0.4,0.1,0.5c0,0.2-0.2,0.4-0.7,0.6l-3.3,1.5c-0.3,0.1-0.6,0.2-0.7,0.2
				c-0.1,0-0.3-0.2-0.4-0.5c-0.8-2.2-1.9-4.4-3.4-6.7c-0.1-0.2-0.1-0.3-0.1-0.4c0-0.2,0.2-0.4,0.6-0.5l3.2-1.4
				c0.3-0.1,0.5-0.2,0.6-0.2C367.5,198.9,367.7,199,367.9,199.3z"/>
			<path class="st1" d="M390.3,220.8c4.1-4.7,7.3-10.9,9.8-18.5c0.5-1.6,0.8-3,0.9-4.1c2.3,0.7,4.1,1.3,5.3,1.9
				c0.6,0.2,0.9,0.6,0.9,1c0,0.3-0.2,0.6-0.6,1c-0.3,0.3-0.7,1-1.1,2.3c-1.2,3.2-2.3,6-3.3,8.2v29l0.1,8.7c0,0.3,0,0.5-0.1,0.6
				c-0.1,0.1-0.2,0.1-0.5,0.1h-4.7c-0.3,0-0.5,0-0.5-0.1c-0.1-0.1-0.1-0.3-0.1-0.5l0.1-8.7v-12.2c0-3.1,0-5.5,0.1-7.1
				c-0.6,0.9-1.6,2.2-2.9,3.7c-0.5,0.5-0.8,0.8-1,0.8c-0.3,0-0.5-0.3-0.6-1C391.6,223.9,391,222.1,390.3,220.8z M415.3,207.9
				l-7.9,0.1c-0.3,0-0.5,0-0.5-0.1c-0.1-0.1-0.1-0.3-0.1-0.5v-4.2c0-0.3,0-0.5,0.1-0.6c0.1-0.1,0.2-0.1,0.5-0.1l7.9,0.1h20.3
				l7.9-0.1c0.3,0,0.5,0,0.6,0.1c0.1,0.1,0.1,0.3,0.1,0.6v4.2c0,0.3,0,0.5-0.1,0.6c-0.1,0.1-0.2,0.1-0.5,0.1l-7.9-0.1h-3.6v8.8h1.8
				l8-0.1c0.3,0,0.5,0,0.6,0.1c0.1,0.1,0.1,0.2,0.1,0.5l-0.1,9.4v10l0.1,12.5c0,0.3,0,0.5-0.1,0.6c-0.1,0.1-0.2,0.1-0.5,0.1h-4.5
				c-0.3,0-0.5,0-0.6-0.1c-0.1-0.1-0.1-0.2-0.1-0.5v-2.4h-24v2.6c0,0.3,0,0.5-0.1,0.6c-0.1,0.1-0.3,0.1-0.5,0.1h-4.4
				c-0.3,0-0.5,0-0.5-0.1c-0.1-0.1-0.1-0.3-0.1-0.5l0.1-12.6v-9.1l-0.1-10.5c0-0.3,0-0.5,0.1-0.5c0.1-0.1,0.3-0.1,0.5-0.1l7.8,0.1
				h1.5v-8.8H415.3z M412.5,241.6h4.3v-19.9h-4.3V241.6z M422.1,216.7h4.5v-8.8h-4.5V216.7z M422.1,241.6h4.5v-19.9h-4.5V241.6z
				 M436.5,221.7h-4.6v19.9h4.6V221.7z"/>
			<path class="st1" d="M447.5,220.5c4.5-5,8-11.1,10.4-18.2c0.5-1.5,0.8-2.8,1-4c2.2,0.6,4,1.1,5.3,1.6c0.6,0.2,0.9,0.5,0.9,0.9
				c0,0.3-0.2,0.6-0.6,1c-0.4,0.3-0.8,1.1-1.2,2.4c-1,2.7-2.1,5.4-3.4,8v29.4l0.1,8.7c0,0.3,0,0.5-0.1,0.6c-0.1,0.1-0.2,0.1-0.5,0.1
				h-4.8c-0.4,0-0.6-0.2-0.6-0.6l0.1-8.7V229c0-3.3,0-5.8,0.1-7.6c-1.2,1.5-2.2,2.9-3.3,4.1c-0.5,0.5-0.8,0.8-1,0.8
				c-0.2,0-0.4-0.3-0.6-1C448.8,223.2,448.2,221.6,447.5,220.5z M464.1,214.1c2,0.1,4,0.2,5.9,0.4c0.7,0.1,1,0.3,1,0.7
				c0,0-0.1,0.5-0.4,1.3c-0.2,0.6-0.3,2.3-0.3,5v21.3h22.9l7.5-0.1c0.3,0,0.5,0,0.6,0.1c0.1,0.1,0.1,0.3,0.1,0.6v4.1
				c0,0.3,0,0.5-0.1,0.5c-0.1,0.1-0.2,0.1-0.5,0.1l-7.5-0.1h-22.9v2.1c0,0.3,0,0.5-0.1,0.5c-0.1,0.1-0.2,0.1-0.5,0.1H465
				c-0.3,0-0.5,0-0.5-0.1c-0.1-0.1-0.1-0.2-0.1-0.5l0.1-6.1v-22.4C464.5,218.6,464.4,216.1,464.1,214.1z M474.4,209.1l-7.8,0.1
				c-0.3,0-0.5,0-0.5-0.1c0-0.1-0.1-0.2-0.1-0.5v-3.9c0-0.3,0-0.4,0.1-0.5c0.1-0.1,0.2-0.1,0.5-0.1l7.8,0.1h6.8l0.2-1.7
				c0.2-1.5,0.3-2.7,0.3-3.5c0-0.3,0-0.5,0-0.6c2.1,0.1,4,0.3,5.8,0.5c0.6,0,0.9,0.2,0.9,0.7c0,0.3-0.1,0.6-0.4,0.9
				c-0.3,0.5-0.5,1-0.6,1.7c-0.1,0.8-0.2,1.5-0.3,2h5.6l7.8-0.1c0.4,0,0.6,0.2,0.6,0.6v3.9c0,0.3,0,0.5-0.1,0.6
				c-0.1,0.1-0.3,0.1-0.5,0.1l-7.8-0.1h-6.5c0,0.1-0.3,1.4-0.9,4.2h4.7l6.4-0.1c0.3,0,0.5,0,0.6,0.1c0.1,0.1,0.1,0.3,0.1,0.5
				l-0.1,6.2V233l0.1,6.2c0,0.3,0,0.5-0.1,0.5c-0.1,0.1-0.3,0.1-0.6,0.1l-6.4-0.1h-8.5l-6.5,0.1c-0.3,0-0.5,0-0.5-0.1
				c-0.1-0.1-0.1-0.3-0.1-0.5l0.1-6.2v-12.9l-0.1-6.2c0-0.3,0-0.5,0.1-0.6c0.1-0.1,0.2-0.1,0.5-0.1l4.6,0.1c0.1-0.6,0.3-1.3,0.5-2.3
				c0.2-0.9,0.3-1.5,0.4-1.9H474.4z M479.9,217.5v3.3h11.5v-3.3H479.9z M479.9,228.1h11.5v-3.3h-11.5V228.1z M491.4,235.4v-3.4
				h-11.5v3.4H491.4z"/>
			<path class="st1" d="M505.4,244.4c2.2-3.1,3.8-6.4,4.6-9.9c0.8-3.1,1.3-7,1.3-11.7l-0.1-6.5c0-0.4,0.2-0.6,0.6-0.6l6.6,0.1h9.3
				l6.5-0.1c0.3,0,0.5,0,0.6,0.1c0.1,0.1,0.1,0.2,0.1,0.5l-0.1,4.7v6.2l0.1,4.6c0,0.3,0,0.5-0.1,0.5c-0.1,0.1-0.2,0.1-0.5,0.1
				l-6.5-0.1h-11.7c-0.4,2.5-0.8,4.6-1.3,6.2c-0.7,2.8-2.1,5.8-3.9,9.1c-0.4,0.7-0.7,1-1,1c-0.2,0-0.6-0.3-1.1-1
				C507.7,246.2,506.6,245.2,505.4,244.4z M520.6,198c1.8,0.3,3.5,0.6,5.3,1c0.5,0.1,0.8,0.4,0.8,0.7c0,0.3-0.2,0.5-0.6,0.8
				c1.9,2.1,4,3.9,6.1,5.2c1.6,1,3.7,2.1,6.4,3.2c-0.8,1.1-1.4,2.3-1.9,3.7c-0.3,0.9-0.6,1.4-0.8,1.4c-0.2,0-0.7-0.2-1.3-0.5
				c-1.7-0.9-3.3-2-4.8-3.1v2.7c0,0.3,0,0.5-0.1,0.6s-0.2,0.1-0.5,0.1l-3.9-0.1h-3.3l-3.9,0.1c-0.3,0-0.5,0-0.6-0.1
				c-0.1-0.1-0.1-0.3-0.1-0.5v-2.4c-2.5,2.2-4.9,4-7.3,5.3c-0.7,0.4-1.1,0.6-1.3,0.6c-0.2,0-0.6-0.4-1-1.3c-0.6-1.4-1.3-2.6-2.1-3.6
				c5.7-2.6,10.2-6.2,13.4-10.7C519.7,199.9,520.2,198.9,520.6,198z M536.1,249.7c0,0.4-0.2,0.6-0.7,0.6h-4.3
				c-0.4,0-0.6-0.2-0.6-0.6v-1.3h-9.3v1.7c0,0.3,0,0.5-0.1,0.6c-0.1,0.1-0.2,0.1-0.5,0.1h-4.1c-0.3,0-0.5,0-0.5-0.1
				c0-0.1-0.1-0.3-0.1-0.5l0.1-6.8v-3.3l-0.1-4.2c0-0.3,0-0.5,0.1-0.6s0.2-0.1,0.5-0.1l6,0.1h6.9l6-0.1c0.3,0,0.5,0,0.6,0.1
				c0.1,0.1,0.1,0.3,0.1,0.5l-0.1,3.6v3.6L536.1,249.7z M529.5,228.2v-2.3h-12.7l-0.2,2.3H529.5z M529.5,219.8h-12.7v2.3h12.7V219.8
				z M518.7,209.4c0.4,0,1.4,0.1,3.1,0.1h3.3c1.8,0,2.9,0,3.2-0.1c-1.8-1.4-3.5-3.2-5.1-5.2C521.7,206.2,520.2,207.9,518.7,209.4z
				 M530.5,239.5h-9.3v4.7h9.3V239.5z M545.9,204.3c0,0-0.1,0.5-0.3,1.3c-0.1,0.5-0.2,2.6-0.2,6.1v15.8l0.1,7.6c0,0.3,0,0.5-0.1,0.6
				s-0.2,0.1-0.5,0.1h-4.7c-0.3,0-0.4,0-0.5-0.1c0-0.1-0.1-0.3-0.1-0.6l0.1-7.6v-15.8c0-3.9-0.1-6.7-0.4-8.5c2.1,0.1,4,0.2,5.9,0.4
				C545.7,203.7,545.9,203.9,545.9,204.3z M541.7,243.7c1.9,0.2,4,0.3,6.2,0.3c1,0,1.7-0.2,2-0.5c0.3-0.3,0.5-0.9,0.5-1.8v-34.4
				c0-3.4-0.2-6.2-0.5-8.2c2.3,0.1,4.3,0.2,6.1,0.4c0.6,0.1,0.9,0.3,0.9,0.6c0,0.2-0.1,0.6-0.3,1.3c-0.2,0.5-0.3,2.4-0.3,5.8v24.3
				l0.1,11.4c0,1.6-0.2,2.8-0.5,3.6s-0.8,1.5-1.6,2c-0.9,0.6-2,1-3.2,1.1c-1.2,0.2-3,0.3-5.5,0.3c-0.9,0-1.4-0.1-1.6-0.3
				c-0.1-0.2-0.3-0.7-0.5-1.5C543.1,246.2,542.5,244.8,541.7,243.7z"/>
			<path class="st1" d="M617.2,242.8c-0.8,1.2-1.3,2.7-1.5,4.4c-0.1,1-0.3,1.5-0.5,1.7c-0.2,0.1-0.7,0.2-1.6,0.3
				c-6.2,0.4-12.9,0.5-20.2,0.5c-6.4,0-10.8-0.5-13.4-1.6c-2.3-1-4.2-2.7-5.6-5.1c-1.9,1.8-3.8,3.5-5.8,5.1
				c-0.5,0.4-0.9,0.8-1.1,1.1c-0.2,0.4-0.5,0.5-0.8,0.5c-0.3,0-0.6-0.2-0.8-0.7c-0.6-1.1-1.4-2.9-2.4-5.4c1.4-0.7,2.5-1.3,3.4-1.8
				c1.4-0.8,3-2.1,4.8-3.7v-12.7h-2.7l-4.1,0.1c-0.3,0-0.5,0-0.6-0.1c-0.1-0.1-0.1-0.3-0.1-0.6v-4.4c0-0.3,0-0.5,0.1-0.5
				c0.1-0.1,0.3-0.1,0.6-0.1l4.1,0.1h3.5l4.3-0.1c0.3,0,0.5,0,0.6,0.1c0.1,0.1,0.1,0.2,0.1,0.5l-0.1,5.5v12.2c1.2,2.4,2.8,4,4.7,4.8
				c1.9,0.8,5.4,1.1,10.6,1.1C601,244,609.3,243.6,617.2,242.8z M570.1,200.3c2.8,2.7,5.2,5.5,7.2,8.5c0.2,0.2,0.3,0.3,0.3,0.4
				c0,0.1-0.2,0.4-0.6,0.7l-3.2,2.5c-0.3,0.3-0.5,0.4-0.7,0.4c-0.2,0-0.3-0.1-0.5-0.4c-2.1-3.5-4.5-6.5-7-8.9
				c-0.2-0.2-0.3-0.3-0.3-0.4c0-0.1,0.2-0.3,0.5-0.6l3.1-2.2c0.3-0.2,0.5-0.3,0.7-0.3C569.7,199.9,569.8,200.1,570.1,200.3z
				 M587.8,221.4l-7.8,0.1c-0.3,0-0.5,0-0.6-0.1c-0.1-0.1-0.1-0.2-0.1-0.4v-4c0-0.3,0-0.5,0.1-0.5c0.1-0.1,0.3-0.1,0.6-0.1l7.8,0.1
				h6.4v-5.7h-7.3c-0.6,1-1.4,2.2-2.3,3.6c-0.6,0.8-1,1.1-1.2,1.1c-0.3,0-0.7-0.3-1.3-0.8c-1.1-0.9-2.2-1.6-3.4-2.1
				c2.3-2.5,4.2-5.6,5.7-9.1c0.5-1.3,0.8-2.5,1-3.6c1.4,0.3,3.1,0.8,5.1,1.5c0.6,0.2,0.9,0.5,0.9,0.8c0,0.2-0.2,0.5-0.5,0.8
				c-0.3,0.4-0.7,1-1.1,2l-0.3,0.9h4.9v-1c0-2.4-0.1-4.4-0.4-6.1c2,0,4,0.1,5.9,0.3c0.6,0.1,0.9,0.3,0.9,0.6c0,0.3-0.1,0.6-0.3,1
				c-0.2,0.5-0.3,1.8-0.3,3.9v1.3h4.6l7.1-0.1c0.3,0,0.5,0,0.5,0.1c0.1,0.1,0.1,0.3,0.1,0.5v3.9c0,0.3,0,0.5-0.1,0.5
				s-0.2,0.1-0.5,0.1l-7.1-0.1h-4.6v5.7h6.8l7.9-0.1c0.3,0,0.5,0,0.6,0.1c0.1,0.1,0.1,0.2,0.1,0.5v4c0,0.3,0,0.4-0.1,0.5
				c-0.1,0.1-0.3,0.1-0.6,0.1l-7.9-0.1H587.8z M602.9,225l7.2-0.1c0.3,0,0.5,0,0.6,0.1c0.1,0.1,0.1,0.3,0.1,0.5l-0.1,4.4v5.5
				l0.1,4.4c0,0.3,0,0.5-0.1,0.5s-0.2,0.1-0.5,0.1l-7.2-0.1h-11.3l-7.3,0.1c-0.3,0-0.5,0-0.5-0.1c-0.1-0.1-0.1-0.2-0.1-0.5l0.1-4.4
				v-5.5l-0.1-4.4c0-0.3,0-0.5,0.1-0.6c0.1-0.1,0.2-0.1,0.5-0.1l7.3,0.1H602.9z M604.8,235.4v-5.6h-15.3v5.6H604.8z"/>
			<path class="st1" d="M651,222.9c-0.2,3.5-0.6,6.3-1.1,8.5c-0.5,2.1-1.3,4.1-2.3,6.1c-1.2,2.3-2.8,4.6-4.9,6.7
				c-1.7,1.7-3.5,3.1-5.2,4.2c-0.7,0.5-1.3,0.7-1.7,0.7c-0.4,0-0.8-0.2-1.2-0.6c-1.2-1.2-2.9-2.3-5.1-3.1c3.1-1.7,5.5-3.3,7.3-4.9
				c1.7-1.5,3-3.3,4.1-5.3c1.1-1.9,1.8-3.9,2.2-5.9c0.3-1.6,0.6-3.8,0.7-6.4h-10.9c-1.8,0-4.7,0.1-8.6,0.3c-0.4,0.1-0.7-0.3-0.8-1.1
				c-0.3-1.7-0.4-3.5-0.4-5.5c2.1,0.2,5.4,0.3,9.7,0.3h25.8c4.1,0,7.8-0.1,11.2-0.3c0.4,0,0.6,0.4,0.6,1.1c0,0.4,0.1,1.1,0.1,2.2
				c0,1.1,0,1.8-0.1,2.2c0,0.7-0.3,1-0.8,1c-4-0.1-7.6-0.2-10.9-0.2H651z M630.1,203.3c3.3,0.2,6.5,0.3,9.5,0.3h10.6
				c3.9,0,7.2-0.1,9.7-0.2c0.5,0,0.7,0.4,0.7,1.1c0.1,0.7,0.1,1.4,0.1,2.1c0,0.7,0,1.4-0.1,2.1c0,0.7-0.3,1.1-0.8,1.1
				c-3-0.1-6.2-0.2-9.6-0.2h-10.6c-1.2,0-3.9,0.1-8.2,0.2c-0.6,0-0.9-0.3-1-1c-0.1-0.5-0.1-1.4-0.2-2.7
				C630.2,204.8,630.2,203.9,630.1,203.3z M661.1,201.4l3.2-1.8c0.1-0.1,0.2-0.1,0.3-0.1c0.2,0,0.3,0.1,0.5,0.3
				c1.8,1.6,3.4,3.8,4.9,6.6c0.1,0.1,0.1,0.3,0.1,0.4c0,0.2-0.1,0.4-0.4,0.6l-2.6,1.5c-0.1,0.1-0.3,0.1-0.4,0.1
				c-0.2,0-0.4-0.1-0.5-0.4C664.7,205.6,662.9,203.2,661.1,201.4z M666.7,198.1l3.1-1.8c0.1-0.1,0.2-0.1,0.3-0.1
				c0.1,0,0.3,0.1,0.5,0.3c2,1.9,3.7,4,4.9,6.4c0.1,0.1,0.1,0.3,0.1,0.4c0,0.2-0.1,0.4-0.4,0.6l-2.4,1.5c-0.2,0.1-0.3,0.1-0.4,0.1
				c-0.2,0-0.4-0.1-0.5-0.4C670.4,202.5,668.7,200.2,666.7,198.1z"/>
			<path class="st1" d="M717.1,213.9h2c3.1,0,6-0.1,8.7-0.2c0.1,0,0.1,0,0.1,0c0.4,0,0.6,0.3,0.7,0.9c0.1,0.7,0.1,1.5,0.1,2.2
				c0,0.8,0,1.5-0.1,2.3c-0.1,0.6-0.3,0.9-0.8,0.9h-0.2l-8.3-0.1H717c-0.2,4.3-0.7,7.9-1.4,10.7c-0.7,2.4-1.7,4.7-3,6.9
				c-2.7,4.5-7.2,8.1-13.5,10.7c-0.8,0.3-1.3,0.5-1.6,0.5c-0.3,0-0.7-0.2-1.1-0.6c-1.5-1.6-3.1-2.7-4.8-3.4
				c4.3-1.3,7.7-2.9,10.2-4.6c2.2-1.5,3.9-3.4,5.3-5.6c1.2-1.9,2-4.1,2.5-6.5c0.4-2.1,0.7-4.8,0.8-8.1h-12.2v2.1
				c0,4.3,0.1,7.5,0.2,9.5c0,0.5-0.3,0.8-1,0.8c-0.7,0.1-1.5,0.1-2.4,0.1c-0.9,0-1.7,0-2.5-0.1c-0.7-0.1-1-0.3-1-0.7
				c0,0,0-0.1,0-0.1c0.2-3.2,0.3-6.4,0.3-9.4v-2.2H690c-3.3,0-6.5,0.1-9.5,0.3c-0.4,0-0.6-0.4-0.7-1.1c-0.1-0.6-0.2-2.4-0.4-5.5
				c2.7,0.2,6.2,0.3,10.5,0.3h1.7v-4.2c0-3-0.2-5.8-0.7-8.4c3.8,0.4,6.1,0.7,7,0.9c0.6,0.1,0.9,0.4,0.9,0.8c0,0.2-0.1,0.6-0.3,1.2
				c-0.3,0.7-0.4,2.5-0.4,5.5v4.2h12.3l0.1-5.6c0-0.3,0-0.7,0-1.2c0-2.7-0.2-5-0.5-6.7c3.5,0.4,5.8,0.7,6.7,1c0.7,0.1,1,0.5,1,0.9
				c0,0.3-0.1,0.6-0.3,1c-0.3,0.8-0.4,2.5-0.4,5V213.9z M718.9,201.5l3.1-1.4c0.1-0.1,0.2-0.1,0.3-0.1c0.2,0,0.3,0.1,0.5,0.3
				c1.7,1.8,3.2,4.1,4.4,6.9c0.1,0.1,0.1,0.2,0.1,0.3c0,0.2-0.1,0.4-0.4,0.5l-2.4,1.2c-0.2,0.1-0.3,0.1-0.4,0.1
				c-0.2,0-0.4-0.1-0.6-0.4C722.2,206,720.7,203.5,718.9,201.5z M724.4,198.9l3-1.3c0.1-0.1,0.2-0.1,0.3-0.1c0.1,0,0.3,0.1,0.5,0.3
				c1.9,2,3.4,4.3,4.4,6.7c0.1,0.1,0.1,0.3,0.1,0.4c0,0.2-0.1,0.4-0.4,0.6l-2.3,1.1c-0.1,0.1-0.3,0.1-0.4,0.1
				c-0.2,0-0.4-0.1-0.5-0.4C727.8,203.6,726.3,201.1,724.4,198.9z"/>
			<path class="st1" d="M768.5,216.6v19c0,3.4,0.1,7.3,0.2,11.9c0,0.1,0,0.1,0,0.2c0,0.5-0.3,0.8-0.9,0.8c-0.9,0.1-1.9,0.1-2.9,0.1
				c-1,0-1.9,0-2.9-0.1c-0.5,0-0.8-0.2-0.8-0.7c0,0,0-0.1,0-0.2c0-0.9,0.1-3,0.1-6.4c0.1-2.2,0.1-4,0.1-5.4v-13.4
				c-5.8,4.9-11,8.5-15.8,11c-0.3,0.1-0.6,0.2-0.9,0.2c-0.4,0-0.8-0.2-1.2-0.6c-1.1-1.1-2.7-2.2-4.9-3.4c6.8-3.5,12.8-7.4,18.1-11.8
				c4.7-3.8,8.7-7.8,12.2-12c1.7-2,2.9-3.9,3.6-5.9c3,1.7,5.1,3,6.4,4c0.3,0.2,0.4,0.5,0.4,0.8c0,0.5-0.3,0.9-0.8,1.3
				c-0.8,0.6-2,1.6-3.4,3.2C773.2,211.8,771,214.2,768.5,216.6z"/>
			<path class="st1" d="M798.3,210.6c1-1.2,2.3-2.7,4-4.5c0.2-0.3,0.5-0.4,0.8-0.4c0.2,0,0.4,0.1,0.8,0.3c3.6,1.9,7.2,4.6,11,8.2
				c0.3,0.3,0.5,0.6,0.5,0.8s-0.1,0.4-0.3,0.7c-1.3,1.7-2.4,3.1-3.6,4.3c-0.3,0.3-0.6,0.4-0.7,0.4c-0.2,0-0.4-0.1-0.7-0.4
				C806.5,216.4,802.6,213.2,798.3,210.6z M799.5,239.2c3.1-0.8,5.6-1.8,7.8-2.9c3.7-1.9,6.8-3.7,9.2-5.3c2.1-1.4,4.6-3.2,7.3-5.4
				c3.8-3.1,6.9-5.8,9.2-8.1c2.1-2.2,4.3-4.7,6.6-7.5c0.3,2.5,0.8,4.8,1.6,6.7c0.2,0.4,0.3,0.8,0.3,1.1c0,0.4-0.3,1-0.9,1.7
				c-3.3,3.9-7.7,8-13.2,12.2c-4.7,3.7-10.5,7.5-17.3,11.2c-2,1.2-3.3,2.1-3.8,2.7c-0.4,0.4-0.7,0.6-1,0.6s-0.6-0.2-1-0.6
				C802.3,243.6,800.8,241.5,799.5,239.2z"/>
			<path class="st1" d="M858.9,235.7l-7.2,0.1c-0.3,0-0.5,0-0.5-0.1s-0.1-0.2-0.1-0.5v-4.4c0-0.3,0-0.5,0.1-0.6s0.2-0.1,0.5-0.1
				l7.2,0.1H874c-0.1-2.1-0.2-3.8-0.3-4.9l3.3,0.3c1.7-1.1,3.5-2.5,5.2-4.1h-12.4l-7.4,0.1c-0.4,0-0.6-0.2-0.6-0.6v-4
				c0-0.3,0-0.5,0.1-0.5s0.2-0.1,0.5-0.1l7.4,0.1h15.5c0.7,0,1.2,0,1.4-0.1c0.4-0.1,0.6-0.2,0.7-0.2c0.4,0,1.2,0.6,2.5,1.8
				c1.1,1.1,1.6,1.9,1.6,2.5c0,0.4-0.2,0.8-0.7,0.9c-0.8,0.4-1.7,1-2.7,1.9c-2.7,2.3-5.4,4.3-8,5.9v0.9h14.3l7.2-0.1
				c0.3,0,0.5,0,0.6,0.1c0.1,0.1,0.1,0.3,0.1,0.5v4.4c0,0.3,0,0.5-0.1,0.5c-0.1,0.1-0.2,0.1-0.5,0.1l-7.2-0.1h-14.3v3.7l0.1,5
				c0,2.3-0.6,3.8-1.8,4.7c-0.8,0.5-1.9,0.8-3.2,1c-1.2,0.2-3.1,0.3-5.6,0.3c-0.9,0-1.5-0.1-1.7-0.2c-0.2-0.1-0.4-0.6-0.6-1.4
				c-0.4-1.6-1-3-1.7-4.2c2.3,0.2,4.3,0.3,6.1,0.3c0.9,0,1.5-0.1,1.8-0.4c0.3-0.3,0.4-0.8,0.4-1.5v-7.2H858.9z M859,200.2l3.4-1.3
				c0.3-0.1,0.5-0.2,0.6-0.2c0.2,0,0.4,0.1,0.6,0.4c1.5,1.9,2.8,3.9,3.8,6c0.1,0.2,0.2,0.4,0.2,0.5c0,0.1-0.2,0.3-0.7,0.4l-3.8,1.4
				h11.9c-0.8-2.5-1.9-4.9-3.3-7.2c-0.1-0.2-0.2-0.3-0.2-0.4c0-0.1,0.2-0.3,0.7-0.4l3.8-1.1c0.2-0.1,0.4-0.1,0.5-0.1
				c0.2,0,0.4,0.1,0.6,0.4c1.2,2,2.3,4.3,3.2,6.7c0.1,0.2,0.1,0.3,0.1,0.4c0,0.1-0.2,0.3-0.7,0.5l-3.7,1.3h8.9
				c0.8-1.4,1.8-3.4,2.8-5.8c0.3-0.9,0.6-1.9,0.9-3c2,0.4,3.9,1,5.7,1.7c0.5,0.2,0.8,0.5,0.8,0.9c0,0.3-0.2,0.6-0.6,0.9
				c-0.4,0.2-0.8,0.7-1.1,1.3c-0.8,1.5-1.6,2.8-2.4,4.1h1.5l7.6-0.1c0.3,0,0.5,0,0.6,0.1c0.1,0.1,0.1,0.2,0.1,0.5l-0.1,3.1v2.6
				l0.1,6.4c0,0.3,0,0.5-0.1,0.6c-0.1,0.1-0.3,0.1-0.6,0.1h-4.5c-0.3,0-0.5,0-0.6-0.1c-0.1-0.1-0.1-0.3-0.1-0.6v-7.6h-36.7v7.6
				c0,0.3,0,0.5-0.1,0.6c-0.1,0.1-0.2,0.1-0.5,0.1h-4.5c-0.3,0-0.5,0-0.6-0.1c-0.1-0.1-0.1-0.3-0.1-0.5l0.1-6.5v-2.1l-0.1-3.6
				c0-0.3,0-0.5,0.1-0.5c0.1-0.1,0.3-0.1,0.6-0.1l7.6,0.1h1.5c-0.9-2.2-2.1-4.4-3.7-6.4c-0.1-0.2-0.2-0.4-0.2-0.4
				C858.4,200.5,858.6,200.4,859,200.2z"/>
			<path class="st1" d="M926.1,214.1h-0.7c2.1,2.5,4.8,4.7,8.4,6.6c-0.7,0.9-1.4,1.8-1.8,2.9c-0.4,0.9-0.8,1.4-1,1.4
				c-0.2,0-0.6-0.3-1.3-0.8c-2.8-2.4-4.9-4.7-6.2-7c0,1.9,0.1,3.5,0.2,4.8c0,0.9,0.1,1.4,0.1,1.5c0,0.3,0,0.5-0.1,0.6
				c-0.1,0.1-0.3,0.1-0.5,0.1h-3.8c-0.3,0-0.5,0-0.5-0.1c-0.1-0.1-0.1-0.2-0.1-0.5c0-0.1,0-0.4,0.1-0.8c0.1-1.3,0.1-3,0.2-5
				c-1.8,2.6-4.3,5.1-7.5,7.5c-0.6,0.5-1.1,0.7-1.3,0.7c-0.3,0-0.6-0.4-1-1.1c-0.6-1.3-1.3-2.3-2.1-3.1c4.1-2,7.4-4.6,9.9-7.6h-1.1
				l-6.8,0.1c-0.4,0-0.6-0.2-0.6-0.6v-3.2c0-0.4,0.2-0.6,0.6-0.6l6.8,0.1h2.8v-4.4c0-2.5-0.1-4.8-0.4-6.9c1.7,0.1,3.5,0.2,5.4,0.4
				c0.6,0.1,0.9,0.2,0.9,0.6c0,0.2-0.1,0.5-0.2,0.8c-0.1,0.3-0.2,0.5-0.3,0.6c-0.1,0.7-0.2,2.2-0.2,4.6v4.4h2.4l6.8-0.1
				c0.3,0,0.5,0,0.5,0.1s0.1,0.2,0.1,0.5v3.2c0,0.3,0,0.5-0.1,0.5c-0.1,0.1-0.2,0.1-0.5,0.1L926.1,214.1z M915.3,234.8l-6.8,0.1
				c-0.3,0-0.5,0-0.5-0.1s-0.1-0.2-0.1-0.5v-3.6c0-0.3,0-0.5,0.1-0.6c0.1-0.1,0.2-0.1,0.5-0.1l6.8,0.1h2.6c0.1-1.1,0.1-1.9,0.1-2.5
				c0-0.8-0.1-1.7-0.2-2.4c2.6,0.2,4.3,0.4,5.1,0.5c0.7,0.1,1,0.3,1,0.7c0,0.1-0.1,0.5-0.3,0.9c-0.2,0.4-0.4,1.3-0.5,2.9h2.6
				l6.9-0.1c0.3,0,0.5,0,0.6,0.1c0.1,0.1,0.1,0.3,0.1,0.5v3.6c0,0.3,0,0.5-0.1,0.5c-0.1,0.1-0.3,0.1-0.6,0.1l-6.9-0.1h-1.4
				c1.9,3.2,4.7,5.6,8.5,7.3c-1.1,0.9-2,1.9-2.7,2.9c-0.6,0.8-1,1.3-1.3,1.3c-0.2,0-0.7-0.3-1.3-0.8c-2.6-1.9-4.7-4.3-6.2-7.1
				c-1.8,4.3-4.8,7.7-9,10.2c-0.6,0.3-1,0.5-1.2,0.5c-0.4,0-0.8-0.4-1.3-1.3c-0.7-1.1-1.7-2.1-2.8-3c5.3-2.1,8.7-5.6,10.1-10.2
				H915.3z M913.5,200.9c1.1,1.5,2.1,3.2,3.1,5.3c0.1,0.2,0.1,0.4,0.1,0.5c0,0.2-0.2,0.4-0.7,0.6l-2.7,1.3c-0.4,0.2-0.6,0.3-0.7,0.3
				c-0.1,0-0.3-0.1-0.4-0.4c-0.7-1.8-1.7-3.6-2.9-5.5c-0.2-0.3-0.3-0.5-0.3-0.6c0-0.2,0.2-0.4,0.6-0.6l2.7-1.2
				c0.2-0.1,0.4-0.2,0.5-0.2C913.1,200.5,913.3,200.7,913.5,200.9z M924.5,207.2c1-1.6,1.8-3.1,2.5-4.6c0.4-0.9,0.7-1.7,0.8-2.5
				c1.6,0.4,3,1,4.2,1.6c0.4,0.1,0.6,0.4,0.6,0.7c0,0.2-0.2,0.5-0.5,0.8c-0.2,0.2-0.5,0.5-0.8,1.1c-0.3,0.7-1,1.9-2,3.6
				c-0.4,0.7-0.8,1-1,1c-0.2,0-0.5-0.2-1.1-0.5C926.5,208,925.5,207.6,924.5,207.2z M940.1,239.9c1.4,0.7,2.7,1.6,3.9,2.5
				c0.4,0.3,0.6,0.6,0.6,0.9c0,0.3-0.2,0.5-0.7,0.7c-0.3,0.1-0.8,0.5-1.5,1c-2.2,1.9-4.7,3.6-7.7,5.2c-0.8,0.4-1.3,0.6-1.5,0.6
				c-0.4,0-0.8-0.5-1.4-1.4c-0.7-1.2-1.5-2.2-2.4-2.9c3.8-1.5,6.6-3,8.6-4.6C938.7,241.5,939.4,240.8,940.1,239.9z M941.6,205.8
				l-7.2,0.1c-0.3,0-0.5,0-0.6-0.1c-0.1-0.1-0.1-0.2-0.1-0.5v-4.2c0-0.3,0-0.5,0.1-0.5c0.1-0.1,0.2-0.1,0.5-0.1l7.2,0.1h10.7
				l7.2-0.1c0.4,0,0.6,0.2,0.6,0.6v4.2c0,0.4-0.2,0.6-0.6,0.6l-7.2-0.1h-2.9c-0.5,1.5-1.1,3-1.8,4.3h2.7l6.6-0.1
				c0.4,0,0.6,0.2,0.6,0.6l-0.1,6.7v15.2l0.1,6.6c0,0.3,0,0.5-0.1,0.6c-0.1,0.1-0.2,0.1-0.5,0.1l-6.6-0.1h-7.6l-6.5,0.1
				c-0.3,0-0.5,0-0.6-0.1c-0.1-0.1-0.1-0.3-0.1-0.6l0.1-6.6v-15l-0.1-6.9c0-0.3,0-0.4,0.1-0.5c0.1-0.1,0.3-0.1,0.6-0.1l5.7,0.1
				c0.5-1,1.1-2.5,1.7-4.3H941.6z M941,214.9v3.6h11v-3.6H941z M941,226.5h11v-3.8h-11V226.5z M952,234.9v-4.1h-11v4.1H952z
				 M961.2,246c-0.8,0.7-1.6,1.8-2.4,3.2c-0.5,0.9-0.9,1.3-1.3,1.3c-0.3,0-0.7-0.2-1.3-0.5c-3-1.7-5.8-3.8-8.3-6.2
				c-0.2-0.2-0.3-0.4-0.3-0.6s0.2-0.4,0.5-0.7l2.3-2.1c0.3-0.3,0.5-0.4,0.7-0.4c0.1,0,0.3,0.1,0.6,0.3
				C954.5,242.7,957.7,244.6,961.2,246z"/>
		</g>
		<g>
			<path class="st1" d="M50.2,470.2h14.9v-14.9h3.3v14.9h14.9v3.2H68.4v14.9h-3.3v-14.9H50.2V470.2z"/>
			<path class="st1" d="M105,466.8l-6.9,0.1c-0.3,0-0.5,0-0.5-0.1c-0.1-0.1-0.1-0.2-0.1-0.5v-4.5c0-0.3,0-0.5,0.1-0.5
				s0.2-0.1,0.5-0.1l6.9,0.1h12.5c0.1-1.5,0.2-4,0.3-7.4c0-0.4,0-0.8,0-1.3c0-1.8-0.1-3.5-0.3-5c2.9,0.1,5,0.2,6.3,0.4
				c0.7,0.1,1,0.4,1,0.8c0,0.3-0.1,0.7-0.3,1.1c-0.3,0.5-0.5,1.8-0.5,3.8c-0.1,3.4-0.2,5.9-0.3,7.5h14l6.9-0.1c0.3,0,0.5,0,0.5,0.1
				c0.1,0.1,0.1,0.2,0.1,0.5v4.5c0,0.3,0,0.5-0.1,0.6c-0.1,0.1-0.2,0.1-0.5,0.1l-6.9-0.1h-13c1.9,5.9,4.8,10.9,8.8,15.1
				c3.7,3.8,8,6.7,13,8.6c-1.3,1.2-2.3,2.6-3.2,4.1c-0.5,0.9-0.9,1.4-1.1,1.4c-0.2,0-0.6-0.2-1.3-0.6c-9.1-4.9-15.6-12.2-19.4-22
				c-0.5,1.8-1.2,3.5-2.1,5.2c-3.6,7.4-9.4,13.1-17.4,17c-0.7,0.3-1.1,0.4-1.3,0.4c-0.3,0-0.7-0.4-1.3-1.3c-0.8-1.2-1.8-2.3-3.1-3.4
				c8.3-3.2,14.2-8.2,17.7-15c1.4-2.7,2.3-6,2.9-9.6H105z"/>
			<path class="st1" d="M158.9,482.4l-6.8,0.1c-0.3,0-0.5,0-0.5-0.1c-0.1-0.1-0.1-0.2-0.1-0.5v-4.2c0-0.3,0-0.5,0.1-0.5
				c0.1-0.1,0.2-0.1,0.5-0.1l6.8,0.1h14.3c-0.1-2-0.2-3.6-0.3-4.6l3.2,0.3c1.6-1.1,3.3-2.4,4.9-3.9h-11.8l-7,0.1
				c-0.4,0-0.6-0.2-0.6-0.5v-3.8c0-0.3,0-0.5,0.1-0.5c0.1-0.1,0.2-0.1,0.5-0.1l7,0.1h14.8c0.7,0,1.1,0,1.3-0.1
				c0.4-0.1,0.6-0.2,0.7-0.2c0.4,0,1.1,0.6,2.4,1.7c1,1.1,1.5,1.8,1.5,2.3c0,0.4-0.2,0.7-0.7,0.9c-0.8,0.4-1.6,1-2.6,1.8
				c-2.6,2.2-5.1,4.1-7.6,5.6v0.9h13.6l6.8-0.1c0.3,0,0.5,0,0.5,0.1c0.1,0.1,0.1,0.2,0.1,0.5v4.2c0,0.3,0,0.4-0.1,0.5
				c-0.1,0.1-0.2,0.1-0.5,0.1l-6.8-0.1H179v3.5l0.1,4.7c0,2.2-0.6,3.7-1.7,4.5c-0.8,0.5-1.8,0.8-3,1c-1.2,0.2-3,0.2-5.3,0.2
				c-0.9,0-1.4-0.1-1.6-0.2c-0.2-0.1-0.3-0.6-0.6-1.4c-0.4-1.5-0.9-2.9-1.6-4c2.2,0.2,4.1,0.3,5.8,0.3c0.8,0,1.4-0.1,1.7-0.4
				c0.3-0.3,0.4-0.8,0.4-1.5v-6.8H158.9z M159.1,448.7l3.3-1.2c0.2-0.1,0.4-0.2,0.6-0.2c0.2,0,0.4,0.1,0.6,0.4
				c1.4,1.8,2.6,3.7,3.6,5.7c0.1,0.2,0.2,0.4,0.2,0.5c0,0.1-0.2,0.3-0.7,0.4l-3.6,1.3h11.3c-0.8-2.4-1.8-4.6-3.1-6.8
				c-0.1-0.2-0.2-0.3-0.2-0.4c0-0.1,0.2-0.3,0.7-0.4l3.6-1.1c0.2-0.1,0.4-0.1,0.5-0.1c0.2,0,0.4,0.1,0.6,0.4c1.2,1.9,2.2,4,3,6.3
				c0.1,0.2,0.1,0.3,0.1,0.4c0,0.1-0.2,0.3-0.7,0.5l-3.5,1.3h8.4c0.8-1.4,1.7-3.2,2.7-5.5c0.3-0.8,0.6-1.8,0.8-2.9
				c1.9,0.4,3.7,0.9,5.4,1.6c0.5,0.2,0.8,0.5,0.8,0.8c0,0.3-0.2,0.6-0.5,0.8c-0.4,0.2-0.7,0.6-1,1.3c-0.8,1.4-1.5,2.7-2.2,3.9h1.4
				l7.2-0.1c0.3,0,0.5,0,0.6,0.1c0.1,0.1,0.1,0.2,0.1,0.5l-0.1,3v2.5l0.1,6.1c0,0.3,0,0.5-0.1,0.6c-0.1,0.1-0.2,0.1-0.5,0.1h-4.3
				c-0.3,0-0.5,0-0.5-0.1c-0.1-0.1-0.1-0.2-0.1-0.5v-7.2h-34.9v7.2c0,0.3,0,0.5-0.1,0.5c-0.1,0.1-0.2,0.1-0.5,0.1h-4.3
				c-0.3,0-0.5,0-0.6-0.1c-0.1-0.1-0.1-0.2-0.1-0.5l0.1-6.1v-2l-0.1-3.4c0-0.3,0-0.5,0.1-0.5c0.1-0.1,0.2-0.1,0.5-0.1l7.2,0.1h1.5
				c-0.9-2.1-2-4.1-3.5-6.1c-0.1-0.2-0.2-0.3-0.2-0.4C158.5,449,158.7,448.8,159.1,448.7z"/>
			<path class="st1" d="M213.6,481.1c0.2,0,0.4,0,0.6,0c2.9,0,4.3-1.3,4.3-3.8c0-3.2-1.6-6.9-4.8-11c2.1-4.6,3.7-8.9,4.6-12.7h-5.5
				v30.8l0.1,11.7c0,0.4-0.2,0.6-0.6,0.6H208c-0.4,0-0.6-0.2-0.6-0.6l0.1-11.7v-23.6l-0.1-11.8c0-0.3,0-0.5,0.1-0.5
				c0.1-0.1,0.2-0.1,0.5-0.1l4.4,0.1h7.1c0.5,0,0.9-0.1,1.1-0.2c0.2-0.1,0.4-0.2,0.7-0.2c0.4,0,1.1,0.5,2.1,1.6
				c0.9,1,1.3,1.7,1.3,2.2c0,0.3-0.2,0.6-0.5,1c-0.5,0.4-0.8,1.1-1,2.1c-1,3.2-2.4,6.8-4.2,10.8c2.1,2.6,3.4,5,4.1,7.1
				c0.4,1.4,0.6,3.2,0.6,5.3c0,4.7-2.4,7.2-7.1,7.6c-0.4,0-0.7,0.1-0.8,0.1c-0.4,0-0.7-0.1-0.8-0.3c-0.1-0.2-0.2-0.6-0.2-1.3
				C214.5,483,214.2,481.9,213.6,481.1z M218,492.6c4.7-1.2,8-3.2,9.9-6.1c1.7-2.5,2.5-6.1,2.6-10.8c-1.7,0-3.1,0-4.4,0.1
				c0,0-0.4,0-1,0c-0.2,0-0.3,0-0.3,0c-0.3,0-0.5,0-0.5-0.1c-0.1-0.1-0.1-0.2-0.1-0.5v-3.9c0-0.3,0-0.5,0.1-0.6
				c0.1-0.1,0.2-0.1,0.5-0.1l7.2,0.1h14.5l7.3-0.1c0.3,0,0.5,0,0.5,0.1c0.1,0.1,0.1,0.3,0.1,0.6v3.9c0,0.3,0,0.4-0.1,0.5
				c-0.1,0.1-0.2,0.1-0.5,0.1l-7.3-0.1h-1.5v13.2c0,1,0.1,1.6,0.4,1.8c0.3,0.2,1,0.3,2.1,0.3c1.2,0,1.9-0.2,2.2-0.7
				c0.4-0.5,0.6-2.4,0.7-5.7c1.3,0.7,2.5,1.2,3.6,1.4c0.6,0.1,1,0.3,1.2,0.4c0.1,0.1,0.2,0.4,0.2,0.8c0,0.1,0,0.3,0,0.6
				c-0.1,2.3-0.4,4-0.9,5.1c-0.4,0.9-0.9,1.6-1.7,2c-1.2,0.8-3.4,1.3-6.5,1.3c-2.9,0-4.7-0.3-5.4-0.8c-1-0.7-1.6-2.2-1.6-4.4v-15.2
				H236c-0.1,5.8-1.3,10.3-3.4,13.6c-2,3.1-4.9,5.4-8.9,7.1c-0.7,0.3-1.1,0.4-1.3,0.4c-0.3,0-0.7-0.4-1.2-1.1
				C220.3,494.5,219.2,493.5,218,492.6z M242.9,466.4h-7.3l-5.8,0.1c-0.3,0-0.5,0-0.5-0.1c-0.1-0.1-0.1-0.2-0.1-0.5v-2.6h-4
				c-0.3,0-0.5,0-0.6-0.1c-0.1-0.1-0.1-0.2-0.1-0.5l0.1-5.1v-1.5l-0.1-2.7c0-0.2,0-0.4,0.1-0.5c0.1-0.1,0.2-0.1,0.5-0.1l7.3,0.1h3.3
				v-0.6c0-2.2-0.1-4-0.4-5.3c1.7,0,3.6,0.2,5.7,0.4c0.6,0.1,0.9,0.2,0.9,0.5c0,0.3-0.1,0.7-0.3,1c-0.2,0.5-0.3,1.6-0.3,3.2v0.7h4.6
				l7.3-0.1c0.3,0,0.5,0,0.6,0.1c0.1,0.1,0.1,0.2,0.1,0.4l-0.1,2.3v1.9l0.1,5.1c0,0.3,0,0.5-0.1,0.5c-0.1,0.1-0.2,0.1-0.5,0.1h-4
				v2.6c0,0.3,0,0.5-0.1,0.5c-0.1,0.1-0.2,0.1-0.5,0.1L242.9,466.4z M229.9,457.6v4l5.7,0.1h7.3c3.1,0,5,0,5.6-0.1v-4H229.9z"/>
			<path class="st1" d="M267.4,481.3l-6.7,0.1c-0.4,0-0.5-0.2-0.5-0.6v-3.3c0-0.4,0.2-0.6,0.5-0.6l6.7,0.1H282v-2.6h-9l-7.4,0.1
				c-0.4,0-0.6-0.2-0.6-0.5v-3c0-0.3,0-0.5,0.1-0.5c0.1-0.1,0.2-0.1,0.5-0.1l7.4,0.1h9v-2.4h-7l-7.6,0.1c-0.3,0-0.5,0-0.6-0.1
				c-0.1-0.1-0.1-0.2-0.1-0.5l0.1-2.8v-2.9l-0.1-2.8c0-0.3,0-0.5,0.1-0.6c0.1-0.1,0.3-0.1,0.6-0.1l7.6,0.1h7v-2.4h-13.7l-6.9,0.1
				c-0.3,0-0.5,0-0.5-0.1c-0.1-0.1-0.1-0.2-0.1-0.5v-3.5c0-0.3,0-0.5,0.1-0.5c0.1-0.1,0.2-0.1,0.5-0.1l6.9,0.1H282
				c0-1.9-0.1-3.6-0.4-5c2.4,0.1,4.3,0.2,5.7,0.3c0.6,0.1,0.9,0.3,0.9,0.6c0,0.3-0.1,0.6-0.3,1c-0.2,0.6-0.3,1.6-0.3,3.1h13.8
				l6.9-0.1c0.3,0,0.5,0,0.5,0.1c0.1,0.1,0.1,0.2,0.1,0.5v3.5c0,0.3,0,0.5-0.1,0.5c-0.1,0.1-0.2,0.1-0.5,0.1l-6.9-0.1h-13.8v2.4h7.2
				l7.6-0.1c0.3,0,0.5,0,0.5,0.1c0.1,0.1,0.1,0.2,0.1,0.5l-0.1,2.8v2.9l0.1,2.8c0,0.3,0,0.5-0.1,0.6c-0.1,0.1-0.2,0.1-0.5,0.1
				l-7.6-0.1h-7.2v2.4h8.8l7.5-0.1c0.3,0,0.5,0,0.5,0.1c0.1,0.1,0.1,0.2,0.1,0.5l-0.1,4.7v1.3l4.7-0.1c0.4,0,0.6,0.2,0.6,0.6v3.3
				c0,0.4-0.2,0.6-0.6,0.6l-1.4,0c-1,0-2.1-0.1-3.3-0.1v2.8l0.1,5c0,0.3,0,0.5-0.1,0.5s-0.2,0.1-0.5,0.1h-4.2c-0.3,0-0.5,0-0.5-0.1
				c-0.1-0.1-0.1-0.2-0.1-0.5v-1.2h-11.5c0,0.7,0.1,1.6,0.1,2.7c0,2.5-0.7,4.1-2,4.9c-1.3,0.7-3.9,1.1-7.7,1.2
				c-0.9,0-1.4-0.1-1.6-0.3c-0.1-0.1-0.3-0.6-0.6-1.3c-0.6-1.6-1.3-2.9-2.1-4.1c1.5,0.2,2.8,0.2,4.1,0.2c0.4,0,0.8,0,1.4,0
				c1.2,0,2-0.2,2.4-0.5c0.3-0.2,0.5-0.8,0.5-1.5v-1.3H273l-7.4,0.1c-0.3,0-0.5,0-0.5-0.1c-0.1-0.1-0.1-0.2-0.1-0.5v-2.9
				c0-0.3,0-0.5,0.1-0.6c0.1-0.1,0.2-0.1,0.5-0.1l7.4,0.1h8.9v-2.6H267.4z M272.1,464.6h9.8v-2.7h-9.8V464.6z M297.6,464.6v-2.7
				h-10.1v2.7H297.6z M299,474.5h-11.5v2.6H299V474.5z M287.5,483.8H299v-2.6h-11.5V483.8z"/>
			<path class="st1" d="M322.6,483.4l-6.9,0.1c-0.3,0-0.5,0-0.6-0.1c-0.1-0.1-0.1-0.2-0.1-0.5v-3.2c0-0.3,0-0.5,0.1-0.6
				c0.1-0.1,0.2-0.1,0.5-0.1l6.9,0.1H336v-2.9h-7.7l-7.5,0.1c-0.3,0-0.4,0-0.5-0.1c0-0.1-0.1-0.2-0.1-0.5v-3.1c0-0.3,0-0.5,0.1-0.6
				s0.2-0.1,0.5-0.1l7.5,0.1h7.7v-2.9h-10.2l-7.3,0.1c-0.3,0-0.5,0-0.6-0.1c-0.1-0.1-0.1-0.2-0.1-0.4v-3.2c0-0.3,0-0.5,0.1-0.5
				c0.1-0.1,0.2-0.1,0.5-0.1l7.3,0.1h3.3c-0.6-1.3-1.2-2.5-1.7-3.4c-0.1-0.2-0.2-0.4-0.2-0.5c0-0.2,0.2-0.3,0.6-0.4l3.5-1h-8.7
				l-6.9,0.1c-0.3,0-0.5,0-0.6-0.1c-0.1-0.1-0.1-0.2-0.1-0.5v-3.4c0-0.3,0-0.5,0.1-0.6c0.1-0.1,0.2-0.1,0.5-0.1l6.9,0.1h0.4
				c-0.7-1.4-1.7-2.9-3.1-4.7c-0.1-0.1-0.2-0.3-0.2-0.4c0-0.2,0.2-0.3,0.6-0.6l3.1-1.5c0.2-0.1,0.4-0.2,0.5-0.2
				c0.2,0,0.3,0.1,0.5,0.4c1.6,1.9,2.8,3.7,3.7,5.3c0.1,0.2,0.2,0.3,0.2,0.4c0,0.1-0.2,0.3-0.6,0.5l-1.3,0.6h5.1v-3.6
				c0-2.1-0.1-3.7-0.3-4.7c2.2,0.1,4,0.2,5.3,0.3c0.4,0.1,0.7,0.2,0.7,0.5c0,0.2-0.1,0.5-0.2,0.9c-0.2,0.5-0.3,1.5-0.3,3v3.6h4.4
				v-3.5c0-2.2-0.1-3.8-0.3-4.8c2.3,0.1,4.1,0.2,5.2,0.4c0.5,0.1,0.7,0.2,0.7,0.5c0,0.2-0.1,0.5-0.2,0.9c-0.2,0.5-0.3,1.5-0.3,3v3.6
				h3.4c0.9-1.5,1.8-2.9,2.5-4.5c0.5-1,0.8-1.9,0.9-2.9c1.7,0.3,3.5,0.8,5.3,1.4c0.5,0.2,0.7,0.4,0.7,0.7c0,0.3-0.2,0.6-0.5,0.9
				c-0.3,0.3-0.6,0.6-0.9,1c-0.5,0.7-1.2,1.8-2.2,3.3h0.8l6.9-0.1c0.3,0,0.5,0,0.5,0.1c0.1,0.1,0.1,0.2,0.1,0.5v3.4
				c0,0.3,0,0.5-0.1,0.5c-0.1,0.1-0.2,0.1-0.5,0.1l-6.9-0.1h-9.5c1.5,0.3,2.9,0.6,4.3,1c0.5,0.1,0.7,0.3,0.7,0.7
				c0,0.3-0.2,0.6-0.6,0.8c-0.1,0.1-0.4,0.5-0.7,1.1l-1,1.8h3.5l7.3-0.1c0.3,0,0.5,0,0.5,0.1s0.1,0.2,0.1,0.5v3.2
				c0,0.4-0.2,0.5-0.6,0.5l-7.3-0.1h-11v2.9h8.7l7.5-0.1c0.3,0,0.5,0,0.5,0.1c0.1,0.1,0.1,0.2,0.1,0.5v3.1c0,0.3,0,0.5-0.1,0.5
				c-0.1,0.1-0.2,0.1-0.5,0.1l-7.5-0.1h-8.7v2.9h14.3l6.9-0.1c0.3,0,0.5,0,0.5,0.1c0.1,0.1,0.1,0.2,0.1,0.5v3.2c0,0.3,0,0.4-0.1,0.5
				c-0.1,0.1-0.2,0.1-0.5,0.1l-6.9-0.1h-9.7c4.2,3,10.3,5.3,18.1,7.1c-0.9,1-1.6,2.2-2.1,3.5c-0.4,0.9-0.8,1.4-1.2,1.4
				c-0.2,0-0.6-0.1-1.3-0.3c-7.3-2.1-13.4-5.4-18.3-9.8l0.3,10.8c0,0.3,0,0.5-0.1,0.5c-0.1,0.1-0.2,0.1-0.5,0.1h-4.6
				c-0.4,0-0.6-0.2-0.6-0.6c0-0.2,0-0.7,0.1-1.7c0.1-2.9,0.1-5.9,0.2-8.9c-4.3,4.1-10.2,7.4-17.5,9.8c-0.6,0.2-1,0.3-1.3,0.3
				c-0.4,0-0.8-0.5-1.2-1.4c-0.7-1.5-1.5-2.6-2.2-3.3c7.4-1.9,13.2-4.4,17.4-7.6H322.6z M345.1,461.9c0.2-0.4,0.4-1.1,0.6-2.2h-13.9
				c0.1,0,0.2,0.2,0.4,0.4c1,1.6,1.8,3.3,2.4,4.9h8.9C344.1,464.1,344.6,463.1,345.1,461.9z"/>
			<path class="st1" d="M374.5,462.6l-4.8,0.1c-0.3,0-0.5,0-0.5-0.1c-0.1-0.1-0.1-0.2-0.1-0.5v-3.9c0-0.3,0-0.5,0.1-0.5
				s0.2-0.1,0.5-0.1l4.8,0.1h1v-3.5c0-3.2-0.2-5.6-0.5-7.3c2,0.1,3.8,0.2,5.2,0.4c0.6,0.1,0.9,0.3,0.9,0.6c0,0.3-0.1,0.7-0.3,1.1
				c-0.3,0.6-0.4,2.3-0.4,5.1v3.6l3.9-0.1c0.3,0,0.4,0,0.5,0.1c0,0.1,0.1,0.2,0.1,0.5v3.9c0,0.3,0,0.5-0.1,0.5s-0.2,0.1-0.5,0.1
				c0,0-0.4,0-1.2,0c-0.8,0-1.7-0.1-2.7-0.1c1.4,3.8,3.3,7.3,5.8,10.5c-0.7,1-1.4,2.2-2,3.6c-0.2,0.6-0.4,0.9-0.7,0.9
				c-0.2,0-0.4-0.3-0.7-0.9c-1.1-2-2-4.3-2.7-6.7c0,6.1,0.1,12.4,0.2,19c0,1.5,0.1,3.4,0.1,5.5c0,1,0,1.6,0,1.7c0,0.3,0,0.5-0.1,0.5
				c-0.1,0.1-0.2,0.1-0.5,0.1h-4.3c-0.3,0-0.5,0-0.6-0.1c-0.1-0.1-0.1-0.2-0.1-0.5c0-0.1,0-1.3,0.1-3.7c0.2-7.1,0.3-13.6,0.3-19.8
				c-1.1,4.1-2.6,7.8-4.6,11.1c-0.4,0.6-0.6,0.9-0.8,0.9c-0.2,0-0.4-0.3-0.5-0.9c-0.5-1.7-1.2-3.1-1.9-4c3.6-5.2,6.1-10.9,7.5-17.1
				H374.5z M407.5,491.8c0.7,0,1.2-0.1,1.4-0.4c0.2-0.2,0.3-0.6,0.3-1.1v-3H392v2.8l0.1,6c0,0.3,0,0.5-0.1,0.5
				c-0.1,0.1-0.2,0.1-0.5,0.1h-4.1c-0.3,0-0.5,0-0.5-0.1c-0.1-0.1-0.1-0.2-0.1-0.5l0.1-5.9v-2.8l-3.1,0.1c-0.3,0-0.5,0-0.5-0.1
				c-0.1-0.1-0.1-0.2-0.1-0.5V484c0-0.3,0-0.5,0.1-0.5c0.1-0.1,0.2-0.1,0.5-0.1c0,0,0.4,0,1,0c0.7,0,1.3,0.1,2.1,0.1v-6.1l-0.1-6.1
				c0-0.3,0-0.5,0.1-0.5c0.1-0.1,0.2-0.1,0.5-0.1l7,0.1h3.5v-2.7h-5.5l-7.4,0.1c-0.3,0-0.5,0-0.5-0.1s-0.1-0.2-0.1-0.5v-2.9
				c0-0.3,0-0.5,0.1-0.5s0.2-0.1,0.5-0.1l7.4,0.1v-2.7c-1.4,0-2.7,0-3.9,0.1c-0.7,0-1.1,0-1.2,0c-0.3,0-0.5,0-0.5-0.1
				c-0.1-0.1-0.1-0.2-0.1-0.5v-2.6c0-0.3,0-0.5,0.1-0.5c0.1-0.1,0.2-0.1,0.5-0.1l5,0.1v-2.7c-1.8,0-3.5,0-4.9,0.1
				c-0.9,0-1.4,0-1.4,0c-0.3,0-0.5,0-0.5-0.1c-0.1-0.1-0.1-0.2-0.1-0.5V452c0-0.3,0-0.5,0.1-0.6c0.1-0.1,0.2-0.1,0.5-0.1l6.3,0.1
				c0-2.1-0.1-3.5-0.3-4.4c2.5,0.2,4.2,0.3,5.1,0.4c0.5,0.1,0.8,0.2,0.8,0.5c0,0.2-0.1,0.6-0.3,1c-0.2,0.4-0.3,1.3-0.3,2.6h6.4
				c0-2.1-0.1-3.5-0.3-4.4c2.3,0.1,4,0.3,5,0.4c0.6,0.1,0.9,0.2,0.9,0.5c0,0.3-0.1,0.6-0.3,1c-0.2,0.4-0.3,1.3-0.3,2.6h0.9l7.4-0.1
				c0.3,0,0.4,0,0.5,0.1c0.1,0.1,0.1,0.2,0.1,0.5v2.7c0,0.3,0,0.5-0.1,0.6c-0.1,0.1-0.2,0.1-0.5,0.1l-7.4-0.1h-0.9v2.7l6.6-0.1
				c0.3,0,0.5,0,0.5,0.1c0.1,0.1,0.1,0.2,0.1,0.5v2.6c0,0.3,0,0.5-0.1,0.5s-0.2,0.1-0.5,0.1l-6.6-0.1v2.7h1.8l7.3-0.1
				c0.3,0,0.5,0,0.5,0.1c0.1,0.1,0.1,0.2,0.1,0.5v2.9c0,0.3,0,0.5-0.1,0.5c-0.1,0.1-0.2,0.1-0.5,0.1l-7.4-0.1h-7.6v2.7h4l7.1-0.1
				c0.3,0,0.5,0,0.5,0.1s0.1,0.2,0.1,0.5l-0.1,6.6v5.6c0.9,0,1.8,0,2.6-0.1c0.5,0,0.8,0,0.9,0c0.3,0,0.5,0,0.5,0.1
				c0.1,0.1,0.1,0.2,0.1,0.5v2.9c0,0.3,0,0.4-0.1,0.5c-0.1,0.1-0.2,0.1-0.5,0.1l-3.4-0.1l0.1,3.3c0,2.2-0.4,3.7-1.2,4.4
				c-0.5,0.5-1.3,0.8-2.3,1c-0.9,0.2-2.4,0.2-4.4,0.3c-0.9,0-1.4-0.1-1.6-0.3c-0.1-0.1-0.3-0.6-0.5-1.4c-0.3-1.2-0.7-2.2-1.2-3
				C404.8,491.8,406.2,491.8,407.5,491.8z M392,477.2h5.9v-2.8H392V477.2z M392,483.5h5.9v-3H392V483.5z M397.3,457.9h6.4v-2.7h-6.4
				V457.9z M397.3,464.2h6.4v-2.7h-6.4V464.2z M409.2,474.5h-6.4v2.8h6.4V474.5z M402.8,483.5h6.4v-3h-6.4V483.5z"/>
			<path class="st1" d="M433.5,447c2.2,0.1,4,0.2,5.3,0.3c0.5,0.1,0.7,0.2,0.7,0.6c0,0-0.1,0.3-0.2,0.9c-0.2,0.6-0.3,1.6-0.3,3.1
				v2.4h0.7l6-0.1c0.3,0,0.5,0,0.6,0.1c0.1,0.1,0.1,0.2,0.1,0.5v3.9c0,0.3,0,0.5-0.1,0.5c-0.1,0.1-0.2,0.1-0.5,0.1l-6-0.1h-0.1
				c2.2,3.4,4.7,6,7.5,7.9c-0.8,1.1-1.4,2.1-1.9,3.2c-0.3,0.8-0.6,1.1-0.9,1.1c-0.2,0-0.6-0.3-1.1-0.8c-1.8-1.9-3.3-3.9-4.5-6
				c0,2.7,0.1,5.7,0.2,9c0.1,2.3,0.1,3.6,0.1,3.8c0,0.3,0,0.5-0.1,0.6c-0.1,0.1-0.2,0.1-0.5,0.1h-4.1c-0.3,0-0.5,0-0.5-0.1
				s-0.1-0.2-0.1-0.5c0-0.2,0-0.9,0.1-2.1c0.1-3.6,0.1-6.8,0.2-9.7c-1.5,2.9-3.7,5.7-6.5,8.3c-0.5,0.4-0.9,0.7-1.1,0.7
				c-0.3,0-0.7-0.4-1.1-1.2c-0.7-1.3-1.5-2.4-2.3-3.2c4.4-3,7.7-6.7,10.1-11h-1.8l-6.1,0.1c-0.3,0-0.5,0-0.5-0.1
				c-0.1-0.1-0.1-0.2-0.1-0.5v-3.9c0-0.3,0-0.5,0.1-0.5c0.1-0.1,0.2-0.1,0.5-0.1l6.1,0.1h2.7v-2.3
				C433.8,449.8,433.7,448.1,433.5,447z M428.7,480.6c0.1-0.3,0.2-0.5,0.3-0.5c0.1,0,0.3,0.1,0.6,0.2l3.4,1.3
				c0.4,0.2,0.7,0.4,0.7,0.6c0,0.1,0,0.2-0.1,0.4c-1.2,4-2.8,7.6-4.9,10.9c-0.1,0.2-0.3,0.4-0.4,0.4c-0.2,0-0.4-0.1-0.7-0.3
				l-3.3-2.2c-0.4-0.3-0.6-0.5-0.6-0.6c0-0.1,0.1-0.3,0.2-0.5C426.1,487.6,427.6,484.4,428.7,480.6z M456.6,485.2
				c1.2,0.7,2.6,1.3,4.1,1.6c0.8,0.2,1.3,0.5,1.3,0.9c0,0.2,0,0.5-0.1,1c-0.3,1.8-0.7,3.2-1.2,4.1c-0.4,0.7-1,1.3-1.8,1.8
				c-1,0.6-2.4,1-4.2,1.1c-1.4,0.1-3.5,0.2-6.3,0.2c-4.9,0-7.9-0.4-9.1-1.2c-1.2-0.9-1.9-2.4-1.9-4.6v-6.1c0-1.5-0.1-3-0.3-4.5
				c1.9,0,3.8,0.1,5.5,0.3c0.7,0.1,1,0.3,1,0.6c0,0.2-0.1,0.5-0.2,0.9c-0.2,0.6-0.4,1.4-0.4,2.4v4.6c0,1.1,0.3,1.8,0.8,2.1
				c0.7,0.4,2.4,0.6,5.1,0.6c3.5,0,5.6-0.3,6.5-0.8C456.1,489.4,456.5,487.8,456.6,485.2z M462.8,449.3l6-0.1c0.3,0,0.5,0,0.5,0.1
				c0.1,0.1,0.1,0.2,0.1,0.5l-0.1,6.4v14.4l0.1,6.4c0,0.3,0,0.5-0.1,0.6s-0.2,0.1-0.5,0.1l-6-0.1h-7.7l-5,0.1c2.1,2,3.9,4.1,5.3,6.1
				c0.1,0.2,0.2,0.3,0.2,0.4c0,0.2-0.2,0.3-0.5,0.6l-3.2,2c-0.3,0.2-0.6,0.3-0.7,0.3c-0.1,0-0.3-0.1-0.4-0.4
				c-1.6-2.9-3.4-5.2-5.5-7.1c-0.1-0.2-0.2-0.3-0.2-0.4c0-0.2,0.2-0.3,0.5-0.5l2.9-1.7l0.1-6.3v-14.4l-0.1-6.4c0-0.3,0-0.5,0.1-0.5
				c0.1-0.1,0.2-0.1,0.5-0.1l6,0.1H462.8z M453.7,453.8v3.7h10.5v-3.7H453.7z M453.7,465.1h10.5v-3.6h-10.5V465.1z M464.2,473v-3.8
				h-10.5v3.8H464.2z M466.8,479.9c2.5,3.2,4.5,6.4,5.9,9.8c0.1,0.1,0.1,0.2,0.1,0.3c0,0.2-0.2,0.4-0.6,0.6l-3.6,2.1
				c-0.3,0.2-0.5,0.3-0.7,0.3c-0.2,0-0.3-0.2-0.4-0.5c-1.2-3.5-3.1-6.9-5.6-10.2c-0.2-0.2-0.2-0.3-0.2-0.5c0-0.1,0.2-0.3,0.6-0.5
				l3.4-1.7c0.3-0.1,0.5-0.2,0.6-0.2C466.4,479.5,466.6,479.6,466.8,479.9z"/>
			<path class="st1" d="M485.8,482.4l-6.8,0.1c-0.3,0-0.5,0-0.5-0.1c-0.1-0.1-0.1-0.2-0.1-0.5v-4.2c0-0.3,0-0.5,0.1-0.5
				c0.1-0.1,0.2-0.1,0.5-0.1l6.8,0.1h14.3c-0.1-2-0.2-3.6-0.3-4.6l3.2,0.3c1.6-1.1,3.3-2.4,4.9-3.9h-11.8l-7,0.1
				c-0.4,0-0.6-0.2-0.6-0.5v-3.8c0-0.3,0-0.5,0.1-0.5s0.2-0.1,0.5-0.1l7,0.1h14.8c0.7,0,1.1,0,1.3-0.1c0.4-0.1,0.6-0.2,0.7-0.2
				c0.4,0,1.1,0.6,2.4,1.7c1,1.1,1.5,1.8,1.5,2.3c0,0.4-0.2,0.7-0.7,0.9c-0.8,0.4-1.6,1-2.6,1.8c-2.6,2.2-5.1,4.1-7.6,5.6v0.9h13.6
				l6.8-0.1c0.3,0,0.5,0,0.5,0.1c0.1,0.1,0.1,0.2,0.1,0.5v4.2c0,0.3,0,0.4-0.1,0.5c-0.1,0.1-0.2,0.1-0.5,0.1l-6.8-0.1h-13.6v3.5
				l0.1,4.7c0,2.2-0.6,3.7-1.7,4.5c-0.8,0.5-1.8,0.8-3,1c-1.2,0.2-3,0.2-5.3,0.2c-0.9,0-1.4-0.1-1.6-0.2c-0.2-0.1-0.3-0.6-0.6-1.4
				c-0.4-1.5-0.9-2.9-1.6-4c2.2,0.2,4.1,0.3,5.8,0.3c0.8,0,1.4-0.1,1.7-0.4c0.3-0.3,0.4-0.8,0.4-1.5v-6.8H485.8z M485.9,448.7
				l3.3-1.2c0.2-0.1,0.4-0.2,0.6-0.2c0.2,0,0.4,0.1,0.6,0.4c1.4,1.8,2.6,3.7,3.6,5.7c0.1,0.2,0.2,0.4,0.2,0.5c0,0.1-0.2,0.3-0.7,0.4
				l-3.6,1.3h11.3c-0.8-2.4-1.8-4.6-3.1-6.8c-0.1-0.2-0.2-0.3-0.2-0.4c0-0.1,0.2-0.3,0.7-0.4l3.6-1.1c0.2-0.1,0.4-0.1,0.5-0.1
				c0.2,0,0.4,0.1,0.6,0.4c1.2,1.9,2.2,4,3,6.3c0.1,0.2,0.1,0.3,0.1,0.4c0,0.1-0.2,0.3-0.7,0.5l-3.5,1.3h8.4
				c0.8-1.4,1.7-3.2,2.7-5.5c0.3-0.8,0.6-1.8,0.8-2.9c1.9,0.4,3.7,0.9,5.4,1.6c0.5,0.2,0.8,0.5,0.8,0.8c0,0.3-0.2,0.6-0.5,0.8
				c-0.4,0.2-0.7,0.6-1,1.3c-0.8,1.4-1.5,2.7-2.2,3.9h1.4l7.2-0.1c0.3,0,0.5,0,0.6,0.1c0.1,0.1,0.1,0.2,0.1,0.5l-0.1,3v2.5l0.1,6.1
				c0,0.3,0,0.5-0.1,0.6c-0.1,0.1-0.2,0.1-0.5,0.1h-4.3c-0.3,0-0.5,0-0.5-0.1c-0.1-0.1-0.1-0.2-0.1-0.5v-7.2h-34.9v7.2
				c0,0.3,0,0.5-0.1,0.5c-0.1,0.1-0.2,0.1-0.5,0.1h-4.3c-0.3,0-0.5,0-0.6-0.1c-0.1-0.1-0.1-0.2-0.1-0.5l0.1-6.1v-2l-0.1-3.4
				c0-0.3,0-0.5,0.1-0.5c0.1-0.1,0.2-0.1,0.5-0.1l7.2,0.1h1.5c-0.9-2.1-2-4.1-3.5-6.1c-0.1-0.2-0.2-0.3-0.2-0.4
				C485.3,449,485.5,448.8,485.9,448.7z"/>
			<path class="st1" d="M545.6,455.4h-1.1c-0.7,4-1.7,7.7-3.2,11.3h5.2l3.9-0.1c0.3,0,0.5,0,0.5,0.1c0.1,0.1,0.1,0.2,0.1,0.5
				l-0.1,7.3v5.5l0.1,9.7c0,0.3,0,0.5-0.1,0.5c-0.1,0.1-0.2,0.1-0.5,0.1h-3.6c-0.3,0-0.5,0-0.5-0.1c-0.1-0.1-0.1-0.3-0.1-0.5v-1.3
				h-4.7v4.6c0,0.3,0,0.5-0.1,0.5c-0.1,0.1-0.3,0.1-0.6,0.1h-3.6c-0.3,0-0.5,0-0.6-0.1c-0.1-0.1-0.1-0.2-0.1-0.5l0.1-9.8v-7.5
				c-0.7,1-1.5,2.1-2.4,3.2c-0.4,0.5-0.7,0.8-1,0.8c-0.3,0-0.5-0.3-0.6-1c-0.2-1.6-0.7-3.2-1.4-4.7c4.1-4.6,6.8-10.7,8-18.4H539
				l-5.6,0.1c-0.3,0-0.5,0-0.5-0.1c-0.1-0.1-0.1-0.2-0.1-0.5v-4c0-0.3,0-0.5,0.1-0.5c0.1-0.1,0.2-0.1,0.5-0.1l5.6,0.1h6.7l5.6-0.1
				c0.3,0,0.5,0,0.5,0.1c0.1,0.1,0.1,0.2,0.1,0.5v4c0,0.3,0,0.5-0.1,0.5c-0.1,0.1-0.2,0.1-0.5,0.1L545.6,455.4z M546.3,471.5h-4.7
				v12.1h4.7V471.5z M549.2,493.3c3.6-2.4,6.1-5.6,7.5-9.4c1-2.7,1.6-6.4,1.8-11.1c-1.4,0-2.7,0-3.9,0.1c-0.8,0-1.2,0-1.2,0
				c-0.3,0-0.5,0-0.5-0.1s-0.1-0.2-0.1-0.5v-4.1c0-0.3,0-0.5,0.1-0.6c0.1-0.1,0.2-0.1,0.5-0.1l5.2,0.1v-13.2c-1.1,0-2.2,0-3.1,0.1
				c-0.6,0-1,0-1,0c-0.4,0-0.5-0.2-0.5-0.5v-4c0-0.4,0.2-0.6,0.5-0.6l6.9,0.1h12l6.9-0.1c0.3,0,0.5,0,0.5,0.1
				c0.1,0.1,0.1,0.2,0.1,0.5v4c0,0.4-0.2,0.5-0.6,0.5c-0.1,0-0.3,0-0.6,0c-1.2,0-2.5-0.1-4-0.1v13.2l5.9-0.1c0.3,0,0.5,0,0.5,0.1
				c0.1,0.1,0.1,0.2,0.1,0.5v4.1c0,0.3,0,0.4-0.1,0.5c-0.1,0.1-0.2,0.1-0.5,0.1c-0.1,0-0.3,0-0.8,0c-1.5,0-3.3-0.1-5.2-0.1v15.6
				l0.1,7.4c0,0.3,0,0.5-0.1,0.5c-0.1,0.1-0.2,0.1-0.5,0.1h-4.5c-0.4,0-0.5-0.2-0.5-0.6l0.1-7.4v-15.6h-6.3
				c-0.2,5.2-0.8,9.2-1.8,12.1c-1.3,4.1-3.7,7.8-7.1,10.9c-0.5,0.6-0.9,0.9-1.1,0.9c-0.2,0-0.6-0.3-1.3-1
				C551.7,494.7,550.5,493.9,549.2,493.3z M564.2,467.7h6.1v-13.2h-6.1V467.7z"/>
			<path class="st1" d="M587.3,492c5.5-1.4,9.6-3.2,12.3-5.3c2.4-1.9,4.1-4.4,5-7.4l-5.9,0.1c-3.6,0.1-6,0.1-7.2,0.2
				c-0.3,0-0.5,0-0.6-0.1c-0.1-0.1-0.1-0.2-0.1-0.5l-0.1-4.1c0-0.2,0-0.4,0.1-0.5c0.1-0.1,0.2-0.1,0.5-0.1l4.1,0.1c0.9,0,2,0,3.1,0
				l6.8-0.1c0.1-0.8,0.1-1.5,0.1-2.1c0-2-0.1-3.5-0.3-4.5c2.2,0.1,4.1,0.3,5.7,0.5c0.7,0.1,1.1,0.4,1.1,0.7c0,0.3-0.1,0.6-0.4,1
				c-0.2,0.3-0.4,1.3-0.5,2.7l-0.1,1.5l4.2-0.1c2.2,0,4.3-0.1,6.2-0.1c1.1,0,1.6,0,1.7,0c0.4,0,0.6,0.2,0.6,0.6
				c-0.1,1-0.1,2.8-0.2,5.3l-0.2,8c0,0.2,0,0.3,0,0.5c0,0.8,0.2,1.3,0.5,1.6c0.4,0.4,1.6,0.6,3.4,0.6c1.8,0,3-0.4,3.4-1.2
				c0.4-0.9,0.6-2.7,0.7-5.5c1.2,0.7,2.5,1.1,4,1.5c0.6,0.2,0.9,0.3,1.1,0.4c0.1,0.1,0.2,0.3,0.2,0.7c0,0.1,0,0.5-0.1,1
				c-0.3,3.5-1.1,5.8-2.3,6.8c-1.4,1.1-3.9,1.7-7.5,1.7c-4.1,0-6.7-0.4-7.7-1.3c-1.1-0.9-1.6-2.4-1.5-4.7l0.4-11l-7.6,0.1
				c-1,4.4-3.1,8.1-6.3,10.9c-2.7,2.4-6.6,4.5-11.6,6.3c-0.6,0.2-1,0.3-1.2,0.3s-0.4-0.1-0.6-0.3c0,0-0.2-0.4-0.6-1
				C589.5,494.2,588.6,493.1,587.3,492z M625.8,460.8c1,0.5,2.1,0.9,3.4,1.2V457h-35.4v6.2c0,0.3,0,0.5-0.1,0.5s-0.2,0.1-0.5,0.1
				h-4.4c-0.3,0-0.5,0-0.5-0.1c-0.1-0.1-0.1-0.2-0.1-0.5l0.1-5.7v-1.8l-0.1-3c0-0.3,0-0.5,0.1-0.5c0.1-0.1,0.2-0.1,0.5-0.1l7.1,0.1
				h12.3v-1.6c0-1.2-0.1-2.4-0.4-3.5c2.1,0.1,4,0.2,5.8,0.3c0.6,0.1,0.9,0.2,0.9,0.5c0,0.2-0.1,0.6-0.4,1c-0.2,0.4-0.3,1-0.3,1.8
				v1.5h13.2l7.1-0.1c0.3,0,0.5,0,0.5,0.1c0.1,0.1,0.1,0.2,0.1,0.5l-0.1,2.6v2.2l0.1,5.7c0,0.3,0,0.5-0.1,0.5s-0.2,0.1-0.5,0.1h-3.4
				c-0.2,2.6-1,4.3-2.4,5.1c-1.5,0.9-3.9,1.3-7.2,1.3c-3.6,0-6-0.3-7.1-1c-0.9-0.6-1.3-1.9-1.3-3.9v-2.8c0-1.9-0.1-3.4-0.3-4.6
				c2.1,0.1,3.8,0.2,5.3,0.4c0.6,0.1,0.9,0.3,0.9,0.6c0,0.4-0.1,0.7-0.4,1.1c-0.2,0.2-0.3,1.3-0.3,3v0.7c0,0.9,0.2,1.5,0.5,1.7
				c0.4,0.2,1.4,0.3,3.3,0.3c1.5,0,2.6-0.3,3.1-0.8C625.5,464.4,625.8,463,625.8,460.8z M603.4,457.6c2,0.8,3.4,1.4,4.5,2
				c0.6,0.3,0.9,0.6,0.9,1c0,0.3-0.2,0.6-0.7,1c-0.4,0.3-0.9,1-1.6,2.1c-2.5,3.7-6.2,6.4-11.3,8.2c-0.6,0.2-1,0.3-1.3,0.3
				c-0.3,0-0.7-0.5-1.2-1.4c-0.8-1.3-1.6-2.3-2.4-3c3.2-0.9,5.6-1.8,7.3-2.8c1.7-1,3.1-2.3,4.1-3.9
				C602.5,459.8,603.1,458.7,603.4,457.6z"/>
			<path class="st1" d="M659.3,447.4c1.3,1,2.4,2.2,3.4,3.4c0.3,0.4,0.5,0.7,0.5,1c0,0.4-0.3,0.7-1,0.7c-0.4,0-1,0.2-1.9,0.5
				c-1.3,0.5-2.7,1-4.2,1.5v7.5h0.5l6-0.1c0.3,0,0.5,0,0.5,0.1s0.1,0.2,0.1,0.5v3.9c0,0.3,0,0.5-0.1,0.5c-0.1,0.1-0.2,0.1-0.5,0.1
				l-5.9-0.1c1.6,3,4,5.8,7,8.4c-0.8,1.2-1.5,2.6-2,4.2c-0.2,0.6-0.4,0.9-0.6,0.9c-0.2,0-0.5-0.3-0.9-0.8c-1.7-2.3-3.1-4.5-4.2-6.8
				l0.3,23.7c0,0.4-0.2,0.5-0.6,0.5h-4.5c-0.4,0-0.6-0.2-0.6-0.5c0-0.2,0-1.4,0.1-3.6c0.2-6.8,0.3-13.1,0.3-18.9
				c-1.3,4.2-3.5,8.3-6.4,12.3c-0.4,0.6-0.7,0.9-1,0.9s-0.5-0.3-0.7-0.9c-0.6-1.8-1.4-3.2-2.2-4.1c4.2-4.5,7.2-9.5,9-15.1h-1.4
				l-6,0.1c-0.3,0-0.5,0-0.5-0.1c-0.1-0.1-0.1-0.2-0.1-0.5v-3.9c0-0.3,0-0.5,0.1-0.5c0.1-0.1,0.2-0.1,0.5-0.1l6,0.1h2.3v-6.1
				c-1.1,0.2-2.6,0.5-4.5,0.9c-0.5,0.1-0.9,0.1-1.1,0.1c-0.3,0-0.6-0.1-0.8-0.4c-0.1-0.2-0.3-0.5-0.6-1.1c-0.5-1.1-1.1-2.1-1.9-3
				c6.3-0.8,11.3-2,15-3.6C657.9,448.3,658.6,447.9,659.3,447.4z M669.5,479.3l9.7-1.9v-21.9c0-3.1-0.2-5.8-0.5-8.2
				c2.2,0.1,4.1,0.2,5.7,0.4c0.6,0.1,0.9,0.2,0.9,0.6c0,0.3-0.1,0.7-0.3,1.1c-0.2,0.6-0.3,2.6-0.3,6v20.9c1.4-0.3,2.7-0.6,3.8-0.9
				c0.2,0,0.5-0.1,1-0.2c0.2-0.1,0.3-0.1,0.4-0.1c0.1,0,0.2,0,0.3,0c0.1,0,0.3,0.2,0.3,0.6l0.7,4.3c0,0.1,0.1,0.2,0.1,0.3
				c0,0.2-0.2,0.3-0.6,0.4c-0.1,0-0.7,0.1-1.9,0.3c-1.2,0.2-2.6,0.5-4,0.7v5.1l0.1,9.5c0,0.3,0,0.5-0.1,0.5
				c-0.1,0.1-0.2,0.1-0.5,0.1h-4.6c-0.4,0-0.5-0.2-0.5-0.6l0.1-9.4v-4l-8.8,1.7l-7,1.4c-0.1,0-0.2,0.1-0.3,0.1
				c-0.2,0-0.3-0.2-0.4-0.6l-0.7-4.1c0-0.1-0.1-0.3-0.1-0.3c0-0.2,0.2-0.3,0.5-0.4c0.1,0,0.8-0.1,2.1-0.3
				C666.1,479.9,667.7,479.6,669.5,479.3z M668.1,463.4c2.7,2,5.3,4.4,7.7,7.1c0.2,0.2,0.3,0.4,0.3,0.5c0,0.2-0.1,0.4-0.4,0.7
				l-2.7,2.8c-0.3,0.3-0.5,0.4-0.6,0.4c-0.1,0-0.3-0.1-0.5-0.3c-2.4-3-4.9-5.5-7.5-7.6c-0.2-0.2-0.3-0.3-0.3-0.4
				c0-0.1,0.1-0.3,0.4-0.6l2.6-2.4c0.2-0.2,0.4-0.4,0.5-0.4C667.8,463.1,667.9,463.2,668.1,463.4z M669.7,450.9
				c2.8,2,5.3,4.3,7.6,6.8c0.2,0.2,0.3,0.4,0.3,0.5c0,0.2-0.1,0.3-0.4,0.6l-2.7,2.7c-0.3,0.3-0.5,0.5-0.6,0.5
				c-0.1,0-0.2-0.1-0.4-0.3c-2.1-2.7-4.6-5-7.5-7.1c-0.2-0.2-0.3-0.3-0.3-0.4c0-0.1,0.2-0.3,0.5-0.6l2.6-2.4
				c0.2-0.2,0.4-0.4,0.6-0.4C669.3,450.7,669.5,450.7,669.7,450.9z"/>
			<path class="st1" d="M694.4,468c4.1-4.6,7.4-10.4,9.9-17.4c0.4-1.3,0.7-2.6,0.9-3.8c2.3,0.5,4,1,5.1,1.5c0.5,0.2,0.8,0.5,0.8,0.8
				c0,0.3-0.2,0.6-0.6,0.9c-0.3,0.3-0.7,1.1-1.1,2.3c-1.1,3.1-2.2,5.7-3.2,7.8v27.7l0.1,8.3c0,0.3,0,0.5-0.1,0.5
				c-0.1,0.1-0.2,0.1-0.5,0.1h-4.4c-0.3,0-0.5,0-0.5-0.1c-0.1-0.1-0.1-0.2-0.1-0.5l0.1-8.3v-11.8c0-3.1,0-5.5,0.1-7.1
				c-1,1.3-2,2.6-3.1,3.9c-0.5,0.5-0.8,0.8-1,0.8c-0.2,0-0.4-0.3-0.6-1C695.8,470.8,695.2,469.3,694.4,468z M714.7,468.9
				c4.5-1,8.2-2.3,11.2-3.9c-1.8-1.7-3.2-3.4-4.4-5.3c-0.7,0.9-1.6,1.9-2.6,2.9c-0.6,0.6-1,0.9-1.2,0.9c-0.2,0-0.6-0.3-1.1-1
				c-0.7-0.8-1.4-1.5-2.3-2v20.1l0.1,7.4c0,0.3,0,0.5-0.1,0.6c-0.1,0.1-0.2,0.1-0.5,0.1h-4.2c-0.3,0-0.5,0-0.5-0.1
				c-0.1-0.1-0.1-0.2-0.1-0.5l0.1-7.4V463c0-2.7-0.1-5-0.4-7c1.8,0.1,3.7,0.2,5.4,0.4c0.6,0.1,0.9,0.3,0.9,0.7c0,0-0.2,0.4-0.5,1.2
				c-0.1,0.3-0.2,0.9-0.3,1.9c3.1-3,5.5-6.4,7.2-10.1c0.5-1.2,0.9-2.3,1-3.3c1.6,0.3,3.2,0.7,4.8,1.1c0.4,0.1,0.7,0.3,0.7,0.6
				c0,0.3-0.2,0.5-0.5,0.8c-0.2,0.2-0.6,0.9-1,1.8l-0.7,1.4H738l6.4-0.1c0.4,0,0.6,0.2,0.6,0.5v3.5c0,0.3,0,0.5-0.1,0.6
				c-0.1,0.1-0.2,0.1-0.5,0.1c0,0-0.4,0-1.2,0c-0.9,0-1.8-0.1-2.8-0.1c-1.5,2.9-3.5,5.6-6.1,8c3.5,1.9,7.6,3.2,12.3,4
				c-0.8,1.1-1.4,2.2-1.7,3.5c-0.4,1-0.7,1.5-1,1.5c-0.2,0-0.6-0.1-1.2-0.3c-5.1-1.5-9.3-3.4-12.7-5.6c-3.1,1.9-6.8,3.5-11.1,4.8
				c-0.6,0.2-1,0.3-1.1,0.3c-0.4,0-0.8-0.5-1.1-1.4C716,470.6,715.4,469.6,714.7,468.9z M714.3,492.1c5.9-0.9,10.9-2.4,15.2-4.5
				c3.2-1.6,6.4-3.7,9.4-6.3c0.7-0.6,1.3-1.4,1.9-2.4c1.7,1,3.1,2,4.1,2.9c0.3,0.3,0.5,0.5,0.5,0.7c0,0.3-0.2,0.5-0.6,0.7
				c-0.4,0.2-1,0.6-1.7,1.3c-3.8,3.3-7.4,5.8-11,7.6c-3.7,1.8-8.2,3.3-13.2,4.4c-0.5,0.1-0.9,0.2-1.2,0.2c-0.4,0-0.7-0.4-1-1.1
				C716.1,494.3,715.3,493.1,714.3,492.1z M728.9,470.4c1.3,0.6,2.6,1.4,4,2.4c0.3,0.2,0.5,0.4,0.5,0.6c0,0.3-0.2,0.5-0.6,0.6
				c-0.4,0.1-1,0.4-1.8,0.9c-3.4,2.4-7.2,4.3-11.3,5.6c-0.7,0.2-1.1,0.3-1.3,0.3c-0.3,0-0.6-0.3-1-1c-0.5-0.9-1.3-1.8-2.2-2.7
				c5.1-1.3,9-2.9,11.7-4.8C727.7,471.8,728.4,471.2,728.9,470.4z M716.2,484.1c4-0.9,7.4-2,10.2-3.4c2.1-1,4.2-2.3,6.4-3.9
				c0.7-0.6,1.4-1.3,2-2.2c1.4,0.7,2.7,1.6,4,2.6c0.3,0.2,0.5,0.5,0.5,0.7c0,0.3-0.2,0.6-0.5,0.7c-0.5,0.2-1.2,0.6-2,1.2
				c-4.3,3.5-9.7,6.2-16.1,8.1c-0.7,0.2-1.1,0.3-1.3,0.3c-0.3,0-0.6-0.3-1-1C717.9,486,717.2,484.9,716.2,484.1z M734.7,457h-9.5
				c1.3,2,3,3.7,4.9,5.3C731.9,460.8,733.4,459,734.7,457z"/>
			<path class="st1" d="M762,493.7l-7.3,0.1c-0.3,0-0.5,0-0.5-0.1c-0.1-0.1-0.1-0.2-0.1-0.5v-4.5c0-0.3,0-0.5,0.1-0.5
				c0.1-0.1,0.2-0.1,0.5-0.1l7.3,0.1h9.7v-18.3h-13.1l-6.9,0.1c-0.3,0-0.5,0-0.5-0.1c-0.1-0.1-0.1-0.2-0.1-0.5V465
				c0-0.3,0-0.5,0.1-0.6c0.1-0.1,0.2-0.1,0.5-0.1l6.9,0.1h13.1v-10c0-3-0.1-5.2-0.4-6.6c2.6,0.1,4.6,0.2,6.2,0.4
				c0.5,0.1,0.8,0.2,0.8,0.6c0,0.3-0.1,0.7-0.3,1.1c-0.2,0.6-0.3,2-0.3,4.3v10.3h13.8l6.9-0.1c0.3,0,0.5,0,0.5,0.1
				c0.1,0.1,0.1,0.2,0.1,0.5v4.5c0,0.3,0,0.5-0.1,0.5c-0.1,0.1-0.2,0.1-0.5,0.1l-6.9-0.1h-13.8v18.3H788l7.4-0.1
				c0.3,0,0.5,0,0.5,0.1c0.1,0.1,0.1,0.2,0.1,0.5v4.5c0,0.3,0,0.4-0.1,0.5s-0.2,0.1-0.5,0.1l-7.4-0.1H762z"/>
			<path class="st1" d="M816.4,447.5c2.2,0.1,4.1,0.2,5.7,0.4c0.5,0,0.8,0.2,0.8,0.5c0,0.1-0.1,0.5-0.4,1.2c-0.2,0.5-0.3,1.5-0.3,3
				v1.9h2.6l6-0.1c0.3,0,0.5,0,0.5,0.1c0.1,0.1,0.1,0.2,0.1,0.5v3.8c0,0.3,0,0.5-0.1,0.5s-0.2,0.1-0.5,0.1l-6-0.1h-2.6v4.9h3.6
				l7.1-0.1c0.3,0,0.5,0,0.5,0.1c0.1,0.1,0.1,0.2,0.1,0.5v3.9c0,0.3,0,0.5-0.1,0.6c-0.1,0.1-0.2,0.1-0.5,0.1l-7.1-0.1h-3.6v4.7h2.8
				l6.7-0.1c0.3,0,0.5,0,0.5,0.1c0.1,0.1,0.1,0.2,0.1,0.5l-0.1,5.5v1.9l0.1,6.1c0,1.6-0.4,2.8-1.3,3.5c-0.8,0.7-2.4,1-4.6,1
				c-0.9,0-1.4-0.1-1.6-0.3c-0.1-0.1-0.3-0.6-0.4-1.4c-0.2-1.3-0.6-2.5-1.2-3.5c1,0.1,1.8,0.2,2.4,0.2c0.8,0,1.3-0.5,1.3-1.4v-7.5
				h-4.8v7.2l0.1,10.5c0,0.4-0.2,0.6-0.6,0.6h-4.4c-0.4,0-0.6-0.2-0.6-0.6l0.1-10.4v-7.2h-4.5v8.1l0.1,5.1c0,0.3,0,0.5-0.1,0.5
				c-0.1,0.1-0.2,0.1-0.5,0.1h-4.4c-0.3,0-0.5,0-0.5-0.1c-0.1-0.1-0.1-0.2-0.1-0.5l0.1-5.4v-7.2l-0.1-4.9c0-0.3,0-0.5,0.1-0.5
				s0.2-0.1,0.5-0.1l6.8,0.1h2.6v-4.7h-4.6l-7.2,0.1c-0.3,0-0.5,0-0.5-0.1c-0.1-0.1-0.1-0.2-0.1-0.5v-3.9c0-0.3,0-0.5,0.1-0.5
				s0.2-0.1,0.5-0.1l7.2,0.1h4.6v-4.9h-5.2c-0.5,1.1-1,2.2-1.5,3.1c-0.4,0.8-0.7,1.2-1,1.2c-0.2,0-0.6-0.2-1.3-0.7
				c-1.1-0.7-2.2-1.3-3.3-1.6c2-2.9,3.4-6.1,4.2-9.7c0.1-0.4,0.2-1.3,0.3-2.6c1.6,0.3,3.2,0.6,4.7,1c0.5,0.1,0.8,0.4,0.8,0.7
				c0,0.2-0.1,0.5-0.4,0.9c-0.2,0.3-0.4,0.8-0.6,1.6l-0.3,1.1h3.5v-1.8C816.8,450.7,816.6,449,816.4,447.5z M835.5,451.8
				c2,0.1,3.8,0.2,5.5,0.4c0.5,0.1,0.8,0.3,0.8,0.6c0,0.2-0.1,0.4-0.2,0.7c-0.1,0.3-0.2,0.5-0.2,0.5c-0.1,0.5-0.2,2.5-0.2,5.8v15
				l0.1,7.2c0,0.3,0,0.4-0.1,0.5s-0.3,0.1-0.6,0.1h-4.4c-0.3,0-0.5,0-0.5-0.1c-0.1-0.1-0.1-0.2-0.1-0.5l0.1-7.2v-15
				C835.9,456.5,835.8,453.8,835.5,451.8z M838.7,490.3c2,0.2,3.7,0.3,5.2,0.3c1,0,1.6-0.2,1.9-0.5c0.3-0.3,0.4-0.8,0.4-1.6v-33
				c0-3.2-0.1-5.8-0.4-7.7c2,0,4,0.1,5.8,0.3c0.6,0.1,0.9,0.2,0.9,0.6c0,0.2-0.1,0.6-0.4,1.1c-0.2,0.5-0.3,2.4-0.3,5.5v23l0.2,10.9
				c0,2.8-0.7,4.7-2,5.6c-0.8,0.6-1.8,0.9-2.9,1.1c-1.1,0.2-2.7,0.3-4.9,0.3c-0.9,0-1.4-0.1-1.5-0.3c-0.1-0.2-0.3-0.6-0.5-1.5
				C839.9,492.9,839.3,491.4,838.7,490.3z"/>
			<path class="st1" d="M858.7,468.5c4.6-4.6,8.3-10.5,11.1-17.9c0.4-1,0.7-2.3,1-3.9c2.9,0.8,4.6,1.3,5.3,1.6
				c0.6,0.2,0.9,0.5,0.9,0.8c0,0.3-0.2,0.7-0.6,1c-0.4,0.3-0.8,1.1-1.2,2.3c-1,2.5-2,4.9-3.2,7.2v28.4l0.1,8.3c0,0.3,0,0.5-0.1,0.5
				c-0.1,0.1-0.2,0.1-0.5,0.1h-4.6c-0.3,0-0.5,0-0.5-0.1c-0.1-0.1-0.1-0.2-0.1-0.5l0.1-8.3v-12.5c0-1.4,0-3.7,0.1-6.9
				c-1,1.4-2.3,3-4.1,5c-0.4,0.4-0.7,0.7-0.9,0.7c-0.3,0-0.5-0.3-0.7-0.9C860.2,471.2,859.5,469.6,858.7,468.5z M873.4,467.9
				c2.2-2.4,4.3-5.3,6.3-8.9c1.6-2.9,2.8-5.6,3.7-8.1c0.5-1.5,0.8-2.8,0.9-4.1c2.4,0.5,4.2,0.9,5.4,1.2c0.7,0.2,1,0.4,1,0.8
				c0,0.4-0.2,0.8-0.5,1c-0.5,0.4-0.9,1.3-1.4,2.7c-0.6,1.5-1.1,2.9-1.7,4h14.2l6.7-0.1c0.3,0,0.5,0,0.6,0.1
				c0.1,0.1,0.1,0.2,0.1,0.5v4c0,0.3,0,0.5-0.1,0.6c-0.1,0.1-0.3,0.1-0.6,0.1l-6.7-0.1h-8.9v6.5h7l6-0.1c0.3,0,0.5,0,0.5,0.1
				c0.1,0.1,0.1,0.2,0.1,0.5v4c0,0.3,0,0.4-0.1,0.5s-0.2,0.1-0.5,0.1l-6-0.1h-7v6.7h7l6.1-0.1c0.4,0,0.6,0.2,0.6,0.5v4
				c0,0.3,0,0.5-0.1,0.5s-0.2,0.1-0.5,0.1l-6.1-0.1h-7v3l0.1,8.5c0,0.3,0,0.5-0.1,0.5c-0.1,0.1-0.2,0.1-0.5,0.1h-4.6
				c-0.3,0-0.5,0-0.5-0.1c-0.1-0.1-0.1-0.2-0.1-0.5l0.1-8.5v-26.1h-2.2c-2.1,3.9-4.3,7.1-6.5,9.8c-0.5,0.6-0.8,0.9-1,0.9
				c-0.3,0-0.6-0.4-1-1.1C875.2,469.9,874.4,468.8,873.4,467.9z"/>
			<path class="st1" d="M923,481.2c-1,5.5-2.6,10.1-4.9,13.9c-0.4,0.7-0.8,1.1-0.9,1.1c-0.1,0-0.4-0.3-0.9-0.9
				c-1.2-1.5-2.4-2.5-3.5-3.2c2.4-3.3,4.1-7.6,4.9-12.8c0.7-4.1,1-10.2,1-18.2l-0.1-11.5c0-0.3,0-0.5,0.1-0.6
				c0.1-0.1,0.2-0.1,0.5-0.1l7.4,0.1h25.2l7.5-0.1c0.3,0,0.5,0,0.5,0.1c0.1,0.1,0.1,0.2,0.1,0.5l-0.1,3.9v4.1l0.1,3.9
				c0,0.3,0,0.5-0.1,0.5c-0.1,0.1-0.2,0.1-0.5,0.1l-7.5-0.1h-27.6v3.1C924.2,471.1,923.8,476.5,923,481.2z M932.2,476.1h1.1v-4.4
				l-6.5,0.1c-0.3,0-0.5,0-0.5-0.1c-0.1-0.1-0.1-0.2-0.1-0.5v-3.5c0-0.3,0-0.5,0.1-0.5c0.1-0.1,0.2-0.1,0.5-0.1l6.5,0.1
				c0-1.8-0.1-3.3-0.3-4.5c1.7,0.1,3.4,0.2,5.1,0.4c0.6,0.1,0.9,0.3,0.9,0.7c0,0.2-0.1,0.5-0.3,0.9c-0.2,0.5-0.3,1.3-0.3,2.5h7.4
				c0-2-0.1-3.5-0.3-4.5c1.6,0.1,3.3,0.2,5.1,0.4c0.6,0.1,0.9,0.3,0.9,0.6c0,0.3-0.1,0.6-0.3,1c-0.2,0.4-0.3,1.2-0.3,2.5l6.8-0.1
				c0.3,0,0.5,0,0.5,0.1c0.1,0.1,0.1,0.2,0.1,0.5v3.5c0,0.3,0,0.5-0.1,0.6c-0.1,0.1-0.2,0.1-0.5,0.1l-6.8-0.1v4.4h3.2l7.4-0.1
				c0.3,0,0.5,0,0.5,0.1c0.1,0.1,0.1,0.2,0.1,0.5v3.7c0,0.3,0,0.4-0.1,0.5s-0.2,0.1-0.5,0.1l-6.8-0.1c1.4,0.7,2.4,1.3,3.1,1.9
				c0.4,0.2,0.5,0.5,0.5,0.7s-0.2,0.5-0.6,0.7c-0.5,0.2-1,0.6-1.6,1.2c-1.1,1-2.3,2-3.5,2.9c2.9,1.5,6.5,2.6,10.7,3.2
				c-0.7,0.7-1.5,1.9-2.2,3.5c-0.3,0.7-0.5,1.1-0.6,1.3c-0.1,0.2-0.3,0.3-0.6,0.3c-0.2,0-0.6-0.1-1.2-0.2
				c-8.9-2.4-15.3-7.6-19.2-15.6h-4.5v9c3.6-0.6,6.6-1.2,9-1.8c-0.2,0.9-0.4,1.9-0.5,3.2c-0.1,0.9-0.2,1.5-0.4,1.7
				c-0.2,0.1-0.6,0.3-1.4,0.5c-4.7,1-9.3,2-13.8,2.7c-0.7,0.1-1.3,0.2-1.7,0.5c-0.4,0.2-0.8,0.3-1,0.3c-0.4,0-0.6-0.2-0.8-0.7
				l-1.1-5.1c1.5,0,3.2-0.1,5.2-0.3l1.1-0.1v-9.8c-1.4,0-2.6,0-3.8,0.1c-0.8,0-1.2,0-1.2,0c-0.4,0-0.6-0.2-0.6-0.6v-3.7
				c0-0.4,0.2-0.6,0.6-0.6L932.2,476.1z M954.1,457.4v-3.7h-29.9v3.7H954.1z M938.4,476.1h7.4v-4.4h-7.4V476.1z M949,485.5
				c1.2-0.9,2.3-1.9,3.5-3.2c0.4-0.5,0.8-1,1.2-1.5h-8.4C946.3,482.6,947.5,484.2,949,485.5z"/>
		</g>
		<g>
			<path class="st1" d="M96.3,364.1c5.2,0.1,9.9,0.4,14.2,0.9c1.3,0.2,2,0.7,2,1.6c0,0.5-0.3,1.3-0.8,2.4c-0.3,0.8-0.5,2.5-0.5,5.1
				v1.4h35.4l16.4-0.3c0.7,0,1.2,0.1,1.3,0.3c0.1,0.2,0.2,0.6,0.2,1.2v10.4c0,0.7-0.1,1.2-0.2,1.4c-0.2,0.2-0.6,0.3-1.3,0.3
				l-16.4-0.3h-35.4v13.4l0.3,14.5c0,0.7-0.1,1.1-0.3,1.3c-0.1,0.1-0.5,0.2-1.2,0.2H98.3c-0.7,0-1.1-0.1-1.2-0.3
				c-0.1-0.1-0.2-0.5-0.2-1.2l0.3-14.5v-13.4H63.3l-16.4,0.3c-0.6,0-1-0.1-1.1-0.3c-0.1-0.2-0.2-0.6-0.2-1.3v-10.4
				c0-1,0.4-1.5,1.3-1.5l16.4,0.3h33.8C97.1,370.4,96.8,366.7,96.3,364.1z M47.5,360.4c10.9-6.2,19-15.1,24.5-26.8
				c1.2-2.6,2.1-5.7,2.8-9.4c4.5,0.6,8.5,1.6,12,2.8c1.7,0.6,2.5,1.2,2.5,1.9c0,0.6-0.3,1.2-1,1.8c-1.2,1.3-2.2,3-3,5.2l-1.2,2.5
				c4.7,6.2,11,11.5,18.9,15.8c-2.6,2.5-4.6,4.8-5.9,7c-1.2,1.9-2.1,2.8-2.7,2.8c-0.6,0-1.6-0.6-3-1.7c-5-4-9.4-8.5-13.1-13.3
				c-4.5,6.9-10.3,13.1-17.5,18.6c-1.6,1.3-2.7,2-3,2c-0.5,0-1.4-0.9-2.9-2.8C52.9,364.4,50.4,362.2,47.5,360.4z M66.9,322.6
				l-17.1,0.3c-0.8,0-1.2-0.1-1.4-0.3c-0.2-0.2-0.3-0.6-0.3-1.2v-10.3c0-0.7,0.1-1.2,0.3-1.3c0.2-0.1,0.6-0.2,1.3-0.2l17.1,0.3h30.3
				v-1.2c0-5.1-0.3-9.2-0.9-12.3c6.2,0.2,10.9,0.4,14.2,0.8c1.4,0.2,2.1,0.6,2.1,1.4c0,0.3-0.3,1.1-1,2.5c-0.3,1.6-0.5,4.2-0.5,7.7
				v1.2H143l17.1-0.3c0.7,0,1.1,0.1,1.2,0.3c0.2,0.2,0.3,0.6,0.3,1.2v10.3c0,0.7-0.1,1.1-0.3,1.2c-0.1,0.1-0.5,0.2-1.2,0.2
				l-17.1-0.3H66.9z M105.1,355.8c7.2-5.8,12.8-13.3,16.7-22.5c1.3-3,2.1-5.9,2.5-8.7c4.4,1,8.3,2.1,11.8,3.3c1.4,0.6,2.1,1.2,2.1,2
				c0,0.5-0.4,1.1-1.1,1.9c-0.8,0.7-1.6,2-2.5,4.1l-1.6,3.4c6.9,7.5,16.7,13.5,29.4,17.9c-2.1,2.2-4,5.1-5.6,8.6
				c-1,2.2-1.9,3.3-2.7,3.3c-0.6,0-1.6-0.4-3-1.2c-10.1-4.9-18.2-10.6-24.4-17.3c-2.6,4.1-5.8,8-9.4,11.8c-1.5,1.3-2.5,2-3,2
				s-1.4-0.8-2.8-2.4C110,359.6,107.8,357.5,105.1,355.8z"/>
			<path class="st1" d="M196.9,384.8l-16.7,0.3c-0.7,0-1.2-0.1-1.4-0.3c-0.1-0.2-0.2-0.6-0.2-1.2v-7.9c0-0.7,0.1-1.2,0.3-1.4
				c0.2-0.1,0.6-0.2,1.3-0.2l16.7,0.3h32.6v-7.1H211l-18.3,0.3c-0.7,0-1.1-0.1-1.2-0.3c-0.1-0.1-0.1-0.5-0.1-1.2v-7.6
				c0-0.8,0.1-1.2,0.2-1.4c0.1-0.1,0.5-0.2,1.1-0.2l18.3,0.3h18.6v-7h-24.9l-17.7,0.3c-0.8,0-1.2-0.1-1.4-0.3
				c-0.2-0.1-0.3-0.5-0.3-1v-7.8c0-0.7,0.1-1.2,0.3-1.3c0.2-0.1,0.6-0.2,1.3-0.2l17.7,0.3h8.1c-1.5-3.3-2.9-6.1-4.2-8.3
				c-0.3-0.6-0.5-1-0.5-1.2c0-0.4,0.5-0.7,1.4-1l8.6-2.4h-21.1l-16.7,0.3c-0.7,0-1.2-0.1-1.4-0.3c-0.1-0.2-0.2-0.6-0.2-1.2v-8.2
				c0-0.8,0.1-1.2,0.3-1.4c0.2-0.1,0.6-0.2,1.3-0.2l16.7,0.3h0.9c-1.7-3.4-4.2-7.2-7.6-11.4c-0.3-0.3-0.5-0.6-0.5-0.9
				c0-0.4,0.5-0.8,1.6-1.4l7.6-3.6c0.6-0.3,1-0.4,1.2-0.4c0.4,0,0.8,0.3,1.3,0.9c3.9,4.7,6.9,8.9,8.9,12.9c0.3,0.5,0.4,0.8,0.4,1
				c0,0.3-0.5,0.7-1.5,1.3l-3.2,1.6h12.3v-8.7c0-5.2-0.3-9-0.8-11.5c5.3,0.2,9.6,0.4,12.8,0.8c1.1,0.1,1.6,0.5,1.6,1.2
				c0,0.4-0.2,1.2-0.5,2.3c-0.5,1.3-0.8,3.7-0.8,7.3v8.7h10.7v-8.6c0-5.3-0.3-9.2-0.8-11.6c5.6,0.2,9.8,0.5,12.7,0.9
				c1.2,0.1,1.7,0.5,1.7,1.2c0,0.5-0.2,1.2-0.5,2.1c-0.6,1.3-0.8,3.7-0.8,7.3v8.7h8.2c2.3-3.5,4.3-7.2,6.1-10.9
				c1.1-2.3,1.9-4.7,2.3-7.1c4.2,0.8,8.4,2,12.8,3.4c1.2,0.4,1.7,0.9,1.7,1.7c0,0.8-0.4,1.5-1.3,2.3c-0.8,0.6-1.5,1.5-2.3,2.5
				c-1.1,1.8-2.9,4.5-5.4,8.1h1.9l16.7-0.3c0.7,0,1.1,0.1,1.2,0.3c0.1,0.2,0.2,0.6,0.2,1.3v8.2c0,0.7-0.1,1.1-0.3,1.2
				c-0.2,0.1-0.6,0.2-1.2,0.2l-16.7-0.3h-23.2c3.7,0.7,7.2,1.5,10.5,2.4c1.2,0.3,1.7,0.8,1.7,1.6c0,0.8-0.5,1.5-1.5,1.9
				c-0.3,0.2-0.9,1.1-1.8,2.8l-2.4,4.3h8.6l17.7-0.3c0.7,0,1.2,0.1,1.3,0.3c0.1,0.2,0.2,0.6,0.2,1.2v7.8c0,0.9-0.5,1.3-1.5,1.3
				l-17.7-0.3H243v7H264l18.2-0.3c0.7,0,1.2,0.1,1.3,0.3c0.1,0.2,0.2,0.6,0.2,1.2v7.6c0,0.7-0.1,1.1-0.2,1.3
				c-0.2,0.2-0.6,0.2-1.3,0.2l-18.2-0.3H243v7.1h34.8l16.7-0.3c0.7,0,1.1,0.1,1.2,0.3c0.1,0.2,0.2,0.6,0.2,1.2v7.9
				c0,0.6-0.1,1-0.2,1.2c-0.2,0.2-0.5,0.2-1.2,0.2l-16.7-0.3h-23.6c10.3,7.2,25,13,44.1,17.2c-2.1,2.5-3.8,5.4-5.2,8.5
				c-0.9,2.3-1.9,3.4-2.9,3.4c-0.4,0-1.4-0.2-3-0.6c-17.8-5.2-32.7-13.1-44.5-23.7l0.6,26.2c0,0.7-0.1,1.1-0.3,1.3
				c-0.2,0.1-0.6,0.2-1.2,0.2h-11.2c-0.9,0-1.4-0.5-1.4-1.5c0-0.4,0-1.8,0.1-4.1c0.2-7.1,0.3-14.3,0.4-21.5
				c-10.5,10-24.7,17.9-42.5,23.7c-1.5,0.5-2.5,0.8-3,0.8c-0.9,0-1.8-1.1-2.9-3.4c-1.8-3.6-3.5-6.2-5.3-8
				c18.1-4.5,32.2-10.7,42.2-18.4H196.9z M251.5,332.5c0.4-0.9,0.9-2.7,1.5-5.3h-33.7c0.2,0.1,0.6,0.4,1,1c2.4,4,4.4,8,5.9,12H248
				C249.2,338,250.3,335.4,251.5,332.5z"/>
			<path class="st1" d="M341.8,316.7h-2.7c-1.6,9.7-4.2,18.8-7.8,27.5h12.7l9.5-0.3c0.7,0,1.1,0.1,1.3,0.3c0.1,0.2,0.2,0.6,0.2,1.2
				l-0.3,17.8v13.3l0.3,23.5c0,0.7-0.1,1.1-0.2,1.3c-0.2,0.2-0.6,0.3-1.3,0.3h-8.9c-0.7,0-1.1-0.1-1.2-0.3c-0.1-0.2-0.2-0.6-0.2-1.3
				v-3.2h-11.5v11.1c0,0.7-0.1,1.1-0.3,1.3c-0.2,0.2-0.6,0.2-1.4,0.2h-8.9c-0.7,0-1.2-0.1-1.4-0.3c-0.1-0.2-0.2-0.6-0.2-1.2
				l0.3-23.9v-18.3c-1.8,2.5-3.7,5.1-5.8,7.8c-1,1.3-1.8,1.9-2.4,1.9c-0.7,0-1.2-0.8-1.5-2.5c-0.6-4-1.7-7.8-3.4-11.4
				c10.1-11.1,16.6-26,19.5-44.7h-0.8l-13.5,0.3c-0.7,0-1.1-0.1-1.3-0.3c-0.1-0.2-0.2-0.6-0.2-1.2v-9.7c0-0.7,0.1-1.1,0.3-1.2
				c0.1-0.1,0.5-0.2,1.2-0.2l13.5,0.3h16.2l13.5-0.3c0.7,0,1.1,0.1,1.2,0.3c0.1,0.2,0.2,0.6,0.2,1.2v9.7c0,0.7-0.1,1.1-0.3,1.2
				c-0.2,0.1-0.6,0.2-1.2,0.2L341.8,316.7z M343.3,355.9h-11.5v29.4h11.5V355.9z M350.4,408.9c8.8-5.9,14.9-13.6,18.3-22.9
				c2.4-6.6,3.8-15.5,4.4-26.9c-3.5,0-6.6,0.1-9.4,0.2c-1.9,0-2.9,0.1-2.9,0.1c-0.7,0-1.1-0.1-1.2-0.3c-0.1-0.2-0.2-0.6-0.2-1.2v-10
				c0-0.8,0.1-1.2,0.3-1.4c0.2-0.1,0.6-0.2,1.2-0.2l12.6,0.3v-32.2c-2.8,0-5.3,0.1-7.6,0.2c-1.6,0-2.3,0.1-2.4,0.1
				c-0.9,0-1.3-0.4-1.3-1.3v-9.8c0-1,0.4-1.5,1.3-1.5l16.8,0.3h29.3l16.8-0.3c0.7,0,1.1,0.1,1.2,0.3c0.1,0.2,0.2,0.6,0.2,1.2v9.8
				c0,0.9-0.5,1.3-1.4,1.3c-0.1,0-0.6,0-1.5-0.1c-3-0.1-6.2-0.2-9.6-0.2v32.2l14.4-0.3c0.7,0,1.1,0.1,1.2,0.3
				c0.1,0.2,0.2,0.6,0.2,1.3v10c0,0.6-0.1,1-0.2,1.2c-0.2,0.2-0.5,0.2-1.2,0.2c-0.2,0-0.8,0-1.9-0.1c-3.7-0.1-7.9-0.2-12.5-0.2v38
				l0.3,18c0,0.7-0.1,1.1-0.3,1.3c-0.2,0.1-0.6,0.2-1.2,0.2h-11c-0.9,0-1.3-0.5-1.3-1.5l0.1-18v-38h-15.2c-0.6,12.6-2,22.4-4.4,29.4
				c-3.1,10-8.9,18.9-17.2,26.6c-1.3,1.4-2.2,2.1-2.8,2.1c-0.5,0-1.5-0.8-3-2.4C356.6,412.3,353.6,410.3,350.4,408.9z M386.9,346.7
				h14.9v-32.2h-14.9V346.7z"/>
			<path class="st1" d="M443,405.7c13.4-3.4,23.4-7.7,29.9-12.9c5.9-4.7,10-10.7,12.2-18l-14.4,0.1c-8.7,0.1-14.6,0.3-17.6,0.6
				c-0.8,0-1.2-0.1-1.4-0.3c-0.1-0.2-0.2-0.6-0.2-1.2l-0.1-10c0-0.6,0.1-1,0.3-1.1c0.2-0.1,0.6-0.2,1.3-0.2l10,0.2
				c2.3,0,4.8,0,7.6-0.1l16.5-0.1c0.2-2,0.3-3.7,0.3-5c0-4.8-0.3-8.5-0.8-11c5.3,0.3,9.9,0.7,13.8,1.2c1.8,0.3,2.7,0.9,2.7,1.8
				c0,0.7-0.3,1.5-0.9,2.5c-0.6,0.8-1,3-1.1,6.7l-0.3,3.7l10.2-0.1c5.4-0.1,10.4-0.2,15.1-0.3c2.6,0,3.9-0.1,4.1-0.1
				c1,0,1.5,0.5,1.5,1.4c-0.2,2.4-0.3,6.7-0.5,13l-0.5,19.5c0,0.4-0.1,0.8-0.1,1.3c0,1.9,0.4,3.1,1.1,3.9c1,0.9,3.8,1.4,8.3,1.4
				c4.5,0,7.3-1,8.3-2.9c1-2.1,1.6-6.6,1.7-13.4c2.9,1.6,6.2,2.8,9.8,3.6c1.4,0.4,2.3,0.7,2.6,1c0.3,0.3,0.5,0.8,0.5,1.6
				c0,0.3-0.1,1.2-0.2,2.5c-0.8,8.6-2.7,14.1-5.6,16.5c-3.4,2.8-9.5,4.1-18.2,4.1c-10,0-16.2-1-18.7-3c-2.6-2.1-3.8-5.9-3.7-11.4
				l0.9-26.8l-18.4,0.3c-2.4,10.8-7.5,19.6-15.3,26.4c-6.7,5.9-16.1,10.9-28.2,15.3c-1.5,0.5-2.5,0.8-3,0.8c-0.5,0-1-0.3-1.4-0.8
				c0,0-0.5-0.9-1.4-2.5C448.4,411.1,446.2,408.4,443,405.7z M536.7,330c2.4,1.3,5.2,2.3,8.3,2.9v-12.3h-85.9v15.1
				c0,0.7-0.1,1.2-0.3,1.3c-0.2,0.1-0.6,0.2-1.2,0.2h-10.8c-0.7,0-1.2-0.1-1.3-0.3c-0.1-0.2-0.2-0.6-0.2-1.2l0.3-13.8v-4.3l-0.3-7.2
				c0-0.7,0.1-1.2,0.3-1.3c0.2-0.1,0.6-0.2,1.2-0.2l17.3,0.3H494v-3.8c0-2.9-0.3-5.8-1-8.5c5.1,0.2,9.8,0.5,14.2,0.8
				c1.5,0.1,2.3,0.5,2.3,1.2c0,0.6-0.3,1.4-0.9,2.5c-0.4,0.9-0.6,2.3-0.6,4.3v3.6h32l17.3-0.3c0.7,0,1.2,0.1,1.3,0.3
				c0.1,0.2,0.2,0.6,0.2,1.2l-0.3,6.2v5.4l0.3,13.8c0,0.7-0.1,1.2-0.3,1.3s-0.6,0.2-1.2,0.2H549c-0.5,6.3-2.4,10.4-5.8,12.3
				c-3.7,2.1-9.5,3.2-17.5,3.2c-8.8,0-14.6-0.8-17.3-2.4c-2.1-1.4-3.2-4.6-3.2-9.6v-6.9c0-4.7-0.3-8.4-0.8-11.1
				c5,0.1,9.3,0.4,13,0.9c1.4,0.2,2.1,0.6,2.1,1.4c0,0.9-0.3,1.8-0.9,2.7c-0.5,0.6-0.7,3.1-0.7,7.4v1.7c0,2.2,0.4,3.6,1.2,4.1
				c0.9,0.5,3.5,0.8,8,0.8c3.7,0,6.3-0.6,7.6-1.9C535.9,338.5,536.6,335.2,536.7,330z M482.2,322c4.7,1.9,8.4,3.4,10.9,4.8
				c1.4,0.8,2.1,1.6,2.1,2.4c0,0.7-0.6,1.5-1.7,2.4c-0.9,0.7-2.2,2.5-3.9,5.2c-6,8.9-15.1,15.5-27.4,19.8c-1.5,0.5-2.5,0.8-3,0.8
				c-0.7,0-1.7-1.1-2.9-3.4c-1.9-3.1-3.9-5.6-5.9-7.3c7.7-2.1,13.7-4.4,17.8-6.9c4.2-2.5,7.6-5.6,10.1-9.4
				C480,327.5,481.4,324.7,482.2,322z"/>
			<path class="st1" d="M602.7,297.5c5.3,0.1,9.9,0.4,13.8,0.9c1.3,0,2,0.4,2,1.3c0,0.3-0.3,1.3-1,2.9c-0.5,1.2-0.8,3.6-0.8,7.3v4.5
				h6.3l14.7-0.3c0.7,0,1.1,0.1,1.3,0.3c0.1,0.2,0.2,0.6,0.2,1.2v9.3c0,0.7-0.1,1.1-0.3,1.2s-0.6,0.2-1.2,0.2L623,326h-6.3v12h8.9
				l17.2-0.3c0.7,0,1.1,0.1,1.3,0.3c0.1,0.2,0.2,0.6,0.2,1.2v9.4c0,0.8-0.1,1.3-0.3,1.4c-0.1,0.1-0.5,0.2-1.2,0.2l-17.2-0.3h-8.9
				v11.4h6.9l16.3-0.3c0.7,0,1.2,0.1,1.3,0.3c0.1,0.2,0.2,0.6,0.2,1.2l-0.3,13.4v4.7l0.3,14.9c0,4-1,6.8-3,8.5
				c-2,1.7-5.7,2.5-11.1,2.5c-2.1,0-3.4-0.2-3.8-0.6c-0.3-0.3-0.7-1.4-1-3.3c-0.6-3.2-1.5-6-2.9-8.4c2.4,0.3,4.3,0.5,5.8,0.5
				c2,0,3-1.1,3-3.4V373h-11.6v17.5l0.3,25.4c0,0.9-0.5,1.4-1.4,1.4h-10.8c-0.9,0-1.4-0.5-1.4-1.4l0.3-25.3V373h-11v19.6l0.3,12.4
				c0,0.7-0.1,1.1-0.2,1.3c-0.2,0.2-0.5,0.2-1.2,0.2h-10.7c-0.7,0-1.1-0.1-1.2-0.3c-0.1-0.2-0.2-0.6-0.2-1.2l0.3-13.1v-17.4l-0.3-12
				c0-0.7,0.1-1.1,0.3-1.2s0.6-0.2,1.2-0.2l16.4,0.3h6.3V350h-11.1l-17.4,0.3c-0.7,0-1.1-0.1-1.2-0.3c-0.1-0.2-0.2-0.6-0.2-1.3v-9.4
				c0-0.7,0.1-1.2,0.3-1.3s0.6-0.2,1.2-0.2l17.4,0.3h11.1v-12H591c-1.2,2.7-2.3,5.2-3.6,7.6c-0.9,1.9-1.7,2.9-2.4,2.9
				c-0.5,0-1.6-0.5-3.2-1.6c-2.7-1.8-5.4-3-8.1-3.8c4.7-7.1,8.1-14.9,10.2-23.5c0.3-1,0.5-3.1,0.6-6.2c4,0.6,7.8,1.5,11.5,2.5
				c1.3,0.3,2,0.9,2,1.6c0,0.6-0.3,1.3-0.9,2.2c-0.4,0.6-0.9,1.9-1.4,3.9l-0.8,2.8h8.5V310C603.6,305.4,603.3,301.3,602.7,297.5z
				 M649.2,308c4.8,0.1,9.3,0.4,13.3,0.9c1.3,0.2,2,0.7,2,1.5c0,0.4-0.1,1-0.4,1.6c-0.3,0.7-0.5,1.2-0.5,1.3
				c-0.3,1.3-0.4,6-0.4,14.2V364l0.3,17.5c0,0.6-0.1,1-0.3,1.2c-0.2,0.2-0.6,0.2-1.4,0.2h-10.6c-0.7,0-1.1-0.1-1.2-0.3
				c-0.1-0.2-0.2-0.6-0.2-1.2l0.3-17.5v-36.4C650.1,319.4,649.8,312.8,649.2,308z M656.8,401.5c4.8,0.5,9.1,0.8,12.7,0.8
				c2.4,0,3.9-0.4,4.7-1.2c0.7-0.7,1-2,1-4V317c0-7.9-0.3-14.1-1-18.6c4.9,0,9.6,0.3,14.2,0.8c1.5,0.1,2.3,0.6,2.3,1.4
				c0,0.4-0.3,1.4-1,2.8c-0.5,1.3-0.8,5.8-0.8,13.4v55.9l0.4,26.4c0,6.8-1.6,11.3-4.8,13.5c-2,1.4-4.4,2.3-7,2.8
				c-2.6,0.4-6.6,0.6-11.9,0.6c-2.1,0-3.3-0.2-3.7-0.6c-0.3-0.4-0.7-1.6-1.2-3.6C659.7,407.8,658.4,404.4,656.8,401.5z"/>
			<path class="st1" d="M705.4,348.5c11.2-11.1,20.1-25.6,26.9-43.6c0.9-2.4,1.7-5.5,2.4-9.5c7,1.9,11.2,3.2,12.8,3.8
				c1.4,0.6,2.1,1.3,2.1,2c0,0.8-0.5,1.6-1.4,2.4c-0.9,0.7-1.8,2.6-2.9,5.6c-2.3,6-4.9,11.9-7.8,17.5v69l0.3,20.1
				c0,0.7-0.1,1.1-0.3,1.3c-0.2,0.1-0.6,0.2-1.2,0.2h-11.2c-0.7,0-1.1-0.1-1.2-0.3c-0.1-0.2-0.2-0.6-0.2-1.2l0.3-20.1v-30.4
				c0-3.4,0.1-8.9,0.3-16.7c-2.3,3.3-5.6,7.4-10,12.2c-0.9,1.1-1.7,1.6-2.3,1.6c-0.8,0-1.3-0.8-1.7-2.3
				C709.2,355.1,707.5,351.3,705.4,348.5z M741.1,347.2c5.4-5.8,10.5-12.9,15.3-21.5c3.9-6.9,6.9-13.5,8.9-19.8
				c1.1-3.5,1.8-6.9,2.1-10.1c5.9,1.1,10.2,2.1,13.1,3c1.7,0.4,2.5,1,2.5,1.9c0,1-0.4,1.8-1.2,2.5c-1.1,1-2.3,3.1-3.4,6.5
				c-1.4,3.7-2.7,7-4.1,9.8h34.6l16.4-0.3c0.8,0,1.2,0.1,1.4,0.3c0.1,0.2,0.2,0.6,0.2,1.3v9.7c0,0.7-0.1,1.2-0.3,1.4
				c-0.2,0.1-0.7,0.2-1.4,0.2l-16.4-0.3h-21.6v15.8h16.9l14.7-0.3c0.7,0,1.1,0.1,1.3,0.3c0.1,0.2,0.2,0.6,0.2,1.2v9.7
				c0,0.6-0.1,1-0.2,1.2c-0.2,0.2-0.6,0.2-1.3,0.2l-14.7-0.3h-16.9v16.2h16.9l14.9-0.3c1,0,1.5,0.4,1.5,1.3v9.8
				c0,0.7-0.1,1.1-0.2,1.3c-0.2,0.2-0.6,0.3-1.3,0.3l-14.9-0.3h-16.9v7.3l0.3,20.6c0,0.7-0.1,1.1-0.3,1.3c-0.1,0.1-0.5,0.2-1.2,0.2
				h-11.2c-0.7,0-1.1-0.1-1.2-0.3c-0.1-0.1-0.2-0.5-0.2-1.2l0.3-20.6v-63.5h-5.3c-5.2,9.4-10.5,17.4-15.9,23.9
				c-1.2,1.4-2,2.1-2.5,2.1c-0.6,0-1.5-0.9-2.5-2.7C745.6,351.9,743.5,349.2,741.1,347.2z"/>
			<path class="st1" d="M861.7,379.4c-2.3,13.3-6.3,24.6-11.9,33.7c-1.1,1.8-1.8,2.7-2.3,2.7c-0.3,0-1.1-0.8-2.3-2.3
				c-3-3.5-5.8-6.1-8.6-7.8c5.9-8.1,10-18.5,12-31.1c1.7-10.1,2.5-24.8,2.5-44.2l-0.3-27.9c0-0.8,0.1-1.2,0.3-1.4
				c0.2-0.1,0.6-0.2,1.2-0.2l18,0.3h61.1l18.2-0.3c0.7,0,1.2,0.1,1.3,0.3c0.1,0.2,0.2,0.6,0.2,1.3l-0.3,9.4v9.9l0.3,9.4
				c0,0.7-0.1,1.2-0.3,1.3s-0.6,0.2-1.2,0.2l-18.2-0.3h-67v7.6C864.6,355,863.6,368.1,861.7,379.4z M884,367.1h2.8v-10.6l-15.9,0.3
				c-0.7,0-1.1-0.1-1.2-0.3c-0.1-0.2-0.2-0.6-0.2-1.2v-8.5c0-0.7,0.1-1.1,0.3-1.2c0.2-0.1,0.6-0.2,1.2-0.2l15.9,0.3
				c0-4.4-0.3-8-0.8-10.9c4.1,0.1,8.2,0.4,12.4,0.9c1.5,0.2,2.3,0.7,2.3,1.6c0,0.6-0.3,1.3-0.8,2.3c-0.5,1.2-0.8,3.2-0.8,6.1h18
				c0-5-0.3-8.6-0.8-10.9c4,0.1,8.1,0.4,12.4,0.9c1.5,0.2,2.3,0.7,2.3,1.5c0,0.6-0.3,1.4-0.8,2.4c-0.5,0.9-0.8,3-0.8,6.1l16.5-0.3
				c0.7,0,1.1,0.1,1.2,0.3c0.1,0.2,0.2,0.6,0.2,1.2v8.5c0,0.7-0.1,1.2-0.3,1.4c-0.2,0.1-0.6,0.2-1.2,0.2l-16.5-0.3v10.6h7.8
				l18.1-0.3c0.7,0,1.1,0.1,1.3,0.3c0.1,0.2,0.2,0.6,0.2,1.2v8.9c0,0.6-0.1,1-0.2,1.2c-0.2,0.2-0.6,0.2-1.3,0.2l-16.4-0.3
				c3.3,1.7,5.8,3.3,7.6,4.7c0.9,0.6,1.3,1.2,1.3,1.8c0,0.6-0.5,1.1-1.4,1.6c-1.2,0.6-2.5,1.6-3.9,2.9c-2.7,2.5-5.5,4.8-8.5,7
				c7.1,3.7,15.8,6.3,26,7.9c-1.8,1.8-3.6,4.7-5.3,8.6c-0.6,1.7-1.1,2.7-1.4,3.1c-0.3,0.5-0.8,0.7-1.5,0.7c-0.4,0-1.4-0.2-2.8-0.5
				c-21.7-5.9-37.3-18.5-46.6-37.8h-11v22c8.7-1.4,16-2.8,22-4.3c-0.5,2.1-0.9,4.7-1.2,7.7c-0.2,2.2-0.5,3.6-1,4.1
				c-0.4,0.3-1.5,0.7-3.4,1.1c-11.3,2.5-22.5,4.7-33.5,6.6c-1.8,0.2-3.2,0.6-4.2,1.1c-1.1,0.5-1.9,0.8-2.4,0.8
				c-0.9,0-1.5-0.6-1.9-1.8l-2.8-12.3c3.6,0,7.8-0.3,12.7-0.8l2.8-0.3v-23.9c-3.4,0-6.4,0.1-9.2,0.2c-1.9,0-2.8,0.1-2.8,0.1
				c-0.9,0-1.4-0.5-1.4-1.4v-8.9c0-0.9,0.5-1.4,1.4-1.4L884,367.1z M937.2,321.5v-9h-72.7v9H937.2z M899.2,367.1h18v-10.6h-18V367.1
				z M924.8,389.8c2.8-2.1,5.6-4.7,8.5-7.8c1-1.1,2-2.3,2.9-3.7h-20.5C918.3,382.9,921.4,386.8,924.8,389.8z"/>
		</g>
		<rect x="48.2" y="271.3" class="st1" width="914.9" height="3.1"/>
	</g>
	<g>
		<path class="st1" d="M57.4,146.7c0.2-0.3,0.3-0.5,0.6-0.7c0.2-0.1,0.2-0.3,0.2-0.4c0-0.2-0.1-0.3-0.4-0.4
			c-0.5-0.2-1.2-0.5-1.9-0.7c-0.1,0.7-0.2,1.1-0.5,1.8c-1.8,3.9-5.2,8.2-9.8,10.9c0.4,0.2,0.8,0.6,1.1,1.1c0.2,0.3,0.3,0.4,0.4,0.4
			c0.1,0,0.2-0.1,0.5-0.3C52,155.3,54.9,151.9,57.4,146.7z"/>
		<path class="st1" d="M64,144.7c-0.1-0.3-0.2-0.3-0.6-0.1l-0.9,0.4c-0.3,0.2-0.4,0.2-0.3,0.4c2.2,4.9,5.9,9.5,10.7,12.8
			c0.2,0.2,0.3,0.3,0.4,0.3c0.1,0,0.2-0.1,0.4-0.4c0.3-0.5,0.7-1,1-1.3C70,154.1,66.2,149.7,64,144.7z"/>
		<path class="st1" d="M64.5,160c-0.2-0.2-0.2-0.2-0.5,0l-0.8,0.5c-0.4,0.3-0.5,0.3-0.3,0.5c1.5,1.8,2.8,3.5,3.9,5.4
			c-3.5,0.5-7.8,0.9-11.7,1.3c1.7-3.7,3.2-7.7,4.4-10.9c0.3-0.8,0.5-1.2,0.8-1.5c0.2-0.2,0.2-0.3,0.2-0.4c0-0.2-0.2-0.3-0.4-0.4
			c-0.6-0.2-1.3-0.4-2-0.6c-0.1,1-0.4,1.9-0.8,3.3c-0.8,2.6-2.4,6.7-4.2,10.7c-0.3,0-0.6,0-0.9,0c-1.4,0.1-2.5,0.1-3.5,0.1
			c0.2,0.8,0.3,1.5,0.5,2.1c0.1,0.3,0.2,0.4,0.3,0.4c0.2,0,0.3-0.1,0.4-0.2c0.3-0.2,0.6-0.3,1.3-0.3c5.5-0.5,11.7-1.1,16.7-1.9
			c0.6,0.9,1.1,1.9,1.7,3c0.1,0.3,0.2,0.2,0.6,0l1-0.6c0.4-0.2,0.4-0.3,0.3-0.5C69,165.9,67.3,163.3,64.5,160z"/>
		<path class="st1" d="M106.7,151.5c0.2,0,0.3,0,0.3-0.3v-1.5c0-0.2,0-0.3-0.3-0.3c-0.2,0-1.2,0.1-4.3,0.1h-7v-2.6
			c0-1.3,0.1-1.9,0.2-2.2c0.1-0.2,0.2-0.3,0.2-0.6c0-0.1-0.2-0.3-0.4-0.3c-0.7-0.1-1.2-0.1-2.2-0.2c0.2,0.8,0.2,1.6,0.2,3.2v2.6H87
			c-3.1,0-4.1-0.1-4.3-0.1c-0.2,0-0.3,0-0.3,0.3v1.5c0,0.3,0,0.3,0.3,0.3c0.2,0,1.2-0.1,4.3-0.1h15.4
			C105.5,151.4,106.6,151.5,106.7,151.5z"/>
		<path class="st1" d="M88,153.8l-1,0.3c-0.4,0.2-0.5,0.2-0.4,0.4c1.3,3.5,2.3,6.7,3,10.9c0.1,0.3,0.1,0.3,0.6,0.2l1.1-0.3
			c0.4-0.1,0.4-0.2,0.3-0.4c-0.8-4.3-1.9-7.7-3.2-11C88.3,153.7,88.3,153.7,88,153.8z"/>
		<path class="st1" d="M108.3,167.7c-0.2,0-1.1,0.1-4.1,0.1h-6.1c1.6-3.8,2.9-7.4,4-11.3c0.2-0.7,0.3-1.1,0.6-1.4
			c0.1-0.2,0.3-0.3,0.3-0.5c0-0.2-0.1-0.3-0.3-0.3c-0.7-0.3-1.4-0.5-2.2-0.7c-0.1,1-0.3,1.8-0.6,3.3c-0.9,3.2-2.1,7-3.8,11H85.1
			c-2.9,0-3.9-0.1-4-0.1c-0.2,0-0.3,0-0.3,0.3v1.6c0,0.2,0,0.3,0.3,0.3c0.2,0,1.1-0.1,4-0.1h19.1c2.9,0,3.9,0.1,4.1,0.1
			c0.2,0,0.3,0,0.3-0.3V168C108.5,167.7,108.5,167.7,108.3,167.7z"/>
		<path class="st1" d="M130.2,154.3h7.8c3,0,4,0.1,4.2,0.1c0.2,0,0.3,0,0.3-0.3v-1.4c0-0.2,0-0.3-0.3-0.3c-0.2,0-1.2,0.1-4.2,0.1
			h-8.4c0.2-1.6,0.3-3.3,0.3-5.1c0-1.4,0.1-2,0.3-2.4c0.1-0.2,0.2-0.3,0.2-0.6c0-0.2-0.1-0.3-0.4-0.3c-0.6-0.1-1.5-0.2-2.2-0.2
			c0.2,0.9,0.2,1.8,0.2,3.5c0,1.8-0.1,3.4-0.3,5h-7.4c-3,0-4-0.1-4.2-0.1c-0.2,0-0.3,0-0.3,0.3v1.4c0,0.3,0,0.3,0.3,0.3
			c0.2,0,1.2-0.1,4.2-0.1h7.2c-0.3,2.3-0.9,4.3-1.8,6.1c-1.8,3.8-5.1,7.1-10.4,9.3c0.4,0.3,0.8,0.6,1.2,1.1c0.2,0.3,0.3,0.4,0.5,0.4
			c0.1,0,0.3-0.1,0.5-0.2c4.8-2.4,8-5.4,10.1-9.8c0.8-1.6,1.3-3.4,1.7-5.3c2,6.7,6.6,12.2,12,15c0.2,0.1,0.4,0.2,0.5,0.2
			c0.2,0,0.3-0.1,0.4-0.5c0.3-0.5,0.7-1,1.1-1.3C136.7,166.8,132.2,160.8,130.2,154.3z"/>
		<path class="st1" d="M177.1,161c-0.2,0-1.1,0.1-4.1,0.1h-8.3v-0.4c0-0.5,0-0.8,0-1.1c2-1.1,3.6-2.2,4.8-3.2c0.7-0.6,1-0.7,1.3-0.8
			c0.2-0.1,0.3-0.2,0.3-0.4s-0.2-0.5-0.6-1c-0.5-0.5-0.7-0.7-0.9-0.7c-0.1,0-0.2,0-0.3,0.1c-0.1,0-0.3,0.1-0.8,0.1h-8.8
			c-2.9,0-3.9-0.1-4.1-0.1c-0.2,0-0.3,0-0.3,0.3v1.3c0,0.2,0,0.3,0.3,0.3c0.2,0,1.1-0.1,4.1-0.1h8.4c-1.3,1.1-2.6,2-4.1,2.9
			c-0.5-0.1-1-0.2-1.6-0.3c0.2,0.8,0.2,1.7,0.2,3.1h-8.6c-2.9,0-3.9-0.1-4.1-0.1c-0.2,0-0.3,0-0.3,0.3v1.4c0,0.2,0,0.3,0.3,0.3
			c0.2,0,1.1-0.1,4.1-0.1h8.6v5.4c0,1-0.5,1.2-1.4,1.2c-1.3,0-2.2-0.1-3.3-0.2c0.3,0.4,0.5,1,0.7,1.4c0.2,0.6,0.2,0.6,0.8,0.6
			c2.9,0.1,3.7-0.1,4.4-0.5c0.6-0.4,0.8-0.9,0.8-2c0-0.8,0-2,0-2.7v-3.3h8.3c2.9,0,3.9,0.1,4.1,0.1c0.2,0,0.3,0,0.3-0.3v-1.4
			C177.3,161,177.3,161,177.1,161z"/>
		<path class="st1" d="M155.5,149.1c-3,0-4.1-0.1-4.3-0.1c-0.2,0-0.3,0-0.3,0.2c0,0.2,0.1,0.7,0.1,1.7v1.1c0,2.8-0.1,3.2-0.1,3.4
			c0,0.2,0,0.3,0.3,0.3h1.4c0.2,0,0.3,0,0.3-0.3v-4.7h21.6v4.7c0,0.2,0,0.3,0.3,0.3h1.4c0.3,0,0.3,0,0.3-0.3c0-0.2-0.1-0.6-0.1-3.4
			v-1.3c0-0.9,0.1-1.4,0.1-1.5c0-0.2,0-0.2-0.3-0.2c-0.2,0-1.3,0.1-4.3,0.1h-1.3c0.8-1.2,1.3-2.1,1.9-3.2c0.2-0.3,0.4-0.6,0.6-0.7
			c0.2-0.1,0.2-0.2,0.2-0.3c0-0.2-0.1-0.3-0.3-0.4c-0.5-0.3-1.2-0.5-1.8-0.7c-0.1,0.6-0.3,1.1-0.4,1.4c-0.6,1.3-1.2,2.5-2,3.9H155.5
			z"/>
		<path class="st1" d="M156.6,148.6c0.1,0,0.2-0.1,0.4-0.2l0.8-0.4c0.4-0.2,0.4-0.2,0.3-0.4c-0.7-1.2-1.4-2.4-2.3-3.5
			c-0.2-0.2-0.3-0.2-0.6,0l-0.8,0.3c-0.4,0.2-0.4,0.3-0.3,0.4c0.8,1,1.7,2.3,2.3,3.5C156.5,148.5,156.5,148.6,156.6,148.6z"/>
		<path class="st1" d="M163.9,148.1l0.8-0.3c0.4-0.2,0.4-0.2,0.3-0.4c-0.5-1.3-1.2-2.5-1.9-3.7c-0.1-0.2-0.2-0.2-0.5-0.1l-0.8,0.3
			c-0.3,0.1-0.4,0.2-0.3,0.4c0.7,1.1,1.3,2.2,1.8,3.7C163.4,148.3,163.4,148.3,163.9,148.1z"/>
		<path class="st1" d="M191.4,147.7c-1.2-1.3-2.7-2.4-4.2-3.4c-0.2-0.1-0.3-0.1-0.5,0.2l-0.7,0.7c-0.3,0.3-0.3,0.3-0.1,0.5
			c1.3,0.8,2.9,2.2,4.2,3.6c0.2,0.2,0.3,0.2,0.5-0.1l0.7-0.8C191.6,148,191.6,147.9,191.4,147.7z"/>
		<path class="st1" d="M211.7,157.4c-0.2,0-1.3,0.1-4.4,0.1h-5.4v-5.7h3.9c3.1,0,4.1,0.1,4.3,0.1c0.2,0,0.3,0,0.3-0.3v-1.3
			c0-0.2,0-0.3-0.3-0.3c-0.2,0-1.2,0.1-4.3,0.1h-3.9v-2.3c0-1.9,0.1-2.7,0.2-3c0.1-0.3,0.2-0.4,0.2-0.6c0-0.1-0.2-0.3-0.4-0.3
			c-0.7-0.1-1.2-0.1-2-0.2c0.2,1.1,0.2,2,0.2,4.1v2.3h-2.7c-3.1,0-4.1-0.1-4.2-0.1c-0.2,0-0.3,0-0.3,0.3v1.3c0,0.2,0,0.3,0.3,0.3
			c0.2,0,1.2-0.1,4.2-0.1h2.7v5.7h-4.2c-3.2,0-4.3-0.1-4.4-0.1c-0.2,0-0.3,0-0.3,0.3v1.3c0,0.3,0,0.3,0.3,0.3c0.2,0,1.3-0.1,4.4-0.1
			h2.7c-0.9,3.3-2,6.1-3.2,8.8l-1.1,0.1c-0.9,0.1-1.9,0.1-3.2,0.1c0.1,0.7,0.3,1.3,0.5,2c0.1,0.2,0.2,0.4,0.4,0.4
			c0.2,0,0.3-0.1,0.5-0.2c0.2-0.1,0.4-0.2,1.3-0.3c5.3-0.6,9.5-1.1,14.4-1.9c0.6,0.9,1.2,1.9,1.7,2.9c0.1,0.2,0.2,0.2,0.6-0.1
			l0.9-0.6c0.3-0.2,0.3-0.3,0.2-0.5c-1.8-3-3.6-5.5-5.8-7.9c-0.1-0.1-0.2-0.1-0.4,0l-0.8,0.5c-0.3,0.2-0.4,0.3-0.2,0.5
			c1,1.2,2,2.4,2.9,3.6c-3.2,0.5-6.3,0.9-9.7,1.2c1.1-2.4,2.2-5.3,3.2-8.6h6.6c3.2,0,4.3,0.1,4.4,0.1c0.2,0,0.2,0,0.2-0.3v-1.3
			C211.9,157.5,211.9,157.4,211.7,157.4z"/>
		<path class="st1" d="M189,156.6l0.8-0.9c0.2-0.2,0.2-0.3,0-0.4c-1.4-1.3-2.9-2.4-4.4-3.3c-0.2-0.1-0.3-0.1-0.5,0.2l-0.7,0.8
			c-0.2,0.3-0.3,0.3,0,0.4c1.4,0.9,3,2.1,4.3,3.4C188.6,157.1,188.7,157,189,156.6z"/>
		<path class="st1" d="M189.9,161.4c-0.4-0.3-0.8-0.5-1.1-0.9c-0.9,3.1-1.9,5.6-2.9,7.5c-0.5,0.9-0.8,1.6-1.4,2.3
			c0.6,0.4,1,0.7,1.5,1c0.2,0.1,0.3,0.2,0.5,0.2c0.1,0,0.2-0.2,0.3-0.4c0-0.3,0.3-0.8,0.5-1.4c0.9-2.2,2-4.8,2.9-7.4
			C190.3,161.8,190.3,161.7,189.9,161.4z"/>
		<path class="st1" d="M233.3,149c0-0.5,0-1.1,0-1.6c0-0.8,0.1-1.4,0.3-1.8c0.1-0.2,0.2-0.4,0.2-0.6c0-0.2-0.2-0.3-0.4-0.4
			c-0.7-0.1-1.6-0.2-2.3-0.3c0.2,1.1,0.2,2,0.2,3.7c0.1,9-4.2,17.2-12.6,21.2c0.4,0.3,0.8,0.7,1.2,1.1c0.2,0.3,0.3,0.5,0.4,0.5
			s0.3-0.1,0.5-0.2c6.4-3.6,10.6-9.4,11.9-17.2c1.2,6.3,4.5,12.7,11.7,17.3c0.2,0.2,0.3,0.2,0.5,0.2c0.1,0,0.2-0.1,0.4-0.4
			c0.3-0.5,0.7-0.9,1.1-1.3C238.1,164.6,234.6,157.4,233.3,149z"/>
		<path class="st1" d="M289.6,162.3c0-0.3,0-0.3-0.3-0.3c-0.2,0-1.3,0.1-4.4,0.1h-6.6c0.5-1,0.9-2.1,1.3-3.4h2.9
			c2.9,0,4,0.1,4.1,0.1c0.2,0,0.3,0,0.3-0.3c0-0.2-0.1-0.7-0.1-2.3v-2.3c0-1.6,0.1-2.1,0.1-2.3c0-0.2,0-0.3-0.3-0.3
			c-0.2,0-1.2,0.1-4.1,0.1h-7c-2.9,0-3.9-0.1-4.1-0.1c-0.2,0-0.3,0-0.3,0.3c0,0.2,0.1,0.7,0.1,2.3v2.3c0,1.6-0.1,2.2-0.1,2.3
			c0,0.2,0,0.3,0.3,0.3c0.2,0,1.2-0.1,4.1-0.1h2.1c-0.3,1.1-0.8,2.3-1.3,3.4h-3c-3.2,0-4.3-0.1-4.5-0.1c-0.2,0-0.3,0-0.3,0.3
			c0,0.2,0.1,0.8,0.1,2.7v1.8c0,3.8-0.1,4.4-0.1,4.6s0,0.2,0.3,0.2h1.5c0.2,0,0.2,0,0.2-0.2v-1.3h17.2v1.2c0,0.2,0,0.2,0.3,0.2h1.4
			c0.2,0,0.3,0,0.3-0.2s-0.1-0.8-0.1-4.6v-2.1C289.5,163.2,289.6,162.5,289.6,162.3z M273,157.2v-4.3h12v4.3H273z M287.6,168.6
			h-17.2v-4.8h17.2V168.6z"/>
		<path class="st1" d="M291.7,147.2c0-0.2,0-0.3-0.3-0.3c-0.2,0-1.3,0.1-4.3,0.1h-7.4v-0.4c0-1.4,0-1.9,0.2-2.2
			c0.1-0.2,0.2-0.3,0.2-0.6c0-0.1-0.1-0.3-0.4-0.3c-0.6-0.1-1.3-0.1-2-0.1c0.2,0.8,0.2,1.6,0.2,3.2v0.4H271c-3.1,0-4.1-0.1-4.3-0.1
			c-0.2,0-0.3,0-0.3,0.3c0,0.2,0.1,0.6,0.1,1.7v1.1c0,2.8-0.1,3.2-0.1,3.3c0,0.2,0,0.3,0.3,0.3h1.4c0.2,0,0.3,0,0.3-0.3v-4.6h21.4
			v4.6c0,0.2,0,0.3,0.3,0.3h1.4c0.2,0,0.3,0,0.3-0.3c0-0.2-0.1-0.6-0.1-3.3v-1.3C291.6,147.8,291.7,147.3,291.7,147.2z"/>
		<path class="st1" d="M324.7,148.1c0.1,0,0.2-0.1,0.4-0.2l0.6-0.4c0.4-0.3,0.4-0.3,0.3-0.5c-0.7-1-1.5-1.9-2.3-2.7
			c-0.2-0.2-0.2-0.2-0.5,0l-0.6,0.4c-0.4,0.2-0.4,0.3-0.2,0.4c0.8,0.8,1.6,1.8,2.3,2.8C324.5,148,324.6,148.1,324.7,148.1z"/>
		<path class="st1" d="M307.7,162.5c0-0.4,0-0.8,0.1-1.2c-0.9,0.5-1.9,1-2.9,1.4v-9.1h0.2c2,0,2.5,0.1,2.7,0.1c0.2,0,0.3,0,0.3-0.3
			v-1.3c0-0.2,0-0.3-0.3-0.3c-0.2,0-0.8,0.1-2.7,0.1h-0.2v-3.8c0-2.1,0.1-2.9,0.2-3.3c0.1-0.2,0.2-0.4,0.2-0.5
			c0-0.2-0.2-0.3-0.4-0.3c-0.6-0.1-1.2-0.2-2-0.2c0.2,1.2,0.3,2.1,0.3,4.3v3.7h-0.5c-2,0-2.6-0.1-2.7-0.1c-0.2,0-0.3,0-0.3,0.3v1.3
			c0,0.2,0,0.3,0.3,0.3c0.2,0,0.7-0.1,2.7-0.1h0.5v9.8l-1.3,0.4c-1,0.3-1.6,0.4-2.5,0.6c0.2,0.6,0.3,1.2,0.5,1.7
			c0.1,0.2,0.2,0.3,0.3,0.3c0.2,0,0.3-0.1,0.4-0.2c0.1-0.1,0.4-0.3,1.1-0.5c1.8-0.7,3.8-1.5,5.4-2.4
			C307.7,163.1,307.7,163.2,307.7,162.5z"/>
		<path class="st1" d="M327.6,165.2c-0.4-0.2-0.8-0.4-1.1-0.8c-0.2,2.7-0.4,4.4-1,4.4c-0.8,0-2.2-1.6-3.3-5.1c1.1-1.8,2-4,2.9-6.7
			c0.3-1.1,0.4-1.5,0.7-1.8c0.2-0.2,0.3-0.3,0.3-0.5c0-0.2-0.1-0.3-0.4-0.4c-0.5-0.2-1-0.4-1.7-0.6c-0.1,1-0.3,2-0.6,3
			c-0.5,1.8-1.1,3.3-1.8,4.7c-0.8-3.1-1.3-6.6-1.4-10.7h2.6c3.1,0,4.1,0.1,4.3,0.1c0.2,0,0.3,0,0.3-0.3v-1.3c0-0.2,0-0.2-0.3-0.2
			c-0.2,0-1.2,0-4.3,0H320v-2.1c0-1.5,0.1-2,0.2-2.3c0.1-0.2,0.2-0.4,0.2-0.6c0-0.1-0.1-0.3-0.4-0.3c-0.7-0.1-1.3-0.2-1.9-0.2
			c0.2,1.2,0.2,2.6,0.2,3.9c0,0.6,0,1.1,0,1.7h-4.4c-3.1,0-4.2,0-4.3,0c-0.2,0-0.3,0-0.3,0.2c0,0.2,0.1,1.1,0.1,3.5
			c0,3.3,0,6.2-0.5,9c-0.6,3.5-2.2,6.4-4.2,8.5c0.4,0.2,0.8,0.4,1.2,0.7c0.2,0.2,0.3,0.3,0.4,0.3c0.1,0,0.2-0.1,0.3-0.4
			c1.8-2.3,3.4-5.4,3.9-8.5c0.3-1.9,0.5-3.7,0.5-5.7h3.9c0,2.7-0.3,5.3-0.5,6.2c-0.3,0.8-0.6,1-1.2,1c-0.6,0-1.3-0.1-2.2-0.3
			c0.2,0.4,0.3,0.8,0.3,1.3c0.1,0.6,0.1,0.6,0.5,0.7c0.6,0.1,1.1,0.1,1.8,0.1c1,0,2-0.5,2.2-1.6c0.4-1.3,0.7-3.6,0.8-7
			c0-0.6,0-1.2,0.1-1.9c0-0.2-0.1-0.3-0.3-0.3c-0.2,0-0.6,0.1-2.1,0.1H311v-4.3h7.2c0.2,4.6,0.8,9,2,12.8c-2,2.9-4.7,4.9-8.1,6.5
			c0.4,0.2,0.8,0.5,1,0.8c0.2,0.3,0.3,0.4,0.5,0.4c0.1,0,0.3-0.1,0.5-0.2c2.8-1.5,5-3.2,6.8-5.5c1.5,3.9,3.2,5.5,4.6,5.5
			c1.4,0,2.2-1.1,2.5-4.9C328.1,165.5,328.1,165.4,327.6,165.2z"/>
		<path class="st1" d="M349,154.3h7.8c3,0,4,0.1,4.2,0.1c0.2,0,0.3,0,0.3-0.3v-1.4c0-0.2,0-0.3-0.3-0.3c-0.2,0-1.2,0.1-4.2,0.1h-8.4
			c0.2-1.6,0.3-3.3,0.3-5.1c0-1.4,0.1-2,0.3-2.4c0.1-0.2,0.2-0.3,0.2-0.6c0-0.2-0.1-0.3-0.4-0.3c-0.6-0.1-1.5-0.2-2.2-0.2
			c0.2,0.9,0.2,1.8,0.2,3.5c0,1.8-0.1,3.4-0.3,5H339c-3,0-4-0.1-4.2-0.1c-0.2,0-0.3,0-0.3,0.3v1.4c0,0.3,0,0.3,0.3,0.3
			c0.2,0,1.2-0.1,4.2-0.1h7.2c-0.3,2.3-0.9,4.3-1.8,6.1c-1.8,3.8-5.1,7.1-10.4,9.3c0.4,0.3,0.8,0.6,1.2,1.1c0.2,0.3,0.3,0.4,0.5,0.4
			c0.1,0,0.3-0.1,0.5-0.2c4.8-2.4,8-5.4,10.1-9.8c0.8-1.6,1.3-3.4,1.7-5.3c2,6.7,6.6,12.2,12,15c0.2,0.1,0.4,0.2,0.5,0.2
			c0.2,0,0.3-0.1,0.4-0.5c0.3-0.5,0.7-1,1.1-1.3C355.5,166.8,351,160.8,349,154.3z"/>
		<path class="st1" d="M375.4,148.6c0.1,0,0.2-0.1,0.4-0.2l0.8-0.4c0.4-0.2,0.4-0.2,0.3-0.4c-0.7-1.2-1.4-2.4-2.4-3.5
			c-0.2-0.2-0.3-0.2-0.6,0l-0.8,0.3c-0.4,0.2-0.4,0.3-0.3,0.4c0.8,1,1.7,2.3,2.3,3.5C375.3,148.5,375.3,148.6,375.4,148.6z"/>
		<path class="st1" d="M369.7,155.4c0,0.2,0,0.3,0.3,0.3h1.4c0.2,0,0.3,0,0.3-0.3v-4.7h21.6v4.7c0,0.2,0,0.3,0.3,0.3h1.4
			c0.3,0,0.3,0,0.3-0.3c0-0.2-0.1-0.6-0.1-3.4v-1.3c0-0.9,0.1-1.4,0.1-1.5c0-0.2,0-0.2-0.3-0.2c-0.2,0-1.3,0.1-4.3,0.1h-1.3
			c0.8-1.2,1.3-2.1,1.9-3.2c0.2-0.3,0.4-0.6,0.6-0.7c0.2-0.1,0.2-0.2,0.2-0.3c0-0.2-0.1-0.3-0.3-0.4c-0.5-0.3-1.2-0.5-1.8-0.7
			c-0.1,0.6-0.3,1.1-0.4,1.4c-0.6,1.3-1.2,2.5-2,3.9h-13c-3,0-4.1-0.1-4.3-0.1c-0.2,0-0.3,0-0.3,0.2c0,0.2,0.1,0.7,0.1,1.7v1.1
			C369.8,154.8,369.7,155.2,369.7,155.4z"/>
		<path class="st1" d="M382.7,148.1l0.8-0.3c0.4-0.2,0.4-0.2,0.3-0.4c-0.5-1.3-1.2-2.5-1.9-3.7c-0.1-0.2-0.2-0.2-0.5-0.1l-0.8,0.3
			c-0.3,0.1-0.4,0.2-0.3,0.4c0.7,1.1,1.3,2.2,1.8,3.7C382.2,148.3,382.2,148.3,382.7,148.1z"/>
		<path class="st1" d="M395.9,161c-0.2,0-1.1,0.1-4.1,0.1h-8.3v-0.4c0-0.5,0-0.8,0-1.1c2-1.1,3.6-2.2,4.8-3.2c0.7-0.6,1-0.7,1.3-0.8
			c0.2-0.1,0.3-0.2,0.3-0.4s-0.2-0.5-0.6-1c-0.5-0.5-0.7-0.7-0.9-0.7c-0.1,0-0.2,0-0.3,0.1c-0.1,0-0.3,0.1-0.8,0.1h-8.8
			c-2.9,0-3.9-0.1-4.1-0.1c-0.2,0-0.3,0-0.3,0.3v1.3c0,0.2,0,0.3,0.3,0.3c0.2,0,1.1-0.1,4.1-0.1h8.4c-1.3,1.1-2.6,2-4.1,2.9
			c-0.5-0.1-1-0.2-1.6-0.3c0.2,0.8,0.2,1.7,0.2,3.1H373c-2.9,0-3.9-0.1-4.1-0.1c-0.2,0-0.3,0-0.3,0.3v1.4c0,0.2,0,0.3,0.3,0.3
			c0.2,0,1.1-0.1,4.1-0.1h8.6v5.4c0,1-0.5,1.2-1.4,1.2c-1.3,0-2.2-0.1-3.3-0.2c0.3,0.4,0.5,1,0.7,1.4c0.2,0.6,0.2,0.6,0.8,0.6
			c2.9,0.1,3.7-0.1,4.4-0.5c0.6-0.4,0.8-0.9,0.8-2c0-0.8,0-2,0-2.7v-3.3h8.3c2.9,0,3.9,0.1,4.1,0.1c0.2,0,0.3,0,0.3-0.3v-1.4
			C396.1,161,396.1,161,395.9,161z"/>
		<path class="st1" d="M83.5,113c-12.8,0-15.4-4.6-15.4-17.9V18.6h0.3l31.6,99.6h5.4L138.3,18h0.3v84.8c0,7.4-2.6,10.2-13.9,10.2
			v5.2h44.7V113c-12.5,0-15.1-2.8-15.1-10.2V27.6c0-7.4,2.6-10.2,13.7-10.2v-5.2h-34.1l-25.8,79h-0.3l-25.1-79H46.5v5.2
			c12.5,0,15.1,2.8,15.1,10.2v67.5c0,13.3-2.6,17.9-15.1,17.9v5.2h37V113z"/>
		<path class="st1" d="M261.1,32.1c5.7-10.8,7.7-14.6,18.8-14.6v-5.2h-35.3v5.2c9.7,0,13.1,1.8,13.1,5.1c0,7.9-18.4,36.5-21.3,43
			c-2.6-6.9-20.7-37.6-20.7-42.9c0-3.7,3.7-5.2,13-5.2v-5.2H185v5.2c8,0,10.9,1.2,15.1,9.4l23.6,46.4v29.6c0,7.4-2.6,10.2-16,10.2
			v5.2H256V113c-14,0-16.7-2.8-16.7-10.2V73.2L261.1,32.1z"/>
		<path class="st1" d="M365.7,12.2v5.2c15,0,16.5,6.5,16.5,14.8v52.1c0,17.3-8.5,30.5-31,30.5c-17,0-25.1-8.9-25.1-25.4V27.6
			c0-7.4,2.6-10.2,14.8-10.2v-5.2h-45.3v5.2c12.2,0,14.8,2.8,14.8,10.2V89c0,21.6,15.3,31.1,39,31.1c22.2,0,38.4-12.3,38.4-34.5
			V32.2c0-8.3,1.5-14.8,15.1-14.8v-5.2H365.7z"/>
	</g>
	<g>
		<g>
			<path class="st1" d="M485.7,76.9h-42.2V68l22.9-26.9c4.3-5,6.3-9.1,6.3-13.6c0-5.5-4.1-8.3-8.5-8.3c-4.7,0-8.1,2.9-8.5,8.3h-12.3
				c0-11.8,9.7-19.8,21.5-19.8c12.3,0,21.6,8.5,21.6,19.8c0,9-5.9,16-10.3,21.2l-14.1,16.5h23.6V76.9z"/>
			<path class="st1" d="M541.6,56c0,15.3-10.7,21.8-23,21.8c-12.3,0-23-6.4-23-21.8V29.5c0-16,10.7-21.8,23-21.8
				c12.3,0,23,5.7,23,21.7V56z M518.6,19.4c-6.2,0-9.2,4-9.2,11.3v24.2c0,7.3,3,11.3,9.2,11.3c6.1,0,9.1-4,9.1-11.3V30.7
				C527.7,23.4,524.8,19.4,518.6,19.4z"/>
			<path class="st1" d="M592.6,76.9h-42.2V68l22.9-26.9c4.3-5,6.3-9.1,6.3-13.6c0-5.5-4.1-8.3-8.5-8.3c-4.7,0-8.1,2.9-8.5,8.3h-12.3
				c0-11.8,9.7-19.8,21.5-19.8c12.3,0,21.6,8.5,21.6,19.8c0,9-5.9,16-10.3,21.2L569,65.3h23.6V76.9z"/>
			<path class="st1" d="M618,35.9h5c5.6,0,9.5-3,9.5-8.7c0-4.6-3.5-7.9-8.5-7.9c-4.9,0-7.9,3.1-8.5,7.3h-12.3
				c0.5-11.2,9.7-18.8,21.5-18.8c12.5,0,21.6,8.6,21.6,18.8c0,7.7-4.8,12.5-9.3,14.9c5.8,2.9,10.3,8.2,10.3,16.3
				c0,11.1-7.7,20-21.8,20c-14.5,0-22.7-8.1-23.2-19.2h12.2c0.7,4.4,4,7.5,10.1,7.5c5.5,0,8.9-4,8.9-9c0-6-3.5-9.6-10.5-9.6h-5V35.9
				z"/>
			<path class="st1" d="M673.6,76.9h-15.4V61.5h15.4V76.9z"/>
		</g>
		<g>
			<g>
				<g>
					<path class="st1" d="M486.8,168.2h-43.3v-9.2l23.5-27.7c4.4-5.1,6.5-9.4,6.5-13.9c0-5.7-4.2-8.5-8.7-8.5
						c-4.8,0-8.3,2.9-8.7,8.5h-12.6c0-12.1,10-20.3,22.1-20.3c12.6,0,22.2,8.7,22.2,20.3c0,9.3-6.1,16.5-10.6,21.8l-14.4,17h24.2
						V168.2z"/>
					<path class="st1" d="M515.2,168.2h-15.9v-15.9h15.9V168.2z"/>
					<path class="st1" d="M552.2,168.2H538v-55.3l-10.1,6.6v-13.7l11.5-7.7h12.8V168.2z"/>
					<path class="st1" d="M566.7,121V98h42.9v10l-20.2,60.2h-14.7l20.3-58.1h-16.2V121H566.7z"/>
				</g>
				<g>
					<path class="st1" d="M653.1,143.3h-10v6h9.3v6h-9.3v12.9h-7.2v-31h17.2V143.3z"/>
					<path class="st1" d="M669.2,137.2c4,0,6.4,1.3,7.9,2.7c1.3,1.3,2.7,3.5,2.7,6.9c0,2-0.4,4.4-2.4,6.3c-1.1,1-2.6,2-4.3,2.4
						l9.5,12.7h-8.7l-8.4-12.2v12.2h-7.2v-31H669.2z M665.5,151.3h1.6c1.3,0,3.1-0.1,4.3-1.3c0.5-0.5,1.2-1.5,1.2-3
						c0-1.8-0.8-2.7-1.4-3.2c-1.2-0.9-3-1-4-1h-1.7V151.3z"/>
					<path class="st1" d="M693.9,137.2v31h-7.2v-31H693.9z"/>
				</g>
			</g>
			<g>
				<g>
					<path class="st1" d="M795.6,168.2h-14.2v-55.3l-10.1,6.6v-13.7l11.5-7.7h12.8V168.2z"/>
					<path class="st1" d="M833.4,139.4c-2.2,1-4.4,1.3-6.8,1.3c-10.8,0-19.3-8.8-19.3-21c0-15.6,10.6-22.6,23.6-22.6
						c13.1,0,23.7,6.9,23.7,22.5c0,5.5-2.5,12-6.5,20l-14.1,28.6h-15.3L833.4,139.4z M830.8,109.2c-6.1,0-9.4,4.1-9.4,10
						c0,5.8,3.3,9.9,9.4,9.9c6.2,0,9.5-4.1,9.5-9.9C840.3,113.2,837,109.2,830.8,109.2z"/>
				</g>
				<g>
					<path class="st1" d="M897.1,144.7c-2.2-2-4.2-2.1-5-2.1c-0.9,0-2.1,0.1-2.9,1c-0.4,0.4-0.8,1.1-0.8,1.9c0,0.7,0.2,1.3,0.7,1.7
						c0.7,0.7,1.7,0.9,3.8,1.7l2.2,0.8c1.3,0.5,2.9,1.2,4.1,2.3c1.7,1.7,2.2,3.8,2.2,5.5c0,3.1-1.1,5.8-2.6,7.4
						c-2.6,2.8-6.5,3-8.4,3c-2.1,0-4-0.3-5.9-1.3c-1.5-0.8-3.3-2.1-4.4-3.3l3.6-4.9c0.8,0.8,2,1.8,2.8,2.3c1.2,0.7,2.4,1.1,3.8,1.1
						c0.9,0,2.1-0.2,3.1-1c0.6-0.5,1.1-1.3,1.1-2.4c0-1-0.4-1.6-1-2.1c-0.8-0.7-2.6-1.3-3.5-1.7l-2.5-0.8c-1.4-0.5-3-1.1-4.2-2.4
						c-1.6-1.7-1.8-3.8-1.8-5.2c0-2.6,0.8-4.9,2.6-6.7c2.1-2.1,4.6-2.7,7.4-2.7c2.1,0,5.4,0.4,8.8,2.9L897.1,144.7z"/>
					<path class="st1" d="M930.6,155.1c0,2.9-0.4,6.4-3.3,9.4c-2.9,2.9-6.2,3.4-9.3,3.4c-3.1,0-6.4-0.4-9.3-3.4
						c-2.9-3-3.3-6.6-3.3-9.4v-17.7h6.9v17.5c0,1.3,0.1,3.5,1.6,5c1.2,1.3,2.9,1.6,4.2,1.6c1.3,0,2.9-0.3,4.2-1.6
						c1.5-1.5,1.6-3.7,1.6-5v-17.5h6.9V155.1z"/>
					<path class="st1" d="M934.4,167.2v-29.8h6l16.2,19.2v-19.2h6.9v29.8h-6l-16.2-19.3v19.3H934.4z"/>
				</g>
			</g>
			<g>
				<polygon class="st1" points="748.8,154.1 724.3,140 724.3,168.2 				"/>
			</g>
		</g>
	</g>
</g>
</svg>
